<svg width="64" height="64" viewBox="0 0 64 64" fill="none" xmlns="http://www.w3.org/2000/svg">

<path d="M36.95 0H27.05C12.1107 0 0 12.1107 0 27.05V36.95C0 51.8893 12.1107 64 27.05 64H36.95C51.8893 64 64 51.8893 64 36.95V27.05C64 12.1107 51.8893 0 36.95 0Z" fill="url(#paint0_linear_4771_6418)"/>
<path d="M25.7899 36.8404C13.9399 36.8404 10.1799 29.6804 10.0299 29.3804C9.63989 28.6104 9.94989 27.6604 10.7199 27.2704C11.4899 26.8804 12.4299 27.1904 12.8299 27.9504C12.9699 28.2104 15.9999 33.7004 25.7899 33.7004C26.6599 33.7004 27.3599 34.4004 27.3599 35.2704C27.3599 36.1404 26.6599 36.8404 25.7899 36.8404Z" fill="#F0AA17"/>
<path d="M18.0593 41.9409C20.285 41.9409 22.0893 40.1366 22.0893 37.9109C22.0893 35.6852 20.285 33.8809 18.0593 33.8809C15.8336 33.8809 14.0293 35.6852 14.0293 37.9109C14.0293 40.1366 15.8336 41.9409 18.0593 41.9409Z" fill="#F0AA17"/>
<path d="M38.2106 36.8403C37.3406 36.8403 36.6406 36.1403 36.6406 35.2703C36.6406 34.4003 37.3406 33.7003 38.2106 33.7003C48.0306 33.7003 51.0506 28.1803 51.1706 27.9503C51.5706 27.1903 52.5206 26.8903 53.2806 27.2803C54.0506 27.6803 54.3506 28.6103 53.9606 29.3803C53.8106 29.6803 50.0406 36.8403 38.2006 36.8403H38.2106Z" fill="#F0AA17"/>
<path d="M45.9402 41.9409C48.1659 41.9409 49.9702 40.1366 49.9702 37.9109C49.9702 35.6852 48.1659 33.8809 45.9402 33.8809C43.7144 33.8809 41.9102 35.6852 41.9102 37.9109C41.9102 40.1366 43.7144 41.9409 45.9402 41.9409Z" fill="#F0AA17"/>
<path d="M11.4297 28C11.4297 28 14.7697 34.6 25.7897 34.6" stroke="#5A2A13" stroke-width="3.14" stroke-miterlimit="10" stroke-linecap="round"/>
<path d="M18.0593 41.2797C20.285 41.2797 22.0893 39.4754 22.0893 37.2497C22.0893 35.024 20.285 33.2197 18.0593 33.2197C15.8336 33.2197 14.0293 35.024 14.0293 37.2497C14.0293 39.4754 15.8336 41.2797 18.0593 41.2797Z" fill="#5A2A13"/>
<path d="M52.5709 28C52.5709 28 49.2309 34.6 38.2109 34.6" stroke="#5A2A13" stroke-width="3.14" stroke-miterlimit="10" stroke-linecap="round"/>
<path d="M45.9402 41.2797C48.1659 41.2797 49.9702 39.4754 49.9702 37.2497C49.9702 35.024 48.1659 33.2197 45.9402 33.2197C43.7144 33.2197 41.9102 35.024 41.9102 37.2497C41.9102 39.4754 43.7144 41.2797 45.9402 41.2797Z" fill="#5A2A13"/>
<path d="M39.6701 49.7402H24.3301" stroke="#F0AA17" stroke-width="3.14" stroke-miterlimit="10" stroke-linecap="round"/>
<path d="M39.6701 49.0801H24.3301" stroke="#5A2A13" stroke-width="3.14" stroke-miterlimit="10" stroke-linecap="round"/>
<defs>
<linearGradient id="paint0_linear_4771_6418" x1="32" y1="64" x2="32" y2="0" gradientUnits="userSpaceOnUse">
<stop stop-color="#FFD200"/>
<stop offset="0.26" stop-color="#FECF00"/>
<stop offset="0.4" stop-color="#FEC700"/>
<stop offset="0.52" stop-color="#FDB902"/>
<stop offset="0.63" stop-color="#FCA504"/>
<stop offset="0.73" stop-color="#FB8B06"/>
<stop offset="0.81" stop-color="#FA6C09"/>
<stop offset="0.9" stop-color="#F8460C"/>
<stop offset="0.97" stop-color="#F61B10"/>
<stop offset="1" stop-color="#F60B12"/>
</linearGradient>
</defs>
</svg>
