<svg width="64" height="64" viewBox="0 0 64 64" fill="none" xmlns="http://www.w3.org/2000/svg">

<path d="M36.9 0H27.1C12.1331 0 0 12.1331 0 27.1V36.9C0 51.8669 12.1331 64 27.1 64H36.9C51.8669 64 64 51.8669 64 36.9V27.1C64 12.1331 51.8669 0 36.9 0Z" fill="url(#paint0_linear_4771_6384)"/>
<path d="M42.5992 44.7H21.2992C20.3992 44.7 19.6992 44 19.6992 43.1C19.6992 42.2 20.3992 41.5 21.2992 41.5H42.5992C43.4992 41.5 44.1992 42.2 44.1992 43.1C44.1992 44 43.4992 44.7 42.5992 44.7Z" fill="#F0AA17"/>
<path d="M42.5992 43.9002H21.2992C20.3992 43.9002 19.6992 43.2002 19.6992 42.3002C19.6992 41.4002 20.3992 40.7002 21.2992 40.7002H42.5992C43.4992 40.7002 44.1992 41.4002 44.1992 42.3002C44.1992 43.2002 43.4992 43.9002 42.5992 43.9002Z" fill="#5A2A13"/>
<path d="M25.1008 26.7996H15.9008C15.0008 26.7996 14.3008 26.0996 14.3008 25.1996C14.3008 24.2996 15.0008 23.5996 15.9008 23.5996H25.1008C26.0008 23.5996 26.7008 24.2996 26.7008 25.1996C26.7008 26.0996 26.0008 26.7996 25.1008 26.7996Z" fill="#F0AA17"/>
<path d="M25.1008 26.4002H15.9008C15.0008 26.4002 14.3008 25.7002 14.3008 24.8002C14.3008 23.9002 15.0008 23.2002 15.9008 23.2002H25.1008C26.0008 23.2002 26.7008 23.9002 26.7008 24.8002C26.7008 25.7002 26.0008 26.4002 25.1008 26.4002Z" fill="#5A2A13"/>
<path d="M48.1008 26.7996H38.9008C38.0008 26.7996 37.3008 26.0996 37.3008 25.1996C37.3008 24.2996 38.0008 23.5996 38.9008 23.5996H48.1008C49.0008 23.5996 49.7008 24.2996 49.7008 25.1996C49.7008 26.0996 49.0008 26.7996 48.1008 26.7996Z" fill="#F0AA17"/>
<path d="M48.1008 26.4002H38.9008C38.0008 26.4002 37.3008 25.7002 37.3008 24.8002C37.3008 23.9002 38.0008 23.2002 38.9008 23.2002H48.1008C49.0008 23.2002 49.7008 23.9002 49.7008 24.8002C49.7008 25.7002 49.0008 26.4002 48.1008 26.4002Z" fill="#5A2A13"/>
<defs>
<linearGradient id="paint0_linear_4771_6384" x1="32" y1="64" x2="32" y2="0" gradientUnits="userSpaceOnUse">
<stop stop-color="#F8A40D"/>
<stop offset="0.3" stop-color="#FBB807"/>
<stop offset="0.4" stop-color="#FDC703"/>
<stop offset="0.6" stop-color="#FECF00"/>
<stop offset="1" stop-color="#FFD200"/>
</linearGradient>
</defs>
</svg>
