<svg width="64" height="64" viewBox="0 0 64 64" fill="none" xmlns="http://www.w3.org/2000/svg">

<path d="M36.95 0H27.05C12.1107 0 0 12.1107 0 27.05V36.95C0 51.8893 12.1107 64 27.05 64H36.95C51.8893 64 64 51.8893 64 36.95V27.05C64 12.1107 51.8893 0 36.95 0Z" fill="url(#paint0_linear_4826_2776)"/>
<path d="M46.8101 19.8999C46.2701 19.8999 45.7501 19.6199 45.4601 19.1299C45.3501 18.9499 43.0101 15.1999 38.4101 15.8199C37.5501 15.9399 36.7601 15.3299 36.6401 14.4799C36.5201 13.6199 37.1301 12.8299 37.9901 12.7099C44.7101 11.7999 48.0301 17.2999 48.1701 17.5399C48.6101 18.2899 48.3601 19.2499 47.6101 19.6899C47.3601 19.8399 47.0901 19.9099 46.8201 19.9099L46.8101 19.8999Z" fill="#F0AA17"/>
<path d="M46.8609 18.8199C46.3209 18.8199 45.8009 18.5499 45.5109 18.0499C45.4109 17.8899 43.0709 14.1199 38.4609 14.7399C37.6009 14.8499 36.8109 14.2499 36.6909 13.3999C36.5709 12.5399 37.1809 11.7499 38.0309 11.6299C44.7509 10.7099 48.0709 16.2199 48.2109 16.4599C48.6509 17.2099 48.4009 18.1699 47.6509 18.6099C47.4009 18.7599 47.1309 18.8299 46.8609 18.8299V18.8199Z" fill="#CF6904"/>
<path d="M14.4902 28.0202C13.8602 28.0202 13.1902 27.9602 12.4902 27.8302C11.6402 27.6702 11.0802 26.8502 11.2402 26.0002C11.4002 25.1502 12.2202 24.5802 13.0702 24.7502C17.6502 25.6102 20.1802 21.9602 20.2802 21.8002C20.7602 21.0802 21.7402 20.8902 22.4602 21.3702C23.1802 21.8502 23.3802 22.8202 22.9002 23.5402C22.7702 23.7402 19.8702 28.0302 14.4902 28.0302V28.0202Z" fill="#F0AA17"/>
<path d="M14.4902 27.1101C13.8602 27.1101 13.1902 27.05 12.4902 26.92C11.6402 26.76 11.0802 25.94 11.2402 25.09C11.4002 24.24 12.2202 23.68 13.0702 23.84C17.6502 24.7 20.1802 21.05 20.2802 20.89C20.7602 20.17 21.7402 19.98 22.4602 20.46C23.1802 20.94 23.3802 21.91 22.9002 22.63C22.7702 22.83 19.8702 27.1201 14.4902 27.1201V27.1101Z" fill="#CF6904"/>
<path d="M37.1504 28.4499C37.1504 31.0899 38.9604 33.2299 41.1804 33.2299C43.4004 33.2299 45.2104 31.0899 45.2104 28.4499C45.2104 25.8099 43.4004 23.6699 41.1804 23.6699C38.9604 23.6699 37.1504 25.8099 37.1504 28.4499Z" fill="#F3B514"/>
<path d="M24.8304 29.2101C25.2204 30.2401 24.1404 34.1801 21.3704 35.2301C18.6004 36.2801 15.1904 34.0301 14.8004 32.9901C14.4104 31.9601 17.1904 32.5301 19.9604 31.4901C22.7304 30.4501 24.4404 28.1801 24.8304 29.2101Z" fill="#F3B514"/>
<path d="M24.8304 28.2101C25.2204 29.2401 24.1404 33.1801 21.3704 34.2301C18.6004 35.2801 15.1904 33.0301 14.8004 31.9901C14.4104 30.9601 17.1904 31.5301 19.9604 30.4901C22.7304 29.4501 24.4404 27.1801 24.8304 28.2101Z" fill="#5A2A13"/>
<path d="M37.1504 27.4499C37.1504 30.0899 38.9604 32.2299 41.1804 32.2299C43.4004 32.2299 45.2104 30.0899 45.2104 27.4499C45.2104 24.8099 43.4004 22.6699 41.1804 22.6699C38.9604 22.6699 37.1504 24.8099 37.1504 27.4499Z" fill="#5A2A13"/>
<path d="M19.7304 52.7095C19.3704 52.7095 19.0104 52.6795 18.6504 52.6195C14.7404 51.9695 12.6704 47.9395 12.5904 47.7695C12.2004 46.9995 12.5104 46.0495 13.2804 45.6595C14.0504 45.2695 14.9904 45.5795 15.3904 46.3495C15.4204 46.3995 16.8604 49.1395 19.1804 49.5195C20.6404 49.7595 22.2804 48.9995 24.0504 47.2795C30.0104 41.4595 33.4904 43.5295 36.5704 45.3495C37.6104 45.9695 38.6904 46.5995 39.8804 46.9395C41.8604 47.4995 45.0004 47.4995 47.3004 45.6495C49.3904 43.9595 50.3704 41.0495 50.1404 37.2095C50.0904 36.3395 50.7504 35.5995 51.6104 35.5495C52.4804 35.4995 53.2204 36.1595 53.2704 37.0195C53.6504 43.2095 51.3004 46.4595 49.2704 48.0995C46.0404 50.6995 41.8604 50.7695 39.0204 49.9695C37.4304 49.5195 36.1204 48.7395 34.9604 48.0595C32.1604 46.3995 30.4704 45.4095 26.2404 49.5395C24.0704 51.6595 21.8904 52.7195 19.7304 52.7195V52.7095Z" fill="#F0AA17"/>
<path d="M19.7304 51.7096C19.3704 51.7096 19.0104 51.6796 18.6504 51.6196C14.7404 50.9696 12.6704 46.9396 12.5904 46.7696C12.2004 45.9996 12.5104 45.0496 13.2804 44.6596C14.0504 44.2696 14.9904 44.5796 15.3904 45.3496C15.4204 45.3996 16.8604 48.1396 19.1804 48.5196C20.6404 48.7496 22.2804 47.9996 24.0504 46.2796C30.0104 40.4596 33.4904 42.5296 36.5704 44.3496C37.6104 44.9696 38.6904 45.5996 39.8804 45.9396C41.8604 46.4996 45.0004 46.4996 47.3004 44.6496C49.3904 42.9596 50.3704 40.0496 50.1404 36.2096C50.0904 35.3396 50.7504 34.5996 51.6104 34.5496C52.4804 34.5096 53.2204 35.1596 53.2704 36.0196C53.6504 42.2096 51.3004 45.4596 49.2704 47.0996C46.0404 49.6996 41.8604 49.7696 39.0204 48.9696C37.4304 48.5196 36.1204 47.7396 34.9604 47.0596C32.1604 45.3996 30.4704 44.3996 26.2404 48.5396C24.0704 50.6596 21.8904 51.7196 19.7304 51.7196V51.7096Z" fill="#5A2A13"/>
<defs>
<linearGradient id="paint0_linear_4826_2776" x1="32" y1="64" x2="32" y2="0" gradientUnits="userSpaceOnUse">
<stop stop-color="#F69412"/>
<stop offset="0.1" stop-color="#F8A40D"/>
<stop offset="0.25" stop-color="#FBB807"/>
<stop offset="0.43" stop-color="#FDC703"/>
<stop offset="0.64" stop-color="#FECF00"/>
<stop offset="1" stop-color="#FFD200"/>
</linearGradient>
</defs>
</svg>
