<svg width="64" height="64" viewBox="0 0 64 64" fill="none" xmlns="http://www.w3.org/2000/svg">
<g clip-path="url(#clip0_4826_2830)">
<path d="M36.95 0H27.05C12.1107 0 0 12.1107 0 27.05V36.95C0 51.8893 12.1107 64 27.05 64H36.95C51.8893 64 64 51.8893 64 36.95V27.05C64 12.1107 51.8893 0 36.95 0Z" fill="url(#paint0_linear_4826_2830)"/>
<path d="M15.2793 25.7305L26.0993 28.2305" stroke="#EF592B" stroke-width="3.14" stroke-miterlimit="10" stroke-linecap="round"/>
<path d="M48.7204 25.7305L37.9004 28.2305" stroke="#EF592B" stroke-width="3.14" stroke-miterlimit="10" stroke-linecap="round"/>
<path d="M19.9402 35.8198C22.1659 35.8198 23.9702 34.0155 23.9702 31.7898C23.9702 29.5641 22.1659 27.7598 19.9402 27.7598C17.7144 27.7598 15.9102 29.5641 15.9102 31.7898C15.9102 34.0155 17.7144 35.8198 19.9402 35.8198Z" fill="#EF592B"/>
<path d="M19.9402 35.0405C22.1659 35.0405 23.9702 33.2362 23.9702 31.0105C23.9702 28.7848 22.1659 26.9805 19.9402 26.9805C17.7144 26.9805 15.9102 28.7848 15.9102 31.0105C15.9102 33.2362 17.7144 35.0405 19.9402 35.0405Z" fill="#5A2A13"/>
<path d="M44.0593 35.8198C46.285 35.8198 48.0893 34.0155 48.0893 31.7898C48.0893 29.5641 46.285 27.7598 44.0593 27.7598C41.8336 27.7598 40.0293 29.5641 40.0293 31.7898C40.0293 34.0155 41.8336 35.8198 44.0593 35.8198Z" fill="#EF592B"/>
<path d="M44.0593 35.0405C46.285 35.0405 48.0893 33.2362 48.0893 31.0105C48.0893 28.7848 46.285 26.9805 44.0593 26.9805C41.8336 26.9805 40.0293 28.7848 40.0293 31.0105C40.0293 33.2362 41.8336 35.0405 44.0593 35.0405Z" fill="#5A2A13"/>
<path d="M23.4795 40.0901C29.0495 41.6401 34.9395 41.6401 40.5195 40.0901C45.4495 38.7201 49.4795 41.7901 49.4795 46.9001C49.4795 52.0101 45.4495 55.0801 40.5195 53.7101C34.9495 52.1601 29.0595 52.1601 23.4795 53.7101C18.5495 55.0801 14.5195 52.0101 14.5195 46.9001C14.5195 41.7901 18.5495 38.7201 23.4795 40.0901Z" fill="#EF2A1F"/>
<path d="M23.4795 38.3499C29.0495 39.8999 34.9395 39.8999 40.5195 38.3499C45.4495 36.9799 49.4795 40.0499 49.4795 45.1599C49.4795 50.2699 45.4495 53.3399 40.5195 51.9699C34.9495 50.4199 29.0595 50.4199 23.4795 51.9699C18.5495 53.3399 14.5195 50.2699 14.5195 45.1599C14.5195 40.0499 18.5495 36.9799 23.4795 38.3499Z" fill="#EF592B"/>
<path d="M23.4795 39.22C29.0495 40.77 34.9395 40.77 40.5195 39.22C45.4495 37.85 49.4795 40.92 49.4795 46.03C49.4795 51.14 45.4495 54.21 40.5195 52.84C34.9495 51.29 29.0595 51.29 23.4795 52.84C18.5495 54.21 14.5195 51.14 14.5195 46.03C14.5195 40.92 18.5495 37.85 23.4795 39.22Z" fill="url(#paint1_linear_4826_2830)"/>
<path d="M15.2793 24.9502L26.0993 27.4602" stroke="#5A2A13" stroke-width="3.14" stroke-miterlimit="10" stroke-linecap="round"/>
<path d="M48.7204 24.9502L37.9004 27.4602" stroke="#5A2A13" stroke-width="3.14" stroke-miterlimit="10" stroke-linecap="round"/>
<mask id="mask0_4826_2830" style="mask-type:luminance" maskUnits="userSpaceOnUse" x="14" y="38" width="36" height="16">
<path d="M23.4795 39.22C29.0495 40.77 34.9395 40.77 40.5195 39.22C45.4495 37.85 49.4795 40.92 49.4795 46.03C49.4795 51.14 45.4495 54.21 40.5195 52.84C34.9495 51.29 29.0595 51.29 23.4795 52.84C18.5495 54.21 14.5195 51.14 14.5195 46.03C14.5195 40.92 18.5495 37.85 23.4795 39.22Z" fill="white"/>
</mask>
<g mask="url(#mask0_4826_2830)">
<path d="M38.7498 31.3398H23.6898C20.4147 31.3398 17.7598 33.9948 17.7598 37.2698V39.2198C17.7598 42.4949 20.4147 45.1498 23.6898 45.1498H38.7498C42.0248 45.1498 44.6798 42.4949 44.6798 39.2198V37.2698C44.6798 33.9948 42.0248 31.3398 38.7498 31.3398Z" fill="url(#paint2_radial_4826_2830)"/>
<path d="M39.3892 49.1396H23.0592C19.6848 49.1396 16.9492 51.8752 16.9492 55.2496V56.8396C16.9492 60.2141 19.6848 62.9496 23.0592 62.9496H39.3892C42.7637 62.9496 45.4992 60.2141 45.4992 56.8396V55.2496C45.4992 51.8752 42.7637 49.1396 39.3892 49.1396Z" fill="url(#paint3_radial_4826_2830)"/>
</g>
<path d="M37.1309 10.0303C37.1309 10.0303 40.2409 13.4403 37.1309 16.5503" stroke="#EF592B" stroke-width="3.14" stroke-miterlimit="10" stroke-linecap="round"/>
<path d="M46.77 19.6605C46.77 19.6605 43.36 16.5505 40.25 19.6605" stroke="#EF592B" stroke-width="3.14" stroke-miterlimit="10" stroke-linecap="round"/>
<path d="M39.8418 7.32031C39.8418 7.32031 43.2518 10.4303 46.3618 7.32031" stroke="#EF592B" stroke-width="3.14" stroke-miterlimit="10" stroke-linecap="round"/>
<path d="M49.4818 16.9507C49.4818 16.9507 46.3718 13.5407 49.4818 10.4307" stroke="#EF592B" stroke-width="3.14" stroke-miterlimit="10" stroke-linecap="round"/>
<path d="M37.1309 9.25977C37.1309 9.25977 40.2409 12.6698 37.1309 15.7798" stroke="#5A2A13" stroke-width="3.14" stroke-miterlimit="10" stroke-linecap="round"/>
<path d="M46.77 18.89C46.77 18.89 43.36 15.78 40.25 18.89" stroke="#5A2A13" stroke-width="3.14" stroke-miterlimit="10" stroke-linecap="round"/>
<path d="M39.8418 6.5498C39.8418 6.5498 43.2518 9.6598 46.3618 6.5498" stroke="#5A2A13" stroke-width="3.14" stroke-miterlimit="10" stroke-linecap="round"/>
<path d="M49.4818 16.1802C49.4818 16.1802 46.3718 12.7702 49.4818 9.66016" stroke="#5A2A13" stroke-width="3.14" stroke-miterlimit="10" stroke-linecap="round"/>
</g>
<defs>
<linearGradient id="paint0_linear_4826_2830" x1="32" y1="64" x2="32" y2="0" gradientUnits="userSpaceOnUse">
<stop stop-color="#FF0C04"/>
<stop offset="0.11" stop-color="#FD2A10"/>
<stop offset="0.23" stop-color="#FC441B"/>
<stop offset="0.36" stop-color="#FB5823"/>
<stop offset="0.51" stop-color="#FB6729"/>
<stop offset="0.7" stop-color="#FB6F2C"/>
<stop offset="1" stop-color="#FB722E"/>
</linearGradient>
<linearGradient id="paint1_linear_4826_2830" x1="31.9995" y1="53.16" x2="31.9995" y2="38.89" gradientUnits="userSpaceOnUse">
<stop stop-color="#5A2A13"/>
<stop offset="1" stop-color="#883A12"/>
</linearGradient>
<radialGradient id="paint2_radial_4826_2830" cx="0" cy="0" r="1" gradientUnits="userSpaceOnUse" gradientTransform="translate(31.2198 38.2498) scale(14.62)">
<stop stop-color="white"/>
<stop offset="0.42" stop-color="#FCFCFC"/>
<stop offset="0.65" stop-color="#F4F5F5"/>
<stop offset="0.83" stop-color="#E7E8E8"/>
<stop offset="0.98" stop-color="#D4D6D6"/>
<stop offset="1" stop-color="#D1D3D4"/>
</radialGradient>
<radialGradient id="paint3_radial_4826_2830" cx="0" cy="0" r="1" gradientUnits="userSpaceOnUse" gradientTransform="translate(31.2192 56.0496) scale(14.85 14.85)">
<stop stop-color="white"/>
<stop offset="0.42" stop-color="#FCFCFC"/>
<stop offset="0.65" stop-color="#F4F5F5"/>
<stop offset="0.83" stop-color="#E7E8E8"/>
<stop offset="0.98" stop-color="#D4D6D6"/>
<stop offset="1" stop-color="#D1D3D4"/>
</radialGradient>
<clipPath id="clip0_4826_2830">
<rect width="64" height="64" fill="white"/>
</clipPath>
</defs>
</svg>
