<svg width="64" height="64" viewBox="0 0 64 64" fill="none" xmlns="http://www.w3.org/2000/svg">
<g clip-path="url(#clip0_4771_4618)">
<path d="M36.95 0H27.05C12.1107 0 0 12.1107 0 27.05V36.95C0 51.8893 12.1107 64 27.05 64H36.95C51.8893 64 64 51.8893 64 36.95V27.05C64 12.1107 51.8893 0 36.95 0Z" fill="url(#paint0_linear_4771_4618)"/>
<path d="M23.9103 26.0004L15.5703 17.6504" stroke="#F0AA17" stroke-width="3.14" stroke-miterlimit="10" stroke-linecap="round"/>
<path d="M15.5703 26.0004L23.9103 17.6504" stroke="#F0AA17" stroke-width="3.14" stroke-miterlimit="10" stroke-linecap="round"/>
<path d="M23.9103 25.3302L15.5703 16.9902" stroke="#5A2A13" stroke-width="3.14" stroke-miterlimit="10" stroke-linecap="round"/>
<path d="M15.5703 25.3302L23.9103 16.9902" stroke="#5A2A13" stroke-width="3.14" stroke-miterlimit="10" stroke-linecap="round"/>
<path d="M40.0898 26.0004L48.4298 17.6504" stroke="#F0AA17" stroke-width="3.14" stroke-miterlimit="10" stroke-linecap="round"/>
<path d="M48.4298 26.0004L40.0898 17.6504" stroke="#F0AA17" stroke-width="3.14" stroke-miterlimit="10" stroke-linecap="round"/>
<path d="M40.0898 25.3302L48.4298 16.9902" stroke="#5A2A13" stroke-width="3.14" stroke-miterlimit="10" stroke-linecap="round"/>
<path d="M48.4298 25.3302L40.0898 16.9902" stroke="#5A2A13" stroke-width="3.14" stroke-miterlimit="10" stroke-linecap="round"/>
<path d="M31.9996 52.7503C37.5832 52.7503 42.1096 48.2239 42.1096 42.6403C42.1096 37.0567 37.5832 32.5303 31.9996 32.5303C26.4161 32.5303 21.8896 37.0567 21.8896 42.6403C21.8896 48.2239 26.4161 52.7503 31.9996 52.7503Z" fill="#F7CB2B"/>
<path d="M31.9996 51.3098C37.5832 51.3098 42.1096 46.7834 42.1096 41.1998C42.1096 35.6162 37.5832 31.0898 31.9996 31.0898C26.4161 31.0898 21.8896 35.6162 21.8896 41.1998C21.8896 46.7834 26.4161 51.3098 31.9996 51.3098Z" fill="#F3B514"/>
<path d="M31.9996 52.0901C37.5832 52.0901 42.1096 47.5637 42.1096 41.9801C42.1096 36.3965 37.5832 31.8701 31.9996 31.8701C26.4161 31.8701 21.8896 36.3965 21.8896 41.9801C21.8896 47.5637 26.4161 52.0901 31.9996 52.0901Z" fill="url(#paint1_linear_4771_4618)"/>
<mask id="mask0_4771_4618" style="mask-type:luminance" maskUnits="userSpaceOnUse" x="21" y="31" width="22" height="22">
<path d="M31.9996 52.0901C37.5832 52.0901 42.1096 47.5637 42.1096 41.9801C42.1096 36.3965 37.5832 31.8701 31.9996 31.8701C26.4161 31.8701 21.8896 36.3965 21.8896 41.9801C21.8896 47.5637 26.4161 52.0901 31.9996 52.0901Z" fill="white"/>
</mask>
<g mask="url(#mask0_4771_4618)">
<path d="M31.9996 55.77C37.5832 55.77 42.1096 53.3031 42.1096 50.26C42.1096 47.2169 37.5832 44.75 31.9996 44.75C26.4161 44.75 21.8896 47.2169 21.8896 50.26C21.8896 53.3031 26.4161 55.77 31.9996 55.77Z" fill="#D8531B"/>
</g>
</g>
<defs>
<linearGradient id="paint0_linear_4771_4618" x1="32" y1="64" x2="32" y2="0" gradientUnits="userSpaceOnUse">
<stop stop-color="#F69412"/>
<stop offset="0.1" stop-color="#F8A40D"/>
<stop offset="0.25" stop-color="#FBB807"/>
<stop offset="0.43" stop-color="#FDC703"/>
<stop offset="0.64" stop-color="#FECF00"/>
<stop offset="1" stop-color="#FFD200"/>
</linearGradient>
<linearGradient id="paint1_linear_4771_4618" x1="31.9996" y1="52.0901" x2="31.9996" y2="31.8701" gradientUnits="userSpaceOnUse">
<stop stop-color="#883A12"/>
<stop offset="1" stop-color="#5A2A13"/>
</linearGradient>
<clipPath id="clip0_4771_4618">
<rect width="64" height="64" fill="white"/>
</clipPath>
</defs>
</svg>
