<svg width="64" height="64" viewBox="0 0 64 64" fill="none" xmlns="http://www.w3.org/2000/svg">
<g clip-path="url(#clip0_4771_4951)">
<path d="M36.95 0H27.05C12.1107 0 0 12.1107 0 27.05V36.95C0 51.8893 12.1107 64 27.05 64H36.95C51.8893 64 64 51.8893 64 36.95V27.05C64 12.1107 51.8893 0 36.95 0Z" fill="url(#paint0_linear_4771_4951)"/>
<path d="M36.95 0H27.05C12.1107 0 0 12.1107 0 27.05V36.95C0 51.8893 12.1107 64 27.05 64H36.95C51.8893 64 64 51.8893 64 36.95V27.05C64 12.1107 51.8893 0 36.95 0Z" fill="url(#paint1_linear_4771_4951)"/>
<path d="M13.0098 29.3701C13.0098 29.3701 16.0998 24.6701 21.8198 25.7501" stroke="#F0AA17" stroke-width="3.14" stroke-miterlimit="10" stroke-linecap="round"/>
<path d="M13.0098 28.5898C13.0098 28.5898 16.0998 23.8898 21.8198 24.9698" stroke="#CF6904" stroke-width="3.14" stroke-miterlimit="10" stroke-linecap="round"/>
<path d="M50.9897 29.3701C50.9897 29.3701 47.8997 24.6701 42.1797 25.7501" stroke="#F0AA17" stroke-width="3.14" stroke-miterlimit="10" stroke-linecap="round"/>
<path d="M50.9897 28.5898C50.9897 28.5898 47.8997 23.8898 42.1797 24.9698" stroke="#CF6904" stroke-width="3.14" stroke-miterlimit="10" stroke-linecap="round"/>
<path d="M24.5498 52.7505C25.7098 50.9905 28.5998 49.7305 31.9998 49.7305C35.3998 49.7305 38.2898 50.9805 39.4498 52.7505" stroke="#F0AA17" stroke-width="3.14" stroke-miterlimit="10" stroke-linecap="round"/>
<path d="M24.5498 51.9604C25.7098 50.2004 28.5998 48.9404 31.9998 48.9404C35.3998 48.9404 38.2898 50.1904 39.4498 51.9604" stroke="#5A2A13" stroke-width="3.14" stroke-miterlimit="10" stroke-linecap="round"/>
<path d="M20.5202 44.4496C22.7459 44.4496 24.5502 41.9738 24.5502 38.9196C24.5502 35.8655 22.7459 33.3896 20.5202 33.3896C18.2945 33.3896 16.4902 35.8655 16.4902 38.9196C16.4902 41.9738 18.2945 44.4496 20.5202 44.4496Z" fill="#F3B514"/>
<path d="M43.4802 44.4496C45.7059 44.4496 47.5102 41.9738 47.5102 38.9196C47.5102 35.8655 45.7059 33.3896 43.4802 33.3896C41.2545 33.3896 39.4502 35.8655 39.4502 38.9196C39.4502 41.9738 41.2545 44.4496 43.4802 44.4496Z" fill="#F3B514"/>
<path d="M20.5202 43.6703C22.7459 43.6703 24.5502 41.1945 24.5502 38.1404C24.5502 35.0862 22.7459 32.6104 20.5202 32.6104C18.2945 32.6104 16.4902 35.0862 16.4902 38.1404C16.4902 41.1945 18.2945 43.6703 20.5202 43.6703Z" fill="#5A2A13"/>
<path d="M43.4802 43.6703C45.7059 43.6703 47.5102 41.1945 47.5102 38.1404C47.5102 35.0862 45.7059 32.6104 43.4802 32.6104C41.2545 32.6104 39.4502 35.0862 39.4502 38.1404C39.4502 41.1945 41.2545 43.6703 43.4802 43.6703Z" fill="#5A2A13"/>
<path d="M47.5195 56.1899C47.5195 59.5799 50.2695 62.3299 53.6595 62.3299C57.0495 62.3299 59.7995 59.5799 59.7995 56.1899C59.7995 52.7999 53.6595 43.1699 53.6595 43.1699C53.6595 43.1699 47.5195 52.7999 47.5195 56.1899Z" fill="url(#paint2_linear_4771_4951)"/>
<path d="M53.6591 57.0202C55.4891 57.0202 56.9891 55.5302 56.9891 53.6902C56.9891 52.7002 55.5891 49.6002 53.6591 46.1602C51.7291 49.6002 50.3291 52.7002 50.3291 53.6902C50.3291 55.5202 51.8191 57.0202 53.6591 57.0202Z" fill="url(#paint3_linear_4771_4951)"/>
</g>
<defs>
<linearGradient id="paint0_linear_4771_4951" x1="32" y1="64" x2="32" y2="0" gradientUnits="userSpaceOnUse">
<stop stop-color="#F69412"/>
<stop offset="0.1" stop-color="#F8A40D"/>
<stop offset="0.25" stop-color="#FBB807"/>
<stop offset="0.43" stop-color="#FDC703"/>
<stop offset="0.64" stop-color="#FECF00"/>
<stop offset="1" stop-color="#FFD200"/>
</linearGradient>
<linearGradient id="paint1_linear_4771_4951" x1="32" y1="64" x2="32" y2="0" gradientUnits="userSpaceOnUse">
<stop stop-color="#F69412"/>
<stop offset="0.1" stop-color="#F8A40D"/>
<stop offset="0.25" stop-color="#FBB807"/>
<stop offset="0.43" stop-color="#FDC703"/>
<stop offset="0.64" stop-color="#FECF00"/>
<stop offset="1" stop-color="#FFD200"/>
</linearGradient>
<linearGradient id="paint2_linear_4771_4951" x1="53.6595" y1="62.3599" x2="53.6595" y2="45.0699" gradientUnits="userSpaceOnUse">
<stop stop-color="#5239ED"/>
<stop offset="0.12" stop-color="#5264ED"/>
<stop offset="0.24" stop-color="#5288ED"/>
<stop offset="0.36" stop-color="#52A6ED"/>
<stop offset="0.5" stop-color="#52BDED"/>
<stop offset="0.64" stop-color="#52CEED"/>
<stop offset="0.8" stop-color="#52D7ED"/>
<stop offset="1" stop-color="#52DBED"/>
</linearGradient>
<linearGradient id="paint3_linear_4771_4951" x1="53.6591" y1="57.0102" x2="53.6591" y2="46.1502" gradientUnits="userSpaceOnUse">
<stop stop-color="#D3F2F5"/>
<stop offset="1" stop-color="#52DBED"/>
</linearGradient>
<clipPath id="clip0_4771_4951">
<rect width="64" height="64" fill="white"/>
</clipPath>
</defs>
</svg>
