<svg width="64" height="64" viewBox="0 0 64 64" fill="none" xmlns="http://www.w3.org/2000/svg">
<g clip-path="url(#clip0_4771_5161)">
<path d="M36.9 0H27.1C12.1331 0 0 12.1331 0 27.1V36.9C0 51.8669 12.1331 64 27.1 64H36.9C51.8669 64 64 51.8669 64 36.9V27.1C64 12.1331 51.8669 0 36.9 0Z" fill="url(#paint0_linear_4771_5161)"/>
<path d="M19.4004 42.9004C24.6471 42.9004 28.9004 38.6471 28.9004 33.4004C28.9004 28.1537 24.6471 23.9004 19.4004 23.9004C14.1537 23.9004 9.90039 28.1537 9.90039 33.4004C9.90039 38.6471 14.1537 42.9004 19.4004 42.9004Z" fill="#F0231D"/>
<path d="M19.4004 41.7002C24.6471 41.7002 28.9004 37.4469 28.9004 32.2002C28.9004 26.9535 24.6471 22.7002 19.4004 22.7002C14.1537 22.7002 9.90039 26.9535 9.90039 32.2002C9.90039 37.4469 14.1537 41.7002 19.4004 41.7002Z" fill="white"/>
<path d="M44.5996 42.9004C49.8463 42.9004 54.0996 38.6471 54.0996 33.4004C54.0996 28.1537 49.8463 23.9004 44.5996 23.9004C39.3529 23.9004 35.0996 28.1537 35.0996 33.4004C35.0996 38.6471 39.3529 42.9004 44.5996 42.9004Z" fill="#F0231D"/>
<path d="M44.5996 41.7002C49.8463 41.7002 54.0996 37.4469 54.0996 32.2002C54.0996 26.9535 49.8463 22.7002 44.5996 22.7002C39.3529 22.7002 35.0996 26.9535 35.0996 32.2002C35.0996 37.4469 39.3529 41.7002 44.5996 41.7002Z" fill="white"/>
<path d="M23.2998 36.7998C25.5089 36.7998 27.2998 35.0089 27.2998 32.7998C27.2998 30.5907 25.5089 28.7998 23.2998 28.7998C21.0907 28.7998 19.2998 30.5907 19.2998 32.7998C19.2998 35.0089 21.0907 36.7998 23.2998 36.7998Z" fill="#5A2A13"/>
<path d="M25.4999 25.5001C21.8999 25.5001 16.9999 23.9001 15.6999 17.7001C15.4999 16.8001 16.0999 16.0001 16.8999 15.9001C17.7999 15.7001 18.5999 16.3001 18.6999 17.1001C19.8999 23.3001 26.0999 22.4001 26.7999 22.2001C27.6999 22.0001 28.4999 22.6001 28.5999 23.5001C28.6999 24.4001 28.1999 25.2001 27.2999 25.3001C26.6999 25.4001 25.9999 25.5001 25.2999 25.5001H25.4999Z" fill="#5A2A13"/>
<path d="M40.7002 36.7998C42.9093 36.7998 44.7002 35.0089 44.7002 32.7998C44.7002 30.5907 42.9093 28.7998 40.7002 28.7998C38.4911 28.7998 36.7002 30.5907 36.7002 32.7998C36.7002 35.0089 38.4911 36.7998 40.7002 36.7998Z" fill="#5A2A13"/>
<path d="M38.5001 25.5002C37.8001 25.5002 37.1001 25.5002 36.5001 25.3002C35.6001 25.1002 35.1001 24.3002 35.2001 23.5002C35.4001 22.6002 36.2001 22.1002 37.0001 22.2002C37.7001 22.3002 43.9001 23.2002 45.1001 17.1002C45.3001 16.2002 46.1001 15.7002 46.9001 15.9002C47.8001 16.1002 48.3001 16.9002 48.1001 17.7002C46.9001 23.9002 42.0001 25.5002 38.3001 25.5002H38.5001Z" fill="#5A2A13"/>
<path d="M42.5996 53.9004C42.0996 53.9004 41.5996 53.7004 41.2996 53.2004C40.0996 51.4004 36.6996 48.5004 32.3996 48.5004C28.0996 48.5004 24.6996 51.4004 23.4996 53.2004C22.9996 53.9004 22.0996 54.1004 21.2996 53.7004C20.5996 53.2004 20.3996 52.3004 20.7996 51.5004C22.6996 48.6004 27.0996 45.4004 32.2996 45.4004C37.4996 45.4004 41.8996 48.5004 43.7996 51.5004C44.2996 52.2004 44.0996 53.2004 43.2996 53.7004C42.9996 53.9004 42.6996 54.0004 42.3996 54.0004L42.5996 53.9004Z" fill="#EF4D28"/>
<path d="M42.5996 52.9004C42.0996 52.9004 41.5996 52.7004 41.2996 52.2004C40.0996 50.4004 36.6996 47.5004 32.3996 47.5004C28.0996 47.5004 24.6996 50.4004 23.4996 52.2004C22.9996 52.9004 22.0996 53.1004 21.2996 52.7004C20.5996 52.2004 20.3996 51.3004 20.7996 50.5004C22.6996 47.6004 27.0996 44.4004 32.2996 44.4004C37.4996 44.4004 41.8996 47.5004 43.7996 50.5004C44.2996 51.2004 44.0996 52.2004 43.2996 52.7004C42.9996 52.9004 42.6996 53.0004 42.3996 53.0004L42.5996 52.9004Z" fill="#5A2A13"/>
</g>
<defs>
<linearGradient id="paint0_linear_4771_5161" x1="32" y1="64" x2="32" y2="0" gradientUnits="userSpaceOnUse">
<stop offset="0.4" stop-color="#FF0C04"/>
<stop offset="0.5" stop-color="#FD2910"/>
<stop offset="0.7" stop-color="#FC5020"/>
<stop offset="0.9" stop-color="#FB692A"/>
<stop offset="1" stop-color="#FB722E"/>
</linearGradient>
<clipPath id="clip0_4771_5161">
<rect width="64" height="64" fill="white"/>
</clipPath>
</defs>
</svg>
