<svg width="64" height="64" viewBox="0 0 64 64" fill="none" xmlns="http://www.w3.org/2000/svg">
<g clip-path="url(#clip0_4771_5271)">
<path d="M36.6 0H27.1C12.1331 0 0 12.1331 0 27.1V36.6C0 51.5669 12.1331 63.7 27.1 63.7H36.6C51.5669 63.7 63.7 51.5669 63.7 36.6V27.1C63.7 12.1331 51.5669 0 36.6 0Z" fill="url(#paint0_linear_4771_5271)"/>
<path d="M36.6 0H27.1C12.1331 0 0 12.1331 0 27.1V36.6C0 51.5669 12.1331 63.7 27.1 63.7H36.6C51.5669 63.7 63.7 51.5669 63.7 36.6V27.1C63.7 12.1331 51.5669 0 36.6 0Z" fill="url(#paint1_linear_4771_5271)"/>
<path d="M36.6 0H27.1C12.1331 0 0 12.1331 0 27.1V36.6C0 51.5669 12.1331 63.7 27.1 63.7H36.6C51.5669 63.7 63.7 51.5669 63.7 36.6V27.1C63.7 12.1331 51.5669 0 36.6 0Z" fill="url(#paint2_linear_4771_5271)"/>
<path d="M18.5004 19.0996C17.3004 19.0996 16.1004 18.8996 14.8004 18.2996C14.0004 17.9996 13.6004 17.0996 13.9004 16.1996C14.2004 15.3996 15.1004 14.9996 16.0004 15.2996C20.5004 17.1996 23.6004 13.4996 23.8004 13.3996C24.4004 12.6996 25.3004 12.5996 26.0004 13.1996C26.7004 13.6996 26.8004 14.6996 26.2004 15.3996C25.0004 16.8996 22.2004 18.9996 18.5004 18.9996V19.0996Z" fill="#74C61E"/>
<path d="M18.6 18.2002C17.4 18.2002 16.2 18.0002 14.9 17.4002C14.1 17.1002 13.7 16.2002 14 15.3002C14.3 14.5002 15.2 14.1002 16.1 14.4002C20.7 16.3002 23.8 12.5002 23.8 12.5002C24.3 11.8002 25.3 11.7002 26 12.3002C26.7 12.9002 26.8 13.8002 26.2 14.5002C25 16.0002 22.2 18.1002 18.5 18.1002L18.6 18.2002Z" fill="#117C10"/>
<path d="M45.1998 19.0996C41.5998 19.0996 38.6998 16.9996 37.4998 15.4996C36.9998 14.7996 37.0998 13.7996 37.6998 13.2996C38.3998 12.7996 39.3998 12.8996 39.8998 13.4996C39.9998 13.6996 43.0998 17.2996 47.6998 15.3996C48.4998 15.0996 49.3998 15.3996 49.7998 16.2996C50.0998 17.0996 49.7998 17.9996 48.8998 18.3996C47.5998 18.8996 46.2998 19.1996 45.1998 19.1996V19.0996Z" fill="#74C61E"/>
<path d="M45.1002 18.2002C41.5002 18.2002 38.6002 16.1002 37.4002 14.6002C36.9002 13.9002 37.0002 12.9002 37.6002 12.4002C38.3002 11.9002 39.3002 12.0002 39.8002 12.6002C39.9002 12.8002 43.0002 16.4002 47.6002 14.5002C48.4002 14.2002 49.3002 14.5002 49.7002 15.4002C50.0002 16.2002 49.7002 17.1002 48.8002 17.5002C47.5002 18.0002 46.2002 18.3002 45.1002 18.3002V18.2002Z" fill="#117C10"/>
<path d="M13.2004 34.2998C12.6004 34.2998 12.1004 33.9998 11.8004 33.4998C11.4004 32.6998 11.7004 31.7998 12.5004 31.3998C16.2004 29.4998 19.7004 28.2998 22.4004 27.6998C18.1004 25.9998 14.5004 25.9998 14.5004 25.9998C13.6004 25.9998 12.9004 25.2998 12.9004 24.3998C12.9004 23.4998 13.6004 22.7998 14.5004 22.7998C14.8004 22.7998 21.7004 22.7998 28.1004 26.9998C28.7004 27.3998 28.9004 27.9998 28.8004 28.6998C28.6004 29.3998 28.1004 29.7998 27.4004 29.8998C27.4004 29.8998 20.8004 30.4998 14.0004 34.0998C13.8004 34.1998 13.5004 34.2998 13.3004 34.2998H13.2004Z" fill="#74C61E"/>
<path d="M13.2004 33.4004C12.6004 33.4004 12.1004 33.1004 11.8004 32.6004C11.4004 31.8004 11.7004 30.9004 12.5004 30.5004C16.2004 28.6004 19.7004 27.4004 22.4004 26.8004C18.1004 25.1004 14.5004 25.1004 14.5004 25.1004C13.6004 25.1004 12.9004 24.4004 12.9004 23.5004C12.9004 22.6004 13.6004 21.9004 14.5004 21.9004C14.8004 21.9004 21.7004 21.9004 28.1004 26.1004C28.7004 26.5004 28.9004 27.1004 28.8004 27.8004C28.6004 28.5004 28.1004 28.9004 27.4004 29.0004C27.4004 29.0004 20.8004 29.6004 14.0004 33.2004C13.8004 33.3004 13.5004 33.4004 13.3004 33.4004H13.2004Z" fill="#5A2A13"/>
<path d="M50.5002 34.2998C50.3002 34.2998 50.0002 34.2998 49.8002 34.0998C43.0002 30.4998 36.5002 29.8998 36.4002 29.8998C35.7002 29.8998 35.2002 29.3998 35.0002 28.6998C34.8002 28.0998 35.1002 27.3998 35.7002 26.9998C42.1002 22.7998 49.0002 22.7998 49.3002 22.7998C50.2002 22.7998 50.9002 23.4998 50.9002 24.3998C50.9002 25.2998 50.2002 25.9998 49.3002 25.9998C48.4002 25.9998 45.6002 25.9998 41.4002 27.6998C44.1002 28.3998 47.6002 29.4998 51.3002 31.3998C52.1002 31.7998 52.4002 32.7998 52.0002 33.4998C51.7002 33.9998 51.2002 34.2998 50.6002 34.2998H50.5002Z" fill="#74C61E"/>
<path d="M50.5002 33.4004C50.3002 33.4004 50.0002 33.4004 49.8002 33.2004C43.0002 29.6004 36.5002 29.0004 36.4002 29.0004C35.7002 29.0004 35.2002 28.5004 35.0002 27.8004C34.8002 27.2004 35.1002 26.5004 35.7002 26.1004C42.1002 21.9004 49.0002 21.9004 49.3002 21.9004C50.2002 21.9004 50.9002 22.6004 50.9002 23.5004C50.9002 24.4004 50.2002 25.1004 49.3002 25.1004C48.4002 25.1004 45.6002 25.1004 41.4002 26.8004C44.1002 27.5004 47.6002 28.6004 51.3002 30.5004C52.1002 30.9004 52.4002 31.9004 52.0002 32.6004C51.7002 33.1004 51.2002 33.4004 50.6002 33.4004H50.5002Z" fill="#5A2A13"/>
<path d="M16 46.9002C16 40.2002 23.1 34.7002 31.8 34.7002C40.5 34.7002 47.6 40.2002 47.6 46.9002C47.6 53.6002 40.5 49.0002 31.8 49.0002C23.1 49.0002 16 53.7002 16 46.9002Z" fill="#648E21"/>
<path d="M16 48.4002C16 41.7002 23.1 36.2002 31.8 36.2002C40.5 36.2002 47.6 41.7002 47.6 48.4002C47.6 55.1002 40.5 50.5002 31.8 50.5002C23.1 50.5002 16 55.2002 16 48.4002Z" fill="#EFEF62"/>
<path d="M16 47.7C16 41 23.1 35.5 31.8 35.5C40.5 35.5 47.6 41 47.6 47.7C47.6 54.4 40.5 49.8 31.8 49.8C23.1 49.8 16 54.5 16 47.7Z" fill="#5A2A13"/>
<path d="M44.3001 58.2996V48.1996C44.3001 48.0996 44.3001 47.8996 44.3001 47.5996C44.3001 42.6996 38.6001 38.5996 31.8001 38.5996C25.0001 38.5996 19.3001 42.6996 19.3001 47.5996C19.3001 52.4996 19.3001 48.0996 19.3001 48.1996V58.2996C19.3001 58.2996 2.90009 59.8996 8.90009 61.7996C14.9001 63.6996 22.1001 63.6996 31.8001 63.9996C41.5001 63.6996 48.7001 63.6996 54.7001 61.7996C60.7001 59.8996 44.3001 58.2996 44.3001 58.2996Z" fill="url(#paint3_linear_4771_5271)"/>
<path d="M29.4998 45.8004C30.4387 45.8004 31.1998 45.0393 31.1998 44.1004C31.1998 43.1615 30.4387 42.4004 29.4998 42.4004C28.5609 42.4004 27.7998 43.1615 27.7998 44.1004C27.7998 45.0393 28.5609 45.8004 29.4998 45.8004Z" fill="url(#paint4_linear_4771_5271)"/>
<path d="M37.2 47.4996C38.1389 47.4996 38.9 46.7385 38.9 45.7996C38.9 44.8607 38.1389 44.0996 37.2 44.0996C36.2611 44.0996 35.5 44.8607 35.5 45.7996C35.5 46.7385 36.2611 47.4996 37.2 47.4996Z" fill="url(#paint5_linear_4771_5271)"/>
<path d="M24.9998 51.3004C25.9387 51.3004 26.6998 50.5393 26.6998 49.6004C26.6998 48.6615 25.9387 47.9004 24.9998 47.9004C24.0609 47.9004 23.2998 48.6615 23.2998 49.6004C23.2998 50.5393 24.0609 51.3004 24.9998 51.3004Z" fill="url(#paint6_linear_4771_5271)"/>
<path d="M24.1004 59.8004C25.0393 59.8004 25.8004 59.0393 25.8004 58.1004C25.8004 57.1615 25.0393 56.4004 24.1004 56.4004C23.1615 56.4004 22.4004 57.1615 22.4004 58.1004C22.4004 59.0393 23.1615 59.8004 24.1004 59.8004Z" fill="url(#paint7_linear_4771_5271)"/>
<path d="M40.4002 58.9C41.3391 58.9 42.1002 58.1389 42.1002 57.2C42.1002 56.2611 41.3391 55.5 40.4002 55.5C39.4613 55.5 38.7002 56.2611 38.7002 57.2C38.7002 58.1389 39.4613 58.9 40.4002 58.9Z" fill="url(#paint8_linear_4771_5271)"/>
<path d="M33.2 55.9C34.6912 55.9 35.9 54.6912 35.9 53.2C35.9 51.7088 34.6912 50.5 33.2 50.5C31.7088 50.5 30.5 51.7088 30.5 53.2C30.5 54.6912 31.7088 55.9 33.2 55.9Z" fill="url(#paint9_linear_4771_5271)"/>
</g>
<defs>
<linearGradient id="paint0_linear_4771_5271" x1="31.8" y1="63.7" x2="31.8" y2="0" gradientUnits="userSpaceOnUse">
<stop stop-color="#F9D307"/>
<stop offset="0.3" stop-color="#CCD904"/>
<stop offset="0.6" stop-color="#A5DF01"/>
<stop offset="0.8" stop-color="#8CE200"/>
<stop offset="1" stop-color="#84E400"/>
</linearGradient>
<linearGradient id="paint1_linear_4771_5271" x1="31.8" y1="63.7" x2="31.8" y2="0" gradientUnits="userSpaceOnUse">
<stop stop-color="#F9D307"/>
<stop offset="0.3" stop-color="#CCD904"/>
<stop offset="0.6" stop-color="#A5DF01"/>
<stop offset="0.8" stop-color="#8CE200"/>
<stop offset="1" stop-color="#84E400"/>
</linearGradient>
<linearGradient id="paint2_linear_4771_5271" x1="31.8" y1="63.7" x2="31.8" y2="0" gradientUnits="userSpaceOnUse">
<stop stop-color="#F9D307"/>
<stop offset="0.3" stop-color="#CCD904"/>
<stop offset="0.6" stop-color="#A5DF01"/>
<stop offset="0.8" stop-color="#8CE200"/>
<stop offset="1" stop-color="#84E400"/>
</linearGradient>
<linearGradient id="paint3_linear_4771_5271" x1="31.8001" y1="40.2996" x2="31.8001" y2="61.5996" gradientUnits="userSpaceOnUse">
<stop stop-color="#10AB10"/>
<stop offset="0.1" stop-color="#0EB810"/>
<stop offset="0.2" stop-color="#11C710"/>
<stop offset="0.3" stop-color="#1ECB0F"/>
<stop offset="0.4" stop-color="#35D10D"/>
<stop offset="0.5" stop-color="#54DB0A"/>
<stop offset="0.6" stop-color="#7CE706"/>
<stop offset="0.7" stop-color="#BFFB00"/>
<stop offset="1" stop-color="#0DC611"/>
</linearGradient>
<linearGradient id="paint4_linear_4771_5271" x1="27.7998" y1="44.1004" x2="31.1998" y2="44.1004" gradientUnits="userSpaceOnUse">
<stop stop-color="#0DC611"/>
<stop offset="0.1" stop-color="#11C710"/>
<stop offset="0.3" stop-color="#1ECB0F"/>
<stop offset="0.4" stop-color="#35D10D"/>
<stop offset="0.6" stop-color="#54DB0A"/>
<stop offset="0.8" stop-color="#7CE706"/>
<stop offset="0.9" stop-color="#ADF501"/>
<stop offset="1" stop-color="#BFFB00"/>
</linearGradient>
<linearGradient id="paint5_linear_4771_5271" x1="35.5" y1="45.7996" x2="38.9" y2="45.7996" gradientUnits="userSpaceOnUse">
<stop stop-color="#0DC611"/>
<stop offset="0.1" stop-color="#11C710"/>
<stop offset="0.3" stop-color="#1ECB0F"/>
<stop offset="0.4" stop-color="#35D10D"/>
<stop offset="0.6" stop-color="#54DB0A"/>
<stop offset="0.8" stop-color="#7CE706"/>
<stop offset="0.9" stop-color="#ADF501"/>
<stop offset="1" stop-color="#BFFB00"/>
</linearGradient>
<linearGradient id="paint6_linear_4771_5271" x1="23.2998" y1="49.6004" x2="26.6998" y2="49.6004" gradientUnits="userSpaceOnUse">
<stop stop-color="#0DC611"/>
<stop offset="0.1" stop-color="#11C710"/>
<stop offset="0.3" stop-color="#1ECB0F"/>
<stop offset="0.4" stop-color="#35D10D"/>
<stop offset="0.6" stop-color="#54DB0A"/>
<stop offset="0.8" stop-color="#7CE706"/>
<stop offset="0.9" stop-color="#ADF501"/>
<stop offset="1" stop-color="#BFFB00"/>
</linearGradient>
<linearGradient id="paint7_linear_4771_5271" x1="22.4004" y1="58.1004" x2="25.9004" y2="58.1004" gradientUnits="userSpaceOnUse">
<stop stop-color="#0DC611"/>
<stop offset="0.1" stop-color="#11C710"/>
<stop offset="0.3" stop-color="#1ECB0F"/>
<stop offset="0.4" stop-color="#35D10D"/>
<stop offset="0.6" stop-color="#54DB0A"/>
<stop offset="0.8" stop-color="#7CE706"/>
<stop offset="0.9" stop-color="#ADF501"/>
<stop offset="1" stop-color="#BFFB00"/>
</linearGradient>
<linearGradient id="paint8_linear_4771_5271" x1="38.7002" y1="57.2" x2="42.1002" y2="57.2" gradientUnits="userSpaceOnUse">
<stop stop-color="#0DC611"/>
<stop offset="0.1" stop-color="#11C710"/>
<stop offset="0.3" stop-color="#1ECB0F"/>
<stop offset="0.4" stop-color="#35D10D"/>
<stop offset="0.6" stop-color="#54DB0A"/>
<stop offset="0.8" stop-color="#7CE706"/>
<stop offset="0.9" stop-color="#ADF501"/>
<stop offset="1" stop-color="#BFFB00"/>
</linearGradient>
<linearGradient id="paint9_linear_4771_5271" x1="30.5" y1="53.2" x2="35.9" y2="53.2" gradientUnits="userSpaceOnUse">
<stop stop-color="#0DC611"/>
<stop offset="0.1" stop-color="#11C710"/>
<stop offset="0.3" stop-color="#1ECB0F"/>
<stop offset="0.4" stop-color="#35D10D"/>
<stop offset="0.6" stop-color="#54DB0A"/>
<stop offset="0.8" stop-color="#7CE706"/>
<stop offset="0.9" stop-color="#ADF501"/>
<stop offset="1" stop-color="#BFFB00"/>
</linearGradient>
<clipPath id="clip0_4771_5271">
<rect width="63.7" height="64" fill="white"/>
</clipPath>
</defs>
</svg>
