<svg width="64" height="64" viewBox="0 0 64 64" fill="none" xmlns="http://www.w3.org/2000/svg">
<g clip-path="url(#clip0_4771_4700)">
<path d="M36.95 0H27.05C12.1107 0 0 12.1107 0 27.05V36.95C0 51.8893 12.1107 64 27.05 64H36.95C51.8893 64 64 51.8893 64 36.95V27.05C64 12.1107 51.8893 0 36.95 0Z" fill="url(#paint0_linear_4771_4700)"/>
<path d="M20.5202 31.35C22.7459 31.35 24.5502 28.8742 24.5502 25.82C24.5502 22.7659 22.7459 20.29 20.5202 20.29C18.2945 20.29 16.4902 22.7659 16.4902 25.82C16.4902 28.8742 18.2945 31.35 20.5202 31.35Z" fill="#F3B514"/>
<path d="M43.4802 31.35C45.7059 31.35 47.5102 28.8742 47.5102 25.82C47.5102 22.7659 45.7059 20.29 43.4802 20.29C41.2545 20.29 39.4502 22.7659 39.4502 25.82C39.4502 28.8742 41.2545 31.35 43.4802 31.35Z" fill="#F3B514"/>
<path d="M20.5202 30.5698C22.7459 30.5698 24.5502 28.0939 24.5502 25.0398C24.5502 21.9856 22.7459 19.5098 20.5202 19.5098C18.2945 19.5098 16.4902 21.9856 16.4902 25.0398C16.4902 28.0939 18.2945 30.5698 20.5202 30.5698Z" fill="#5A2A13"/>
<path d="M43.4802 30.5698C45.7059 30.5698 47.5102 28.0939 47.5102 25.0398C47.5102 21.9856 45.7059 19.5098 43.4802 19.5098C41.2545 19.5098 39.4502 21.9856 39.4502 25.0398C39.4502 28.0939 41.2545 30.5698 43.4802 30.5698Z" fill="#5A2A13"/>
<path d="M19.0801 47.8899C21.0901 44.3999 26.1101 41.9199 32.0001 41.9199C37.8901 41.9199 42.9101 44.3999 44.9201 47.8899" stroke="#F0AA17" stroke-width="3.14" stroke-miterlimit="10" stroke-linecap="round"/>
<path d="M19.0801 47.1204C21.0901 43.6304 26.1101 41.1504 32.0001 41.1504C37.8901 41.1504 42.9101 43.6304 44.9201 47.1204" stroke="#5A2A13" stroke-width="3.14" stroke-miterlimit="10" stroke-linecap="round"/>
</g>
<defs>
<linearGradient id="paint0_linear_4771_4700" x1="32" y1="64" x2="32" y2="0" gradientUnits="userSpaceOnUse">
<stop stop-color="#F69412"/>
<stop offset="0.1" stop-color="#F8A40D"/>
<stop offset="0.25" stop-color="#FBB807"/>
<stop offset="0.43" stop-color="#FDC703"/>
<stop offset="0.64" stop-color="#FECF00"/>
<stop offset="1" stop-color="#FFD200"/>
</linearGradient>
<clipPath id="clip0_4771_4700">
<rect width="64" height="64" fill="white"/>
</clipPath>
</defs>
</svg>
