<svg width="64" height="64" viewBox="0 0 64 64" fill="none" xmlns="http://www.w3.org/2000/svg">
<g clip-path="url(#clip0_4771_4447)">
<path d="M36.95 0H27.05C12.1107 0 0 12.1107 0 27.05V36.95C0 51.8893 12.1107 64 27.05 64H36.95C51.8893 64 64 51.8893 64 36.95V27.05C64 12.1107 51.8893 0 36.95 0Z" fill="url(#paint0_linear_4771_4447)"/>
<path d="M15.4404 15.8096L23.5704 20.3796C24.1304 20.6996 24.1104 21.5096 23.5404 21.7996L15.4404 25.9396" stroke="#F0AA17" stroke-width="3.14" stroke-miterlimit="10" stroke-linecap="round"/>
<path d="M48.5497 15.8096L40.4197 20.3796C39.8597 20.6996 39.8797 21.5096 40.4497 21.7996L48.5497 25.9396" stroke="#F0AA17" stroke-width="3.14" stroke-miterlimit="10" stroke-linecap="round"/>
<path d="M15.4404 15.1504L23.5704 19.7204C24.1304 20.0404 24.1104 20.8504 23.5404 21.1404L15.4404 25.2804" stroke="#5A2A13" stroke-width="3.14" stroke-miterlimit="10" stroke-linecap="round"/>
<path d="M48.5497 15.1504L40.4197 19.7204C39.8597 20.0404 39.8797 20.8504 40.4497 21.1404L48.5497 25.2804" stroke="#5A2A13" stroke-width="3.14" stroke-miterlimit="10" stroke-linecap="round"/>
<path d="M32.0003 49.0396C41.7303 49.0396 49.8203 42.0297 51.4503 32.8097C51.7703 31.0197 50.3703 29.3896 48.5503 29.3896H15.4403C13.6303 29.3896 12.2403 31.0196 12.5503 32.7996C14.1703 42.0296 22.2603 49.0496 32.0003 49.0496V49.0396Z" fill="#F7CB2B"/>
<mask id="mask0_4771_4447" style="mask-type:luminance" maskUnits="userSpaceOnUse" x="12" y="28" width="40" height="21">
<path d="M31.9997 48.37C41.5397 48.37 49.4997 41.63 51.3497 32.67C51.7697 30.62 50.1697 28.71 48.0797 28.71H31.9997H15.9097C13.8297 28.71 12.2397 30.61 12.6497 32.65C14.4797 41.62 22.4497 48.37 31.9997 48.37Z" fill="white"/>
</mask>
<g mask="url(#mask0_4771_4447)">
<path d="M31.9993 48.3697C41.7293 48.3697 49.8193 41.3597 51.4493 32.1397C51.7693 30.3497 50.3693 28.7197 48.5493 28.7197H15.4393C13.6293 28.7197 12.2393 30.3497 12.5493 32.1297C14.1693 41.3597 22.2593 48.3797 31.9993 48.3797V48.3697Z" fill="url(#paint1_linear_4771_4447)"/>
<path d="M31.9997 60.9096C40.3226 60.9096 47.0697 56.531 47.0697 51.1296C47.0697 45.7283 40.3226 41.3496 31.9997 41.3496C23.6768 41.3496 16.9297 45.7283 16.9297 51.1296C16.9297 56.531 23.6768 60.9096 31.9997 60.9096Z" fill="#D8531B"/>
</g>
</g>
<defs>
<linearGradient id="paint0_linear_4771_4447" x1="32" y1="64" x2="32" y2="0" gradientUnits="userSpaceOnUse">
<stop stop-color="#F69412"/>
<stop offset="0.1" stop-color="#F8A40D"/>
<stop offset="0.25" stop-color="#FBB807"/>
<stop offset="0.43" stop-color="#FDC703"/>
<stop offset="0.64" stop-color="#FECF00"/>
<stop offset="1" stop-color="#FFD200"/>
</linearGradient>
<linearGradient id="paint1_linear_4771_4447" x1="31.9993" y1="48.3697" x2="31.9993" y2="28.7097" gradientUnits="userSpaceOnUse">
<stop stop-color="#5A2A13"/>
<stop offset="1" stop-color="#883A12"/>
</linearGradient>
<clipPath id="clip0_4771_4447">
<rect width="64" height="64" fill="white"/>
</clipPath>
</defs>
</svg>
