<svg width="59" height="64" viewBox="0 0 59 64" fill="none" xmlns="http://www.w3.org/2000/svg">
<g clip-path="url(#clip0_4771_5505)">
<path d="M34 5.09961H24.9C11.1481 5.09961 0 16.2477 0 29.9996V39.0996C0 52.8515 11.1481 63.9996 24.9 63.9996H34C47.7519 63.9996 58.9 52.8515 58.9 39.0996V29.9996C58.9 16.2477 47.7519 5.09961 34 5.09961Z" fill="url(#paint0_linear_4771_5505)"/>
<path d="M12.1 50.4998C18.2304 50.4998 23.2 45.5302 23.2 39.3998C23.2 33.2694 18.2304 28.2998 12.1 28.2998C5.96964 28.2998 1 33.2694 1 39.3998C1 45.5302 5.96964 50.4998 12.1 50.4998Z" fill="url(#paint1_radial_4771_5505)"/>
<path d="M46.8002 50.4998C52.9306 50.4998 57.9002 45.5302 57.9002 39.3998C57.9002 33.2694 52.9306 28.2998 46.8002 28.2998C40.6698 28.2998 35.7002 33.2694 35.7002 39.3998C35.7002 45.5302 40.6698 50.4998 46.8002 50.4998Z" fill="url(#paint2_radial_4771_5505)"/>
<path d="M24.3996 31.8998C23.5996 31.8998 22.9996 31.2998 22.9996 30.4998C22.9996 28.3998 21.2996 26.6998 19.1996 26.6998C17.0996 26.6998 15.3996 28.3998 15.3996 30.4998C15.3996 32.5998 14.7996 31.8998 13.9996 31.8998C13.1996 31.8998 12.5996 31.2998 12.5996 30.4998C12.5996 26.7998 15.5996 23.7998 19.2996 23.7998C22.9996 23.7998 25.9996 26.7998 25.9996 30.4998C25.9996 34.1998 25.3996 31.8998 24.5996 31.8998H24.3996Z" fill="#F0AA17"/>
<path d="M44.2004 31.8998C43.4004 31.8998 42.8004 31.2998 42.8004 30.4998C42.8004 28.3998 41.1004 26.6998 39.0004 26.6998C36.9004 26.6998 35.2004 28.3998 35.2004 30.4998C35.2004 32.5998 34.6004 31.8998 33.8004 31.8998C33.0004 31.8998 32.4004 31.2998 32.4004 30.4998C32.4004 26.7998 35.4004 23.7998 39.1004 23.7998C42.8004 23.7998 45.8004 26.7998 45.8004 30.4998C45.8004 34.1998 45.2004 31.8998 44.4004 31.8998H44.2004Z" fill="#F0AA17"/>
<path d="M24.3996 31.1C23.5996 31.1 22.9996 30.5 22.9996 29.7C22.9996 27.6 21.2996 25.9 19.1996 25.9C17.0996 25.9 15.3996 27.6 15.3996 29.7C15.3996 31.8 14.7996 31.1 13.9996 31.1C13.1996 31.1 12.5996 30.5 12.5996 29.7C12.5996 26 15.5996 23 19.2996 23C22.9996 23 25.9996 26 25.9996 29.7C25.9996 33.4 25.3996 31.1 24.5996 31.1H24.3996Z" fill="#5A2A13"/>
<path d="M44.2004 31.1C43.4004 31.1 42.8004 30.5 42.8004 29.7C42.8004 27.6 41.1004 25.9 39.0004 25.9C36.9004 25.9 35.2004 27.6 35.2004 29.7C35.2004 31.8 34.6004 31.1 33.8004 31.1C33.0004 31.1 32.4004 30.5 32.4004 29.7C32.4004 26 35.4004 23 39.1004 23C42.8004 23 45.8004 26 45.8004 29.7C45.8004 33.4 45.2004 31.1 44.4004 31.1H44.2004Z" fill="#5A2A13"/>
<path d="M29.3996 49.9C23.5996 49.9 18.3996 47.5 16.2996 43.7C15.8996 43 16.0996 42.1 16.7996 41.7C17.4996 41.3 18.3996 41.5 18.7996 42.2C20.3996 45.1 24.6996 47 29.3996 47C34.0996 47 38.3996 45.1 39.9996 42.2C40.3996 41.5 41.2996 41.3 41.9996 41.7C42.6996 42.1 42.8996 43 42.4996 43.7C40.2996 47.5 35.1996 49.9 29.3996 49.9Z" fill="#F0AA17"/>
<path d="M29.3996 48.8004C23.5996 48.8004 18.3996 46.4004 16.2996 42.6004C15.8996 41.9004 16.0996 41.0004 16.7996 40.6004C17.4996 40.2004 18.3996 40.4004 18.7996 41.1004C20.3996 44.0004 24.6996 45.9004 29.3996 45.9004C34.0996 45.9004 38.3996 44.0004 39.9996 41.1004C40.3996 40.4004 41.2996 40.2004 41.9996 40.6004C42.6996 41.0004 42.8996 41.9004 42.4996 42.6004C40.2996 46.4004 35.1996 48.8004 29.3996 48.8004Z" fill="#5A2A13"/>
<path opacity="0.5" d="M52.5 13.3996C51 11.7996 49.3 10.2996 47.5 9.09961C46.4 11.1996 38.8 12.7996 29.5 12.7996C20.2 12.7996 12.5 11.1996 11.5 9.09961C9.7 10.2996 8 11.6996 6.5 13.3996C11.1 15.5996 19.7 17.0996 29.5 17.0996C39.3 17.0996 47.9 15.5996 52.5 13.3996Z" fill="#F0AA17"/>
<path d="M29.4002 3.30039C38.8002 3.30039 46.5002 4.90039 47.5002 7.10039C47.5002 6.90039 47.6002 6.80039 47.6002 6.60039C47.6002 4.30039 39.5002 2.40039 29.4002 2.40039C19.3002 2.40039 11.2002 4.30039 11.2002 6.60039C11.2002 8.90039 11.2002 6.90039 11.3002 7.10039C12.3002 5.00039 20.0002 3.30039 29.4002 3.30039Z" fill="url(#paint3_linear_4771_5505)"/>
<path d="M29.4002 0C14.7002 0 2.7002 3.4 2.7002 7.6C2.7002 11.8 2.7002 7.9 2.7002 8.1C3.5002 12.1 15.1002 15.2 29.3002 15.2C43.5002 15.2 55.1002 12.1 55.9002 8.1C55.9002 7.9 55.9002 7.8 55.9002 7.6C55.9002 3.4 43.9002 0 29.2002 0H29.4002ZM47.5002 7.1C46.5002 9.2 38.8002 10.9 29.4002 10.9C20.0002 10.9 12.3002 9.3 11.3002 7.1C11.3002 6.9 11.2002 6.8 11.2002 6.6C11.2002 4.3 19.3002 2.4 29.4002 2.4C39.5002 2.4 47.6002 4.3 47.6002 6.6C47.6002 8.9 47.6002 6.9 47.5002 7.1Z" fill="url(#paint4_linear_4771_5505)"/>
</g>
<defs>
<linearGradient id="paint0_linear_4771_5505" x1="29.4" y1="63.9996" x2="29.4" y2="5.09961" gradientUnits="userSpaceOnUse">
<stop stop-color="#F8A40D"/>
<stop offset="0.3" stop-color="#FBB807"/>
<stop offset="0.4" stop-color="#FDC703"/>
<stop offset="0.6" stop-color="#FECF00"/>
<stop offset="1" stop-color="#FFD200"/>
</linearGradient>
<radialGradient id="paint1_radial_4771_5505" cx="0" cy="0" r="1" gradientUnits="userSpaceOnUse" gradientTransform="translate(12.1 39.3998) scale(11.1)">
<stop stop-color="#F68612"/>
<stop offset="0.2" stop-color="#F68811"/>
<stop offset="0.4" stop-color="#F7910F" stop-opacity="0.9"/>
<stop offset="0.6" stop-color="#F89F0C" stop-opacity="0.8"/>
<stop offset="0.8" stop-color="#FBB207" stop-opacity="0.7"/>
<stop offset="1" stop-color="#FFD200" stop-opacity="0.5"/>
</radialGradient>
<radialGradient id="paint2_radial_4771_5505" cx="0" cy="0" r="1" gradientUnits="userSpaceOnUse" gradientTransform="translate(46.9002 0.499804) rotate(-180) scale(11.1)">
<stop stop-color="#F68612"/>
<stop offset="0.2" stop-color="#F68811"/>
<stop offset="0.4" stop-color="#F7910F" stop-opacity="0.9"/>
<stop offset="0.6" stop-color="#F89F0C" stop-opacity="0.8"/>
<stop offset="0.8" stop-color="#FBB207" stop-opacity="0.7"/>
<stop offset="1" stop-color="#FFD200" stop-opacity="0.5"/>
</radialGradient>
<linearGradient id="paint3_linear_4771_5505" x1="29.4002" y1="1.50039" x2="29.4002" y2="16.0004" gradientUnits="userSpaceOnUse">
<stop stop-color="#5239ED"/>
<stop offset="0.1" stop-color="#5264ED"/>
<stop offset="0.2" stop-color="#5288ED"/>
<stop offset="0.4" stop-color="#52A6ED"/>
<stop offset="0.5" stop-color="#52BDED"/>
<stop offset="0.6" stop-color="#52CEED"/>
<stop offset="0.8" stop-color="#52D7ED"/>
<stop offset="1" stop-color="#52DBED"/>
</linearGradient>
<linearGradient id="paint4_linear_4771_5505" x1="0.000195234" y1="-0.4" x2="29.4002" y2="15" gradientUnits="userSpaceOnUse">
<stop stop-color="#5239ED"/>
<stop offset="0.1" stop-color="#5264ED"/>
<stop offset="0.2" stop-color="#5288ED"/>
<stop offset="0.4" stop-color="#52A6ED"/>
<stop offset="0.5" stop-color="#52BDED"/>
<stop offset="0.6" stop-color="#52CEED"/>
<stop offset="0.8" stop-color="#52D7ED"/>
<stop offset="1" stop-color="#52DBED"/>
</linearGradient>
<clipPath id="clip0_4771_5505">
<rect width="58.9" height="64" fill="white"/>
</clipPath>
</defs>
</svg>
