<svg width="64" height="64" viewBox="0 0 64 64" fill="none" xmlns="http://www.w3.org/2000/svg">
<g clip-path="url(#clip0_4771_4653)">
<path d="M36.95 0H27.05C12.1107 0 0 12.1107 0 27.05V36.95C0 51.8893 12.1107 64 27.05 64H36.95C51.8893 64 64 51.8893 64 36.95V27.05C64 12.1107 51.8893 0 36.95 0Z" fill="url(#paint0_linear_4771_4653)"/>
<path d="M24.1503 53.2304C23.8603 53.1104 23.5603 53.0004 23.2803 52.8604C23.5603 52.9904 23.8603 53.1104 24.1503 53.2304Z" fill="#D8531B"/>
<path d="M22.6003 52.5101C22.3303 52.3701 22.0503 52.2301 21.7803 52.0801C22.0503 52.2301 22.3203 52.3701 22.6003 52.5101Z" fill="#D8531B"/>
<path d="M33.4902 54.6602C32.9002 54.7102 32.3102 54.7402 31.7002 54.7402C32.3002 54.7402 32.9002 54.7102 33.4902 54.6602Z" fill="#D8531B"/>
<path d="M52.5996 37.3395C52.6596 36.7795 52.6896 36.2095 52.6896 35.6295C52.6896 34.7495 52.0196 34.0995 51.2596 34.5095C46.1396 37.2695 39.3996 38.9395 31.9996 38.9395C24.5996 38.9395 17.8496 37.2595 12.7396 34.5095C11.9796 34.0995 11.3096 34.7595 11.3096 35.6295C11.3096 36.2095 11.3496 36.7795 11.4096 37.3395C16.9696 41.1595 24.1496 43.4695 32.0096 43.4695C39.8696 43.4695 47.0496 41.1595 52.6096 37.3295L52.5996 37.3395Z" fill="#F3B514"/>
<path d="M52.5996 38.0095C52.6596 37.4495 52.6896 36.8795 52.6896 36.2995C52.6896 35.4195 52.0196 34.7695 51.2596 35.1795C46.1396 37.9395 39.3996 39.6095 31.9996 39.6095C24.5996 39.6095 17.8496 37.9295 12.7396 35.1795C11.9796 34.7695 11.3096 35.4295 11.3096 36.2995C11.3096 36.8795 11.3496 37.4495 11.4096 38.0095C16.9696 41.8295 24.1496 44.1395 32.0096 44.1395C39.8696 44.1395 47.0496 41.8295 52.6096 37.9995L52.5996 38.0095Z" fill="url(#paint1_radial_4771_4653)"/>
<path d="M31.9994 55.0095C41.4494 55.0095 51.5694 48.8095 52.5994 38.6895C47.0394 42.5095 39.8494 44.8295 31.9994 44.8295C24.1494 44.8295 16.9694 42.5195 11.3994 38.6995C12.4694 48.4495 22.5594 55.0195 31.9994 55.0195V55.0095Z" fill="#F7CB2B"/>
<path d="M31.9994 54.3298C41.4494 54.3298 51.5694 48.1298 52.5994 38.0098C47.0394 41.8298 39.8494 44.1498 31.9994 44.1498C24.1494 44.1498 16.9694 41.8398 11.3994 38.0198C12.4694 47.7698 22.5594 54.3398 31.9994 54.3398V54.3298Z" fill="url(#paint2_linear_4771_4653)"/>
<path d="M17.0601 14.9202C8.27011 9.08017 2.21011 19.5902 8.32011 25.7102C12.8201 30.2202 20.0301 32.2902 20.0301 32.2902C20.0301 32.2902 26.1401 27.9402 28.8901 22.1902C32.6201 14.3902 23.4201 6.49017 17.0601 14.9202Z" fill="#F3B514"/>
<path d="M46.94 14.9202C55.73 9.08017 61.79 19.5902 55.68 25.7102C51.18 30.2202 43.97 32.2902 43.97 32.2902C43.97 32.2902 37.86 27.9402 35.11 22.1902C31.38 14.3902 40.58 6.49017 46.94 14.9202Z" fill="#F3B514"/>
<path d="M16.2095 14.0696C7.41953 8.22958 1.35953 18.7396 7.46953 24.8596C11.9695 29.3696 19.1795 31.4396 19.1795 31.4396C19.1795 31.4396 25.2895 27.0896 28.0395 21.3396C31.7695 13.5396 22.5695 5.63958 16.2095 14.0696Z" fill="url(#paint3_linear_4771_4653)"/>
<path d="M10.5896 14.3194C8.95956 14.5994 7.64956 15.8194 7.07956 17.5794C6.35956 19.8294 7.02956 22.2694 8.86956 24.1194C9.75956 25.0094 10.7596 25.8094 11.7996 26.5194C11.7096 22.6694 12.7196 18.5494 14.4196 15.0694C13.0496 14.3794 11.7496 14.1194 10.5996 14.3194H10.5896Z" fill="url(#paint4_linear_4771_4653)"/>
<path opacity="0.5" d="M21.1595 13.5693C20.3095 13.3593 19.3495 13.5693 18.6995 14.3093C17.8695 15.2493 17.3895 16.0893 17.5795 17.8893C17.6495 18.5493 18.0095 19.7093 18.3695 20.2793C19.1395 18.3893 21.2995 16.0793 22.8595 14.7493C22.3395 14.1293 21.7595 13.7193 21.1595 13.5793V13.5693Z" fill="url(#paint5_linear_4771_4653)"/>
<path d="M47.7896 14.0696C56.5796 8.22958 62.6396 18.7396 56.5296 24.8596C52.0296 29.3696 44.8196 31.4396 44.8196 31.4396C44.8196 31.4396 38.7096 27.0896 35.9596 21.3396C32.2296 13.5396 41.4296 5.63958 47.7896 14.0696Z" fill="url(#paint6_linear_4771_4653)"/>
<path d="M53.4101 14.3194C55.0401 14.5994 56.3501 15.8194 56.9201 17.5794C57.6401 19.8294 56.9701 22.2694 55.1301 24.1194C54.2401 25.0094 53.2401 25.8094 52.2001 26.5194C52.2901 22.6694 51.2801 18.5494 49.5801 15.0694C50.9501 14.3794 52.2501 14.1194 53.4001 14.3194H53.4101Z" fill="url(#paint7_linear_4771_4653)"/>
<path opacity="0.5" d="M42.8396 13.5693C43.6896 13.3593 44.6496 13.5693 45.2996 14.3093C46.1296 15.2493 46.6096 16.0893 46.4196 17.8893C46.3496 18.5493 45.9897 19.7093 45.6297 20.2793C44.8597 18.3893 42.6996 16.0793 41.1396 14.7493C41.6596 14.1293 42.2396 13.7193 42.8396 13.5793V13.5693Z" fill="url(#paint8_linear_4771_4653)"/>
</g>
<defs>
<linearGradient id="paint0_linear_4771_4653" x1="32" y1="64" x2="32" y2="0" gradientUnits="userSpaceOnUse">
<stop stop-color="#F69412"/>
<stop offset="0.1" stop-color="#F8A40D"/>
<stop offset="0.25" stop-color="#FBB807"/>
<stop offset="0.43" stop-color="#FDC703"/>
<stop offset="0.64" stop-color="#FECF00"/>
<stop offset="1" stop-color="#FFD200"/>
</linearGradient>
<radialGradient id="paint1_radial_4771_4653" cx="0" cy="0" r="1" gradientUnits="userSpaceOnUse" gradientTransform="translate(31.6696 43.6887) scale(18 8.64)">
<stop stop-color="white"/>
<stop offset="0.42" stop-color="#FCFCFC"/>
<stop offset="0.65" stop-color="#F4F5F5"/>
<stop offset="0.83" stop-color="#E7E8E8"/>
<stop offset="0.98" stop-color="#D4D6D6"/>
<stop offset="1" stop-color="#D1D3D4"/>
</radialGradient>
<linearGradient id="paint2_linear_4771_4653" x1="31.9994" y1="54.3298" x2="31.9994" y2="38.0098" gradientUnits="userSpaceOnUse">
<stop stop-color="#883A12"/>
<stop offset="1" stop-color="#5A2A13"/>
</linearGradient>
<linearGradient id="paint3_linear_4771_4653" x1="19.1896" y1="31.4321" x2="15.781" y2="11.4914" gradientUnits="userSpaceOnUse">
<stop stop-color="#D1061C"/>
<stop offset="0.27" stop-color="#D3091F"/>
<stop offset="0.52" stop-color="#DC142A"/>
<stop offset="0.76" stop-color="#EA273D"/>
<stop offset="1" stop-color="#FF4258"/>
</linearGradient>
<linearGradient id="paint4_linear_4771_4653" x1="6.88468" y1="16.4815" x2="10.7839" y2="19.173" gradientUnits="userSpaceOnUse">
<stop stop-color="#FF5E66"/>
<stop offset="1" stop-color="#FF5E66" stop-opacity="0"/>
</linearGradient>
<linearGradient id="paint5_linear_4771_4653" x1="17.138" y1="15.3697" x2="18.7314" y2="16.2813" gradientUnits="userSpaceOnUse">
<stop stop-color="#FF5E66"/>
<stop offset="1" stop-color="#FF5E66" stop-opacity="0"/>
</linearGradient>
<linearGradient id="paint6_linear_4771_4653" x1="44.813" y1="31.5474" x2="48.2232" y2="11.5967" gradientUnits="userSpaceOnUse">
<stop stop-color="#D1061C"/>
<stop offset="0.27" stop-color="#D3091F"/>
<stop offset="0.52" stop-color="#DC142A"/>
<stop offset="0.76" stop-color="#EA273D"/>
<stop offset="1" stop-color="#FF4258"/>
</linearGradient>
<linearGradient id="paint7_linear_4771_4653" x1="57.1102" y1="16.5852" x2="53.2093" y2="19.2865" gradientUnits="userSpaceOnUse">
<stop stop-color="#FF5E66"/>
<stop offset="1" stop-color="#FF5E66" stop-opacity="0"/>
</linearGradient>
<linearGradient id="paint8_linear_4771_4653" x1="46.8597" y1="15.3055" x2="45.2573" y2="16.228" gradientUnits="userSpaceOnUse">
<stop stop-color="#FF5E66"/>
<stop offset="1" stop-color="#FF5E66" stop-opacity="0"/>
</linearGradient>
<clipPath id="clip0_4771_4653">
<rect width="64" height="64" fill="white"/>
</clipPath>
</defs>
</svg>
