<svg width="64" height="64" viewBox="0 0 64 64" fill="none" xmlns="http://www.w3.org/2000/svg">
<g clip-path="url(#clip0_4771_4972)">
<path d="M36.95 0H27.05C12.1107 0 0 12.1107 0 27.05V36.95C0 51.8893 12.1107 64 27.05 64H36.95C51.8893 64 64 51.8893 64 36.95V27.05C64 12.1107 51.8893 0 36.95 0Z" fill="url(#paint0_linear_4771_4972)"/>
<path d="M50.9805 30.7795C50.9805 30.7795 43.9105 24.0795 37.7305 30.7795" stroke="#F0AA17" stroke-width="3.14" stroke-miterlimit="10" stroke-linecap="round"/>
<path d="M13.0195 30.7795C13.0195 30.7795 20.0895 24.0795 26.2695 30.7795" stroke="#F0AA17" stroke-width="3.14" stroke-miterlimit="10" stroke-linecap="round"/>
<mask id="mask0_4771_4972" style="mask-type:luminance" maskUnits="userSpaceOnUse" x="0" y="0" width="64" height="64">
<path d="M36.95 0H27.05C12.1107 0 0 12.1107 0 27.05V36.95C0 51.8893 12.1107 64 27.05 64H36.95C51.8893 64 64 51.8893 64 36.95V27.05C64 12.1107 51.8893 0 36.95 0Z" fill="white"/>
</mask>
<g mask="url(#mask0_4771_4972)">
<path d="M11.9199 29.9997V63.9997H21.9799V27.0197C21.9799 27.0197 17.6899 25.8997 11.9199 29.9997Z" fill="url(#paint1_linear_4771_4972)"/>
<path d="M52.0795 29.9997V63.9997H42.0195V27.0197C42.0195 27.0197 46.3095 25.8997 52.0795 29.9997Z" fill="url(#paint2_linear_4771_4972)"/>
</g>
<path d="M8.30957 27.5204C8.30957 27.5204 9.67957 22.2204 15.3996 21.1504" stroke="#F0AA17" stroke-width="3.14" stroke-miterlimit="10" stroke-linecap="round"/>
<path d="M8.37012 26.7499C8.37012 26.7499 9.74012 21.4499 15.4601 20.3799" stroke="#CF6904" stroke-width="3.14" stroke-miterlimit="10" stroke-linecap="round"/>
<path d="M55.6896 27.5204C55.6896 27.5204 54.3196 22.2204 48.5996 21.1504" stroke="#F0AA17" stroke-width="3.14" stroke-miterlimit="10" stroke-linecap="round"/>
<path d="M55.63 26.7499C55.63 26.7499 54.26 21.4499 48.54 20.3799" stroke="#CF6904" stroke-width="3.14" stroke-miterlimit="10" stroke-linecap="round"/>
<path d="M32 53.69C36.1642 53.69 39.54 50.0188 39.54 45.49C39.54 40.9613 36.1642 37.29 32 37.29C27.8357 37.29 24.46 40.9613 24.46 45.49C24.46 50.0188 27.8357 53.69 32 53.69Z" fill="#F7CB2B"/>
<path d="M32 53.15C36.1642 53.15 39.54 49.4787 39.54 44.95C39.54 40.4213 36.1642 36.75 32 36.75C27.8357 36.75 24.46 40.4213 24.46 44.95C24.46 49.4787 27.8357 53.15 32 53.15Z" fill="url(#paint3_linear_4771_4972)"/>
<mask id="mask1_4771_4972" style="mask-type:luminance" maskUnits="userSpaceOnUse" x="24" y="36" width="16" height="18">
<path d="M32 53.15C36.1642 53.15 39.54 49.4787 39.54 44.95C39.54 40.4213 36.1642 36.75 32 36.75C27.8357 36.75 24.46 40.4213 24.46 44.95C24.46 49.4787 27.8357 53.15 32 53.15Z" fill="white"/>
</mask>
<g mask="url(#mask1_4771_4972)">
<path d="M32 56.1402C36.1642 56.1402 39.54 54.1389 39.54 51.6702C39.54 49.2015 36.1642 47.2002 32 47.2002C27.8357 47.2002 24.46 49.2015 24.46 51.6702C24.46 54.1389 27.8357 56.1402 32 56.1402Z" fill="#D8531B"/>
</g>
<path d="M13.0195 30.0002C13.0195 30.0002 20.0895 23.3002 26.2695 30.0002" stroke="#5A2A13" stroke-width="3.14" stroke-miterlimit="10" stroke-linecap="round"/>
<path d="M50.9805 30.0002C50.9805 30.0002 43.9105 23.3002 37.7305 30.0002" stroke="#5A2A13" stroke-width="3.14" stroke-miterlimit="10" stroke-linecap="round"/>
</g>
<defs>
<linearGradient id="paint0_linear_4771_4972" x1="32" y1="64" x2="32" y2="0" gradientUnits="userSpaceOnUse">
<stop stop-color="#F69412"/>
<stop offset="0.1" stop-color="#F8A40D"/>
<stop offset="0.25" stop-color="#FBB807"/>
<stop offset="0.43" stop-color="#FDC703"/>
<stop offset="0.64" stop-color="#FECF00"/>
<stop offset="1" stop-color="#FFD200"/>
</linearGradient>
<linearGradient id="paint1_linear_4771_4972" x1="16.9499" y1="63.9997" x2="16.9499" y2="26.8797" gradientUnits="userSpaceOnUse">
<stop stop-color="#5239ED"/>
<stop offset="0.12" stop-color="#5264ED"/>
<stop offset="0.24" stop-color="#5288ED"/>
<stop offset="0.36" stop-color="#52A6ED"/>
<stop offset="0.5" stop-color="#52BDED"/>
<stop offset="0.64" stop-color="#52CEED"/>
<stop offset="0.8" stop-color="#52D7ED"/>
<stop offset="1" stop-color="#52DBED"/>
</linearGradient>
<linearGradient id="paint2_linear_4771_4972" x1="47.0495" y1="63.9997" x2="47.0495" y2="26.8797" gradientUnits="userSpaceOnUse">
<stop stop-color="#5239ED"/>
<stop offset="0.12" stop-color="#5264ED"/>
<stop offset="0.24" stop-color="#5288ED"/>
<stop offset="0.36" stop-color="#52A6ED"/>
<stop offset="0.5" stop-color="#52BDED"/>
<stop offset="0.64" stop-color="#52CEED"/>
<stop offset="0.8" stop-color="#52D7ED"/>
<stop offset="1" stop-color="#52DBED"/>
</linearGradient>
<linearGradient id="paint3_linear_4771_4972" x1="32" y1="53.15" x2="32" y2="36.75" gradientUnits="userSpaceOnUse">
<stop stop-color="#5A2A13"/>
<stop offset="1" stop-color="#883A12"/>
</linearGradient>
<clipPath id="clip0_4771_4972">
<rect width="64" height="64" fill="white"/>
</clipPath>
</defs>
</svg>
