<svg width="64" height="64" viewBox="0 0 64 64" fill="none" xmlns="http://www.w3.org/2000/svg">
<g clip-path="url(#clip0_4771_5626)">
<path d="M36.9 0H27.1C12.1331 0 0 12.1331 0 27.1V36.9C0 51.8669 12.1331 64 27.1 64H36.9C51.8669 64 64 51.8669 64 36.9V27.1C64 12.1331 51.8669 0 36.9 0Z" fill="url(#paint0_linear_4771_5626)"/>
<path d="M14.6003 22.7004C14.3003 22.7004 13.9003 22.7004 13.6003 22.7004C12.7003 22.7004 12.1003 21.9004 12.2003 21.0004C12.2003 20.1004 13.0003 19.5004 13.9003 19.6004C19.5003 20.1004 21.6003 15.0004 21.7003 14.8004C22.0003 14.0004 22.9003 13.6004 23.7003 13.9004C24.5003 14.2004 24.9003 15.1004 24.6003 15.9004C23.6003 18.3004 20.4003 22.7004 14.6003 22.7004Z" fill="#0DC611"/>
<path d="M14.6003 21.8996C14.3003 21.8996 13.9003 21.8996 13.6003 21.8996C12.7003 21.8996 12.1003 21.0996 12.2003 20.1996C12.3003 19.2996 13.0003 18.6996 13.9003 18.7996C19.5003 19.2996 21.6003 14.1996 21.7003 13.9996C22.0003 13.1996 22.9003 12.7996 23.7003 13.0996C24.5003 13.3996 24.9003 14.2996 24.6003 15.0996C23.6003 17.4996 20.4003 21.8996 14.6003 21.8996Z" fill="#117C10"/>
<path d="M49.3996 22.6996C43.6996 22.6996 40.3996 18.2996 39.3996 15.8996C39.0996 15.0996 39.3996 14.1996 40.2996 13.8996C41.0996 13.5996 41.9996 13.8996 42.2996 14.7996C42.2996 14.9996 44.4996 20.0996 50.0996 19.5996C50.9996 19.5996 51.6996 20.1996 51.7996 20.9996C51.7996 21.8996 51.1996 22.5996 50.3996 22.6996C50.0996 22.6996 49.6996 22.6996 49.3996 22.6996Z" fill="#0DC611"/>
<path d="M49.3996 21.8998C43.6996 21.8998 40.3996 17.4998 39.3996 15.0998C39.0996 14.2998 39.3996 13.3998 40.2996 13.0998C41.0996 12.7998 41.9996 13.0998 42.2996 13.9998C42.2996 14.1998 44.4996 19.2998 50.0996 18.7998C50.9996 18.7998 51.6996 19.3998 51.7996 20.1998C51.8996 20.9998 51.1996 21.7998 50.3996 21.8998C50.0996 21.8998 49.6996 21.8998 49.3996 21.8998Z" fill="#117C10"/>
<path d="M24.5996 29.2998C24.5996 32.0998 22.7996 34.2998 20.5996 34.2998C18.3996 34.2998 16.5996 32.0998 16.5996 29.2998C16.5996 26.4998 18.3996 24.2998 20.5996 24.2998C22.7996 24.2998 24.5996 26.4998 24.5996 29.2998Z" fill="#0DC611"/>
<path d="M39.3994 29.2998C39.3994 32.0998 41.1994 34.2998 43.3994 34.2998C45.5994 34.2998 47.3994 32.0998 47.3994 29.2998C47.3994 26.4998 45.5994 24.2998 43.3994 24.2998C41.1994 24.2998 39.3994 26.4998 39.3994 29.2998Z" fill="#0DC611"/>
<path d="M24.5996 28.2998C24.5996 31.0998 22.7996 33.2998 20.5996 33.2998C18.3996 33.2998 16.5996 31.0998 16.5996 28.2998C16.5996 25.4998 18.3996 23.2998 20.5996 23.2998C22.7996 23.2998 24.5996 25.4998 24.5996 28.2998Z" fill="#5A2A13"/>
<path d="M39.3994 28.2998C39.3994 31.0998 41.1994 33.2998 43.3994 33.2998C45.5994 33.2998 47.3994 31.0998 47.3994 28.2998C47.3994 25.4998 45.5994 23.2998 43.3994 23.2998C41.1994 23.2998 39.3994 25.4998 39.3994 28.2998Z" fill="#5A2A13"/>
<path d="M50.6004 55.6998C56.5098 55.6998 61.3004 50.9093 61.3004 44.9998C61.3004 39.0904 56.5098 34.2998 50.6004 34.2998C44.6909 34.2998 39.9004 39.0904 39.9004 44.9998C39.9004 50.9093 44.6909 55.6998 50.6004 55.6998Z" fill="url(#paint1_radial_4771_5626)"/>
<path d="M13.4002 55.6998C19.3096 55.6998 24.1002 50.9093 24.1002 44.9998C24.1002 39.0904 19.3096 34.2998 13.4002 34.2998C7.49075 34.2998 2.7002 39.0904 2.7002 44.9998C2.7002 50.9093 7.49075 55.6998 13.4002 55.6998Z" fill="url(#paint2_radial_4771_5626)"/>
<path d="M40.0002 47.4996C39.6002 47.4996 39.1002 47.2996 38.8002 46.9996C38.0002 46.0996 35.4002 45.1996 32.0002 45.1996C28.6002 45.1996 26.0002 46.0996 25.2002 46.9996C24.6002 47.5996 23.6002 47.6996 23.0002 47.0996C22.4002 46.4996 22.3002 45.4996 22.9002 44.8996C24.5002 43.0996 28.0002 42.0996 32.0002 42.0996C36.0002 42.0996 39.5002 43.1996 41.1002 44.8996C41.7002 45.4996 41.6002 46.4996 41.0002 47.0996C40.7002 47.3996 40.3002 47.4996 39.9002 47.4996H40.0002Z" fill="#0DC611"/>
<path d="M40.0002 46.4996C39.6002 46.4996 39.1002 46.2996 38.8002 45.9996C38.0002 45.0996 35.4002 44.1996 32.0002 44.1996C28.6002 44.1996 26.0002 45.0996 25.2002 45.9996C24.6002 46.5996 23.6002 46.6996 23.0002 46.0996C22.4002 45.4996 22.3002 44.4996 22.9002 43.8996C24.5002 42.0996 28.0002 41.0996 32.0002 41.0996C36.0002 41.0996 39.5002 42.1996 41.1002 43.8996C41.7002 44.4996 41.6002 45.4996 41.0002 46.0996C40.7002 46.3996 40.3002 46.4996 39.9002 46.4996H40.0002Z" fill="#117C10"/>
<path d="M22.8995 50.5997C22.5995 50.5997 22.3995 50.5997 22.0995 50.3997C21.2995 49.9997 21.0995 48.9997 21.4995 48.2997C21.4995 48.0997 21.6995 47.9997 21.7995 47.7997C22.4995 45.9997 21.9995 43.8997 20.5995 42.4997C19.9995 41.8997 19.8995 40.8997 20.5995 40.2997C21.1995 39.6997 22.1995 39.5997 22.7995 40.2997C25.1995 42.4997 25.9995 45.9997 24.7995 48.9997C24.6995 49.2997 24.4995 49.5997 24.3995 49.8997C24.0995 50.3997 23.5995 50.6997 22.9995 50.6997L22.8995 50.5997Z" fill="#117C10"/>
<path d="M41.1003 50.6005C40.5003 50.6005 40.0003 50.3005 39.7003 49.8005C39.5003 49.5005 39.4003 49.2005 39.3003 48.9005C38.1003 45.9005 38.9003 42.4005 41.3003 40.2005C41.9003 39.6005 42.9003 39.7005 43.5003 40.2005C44.1003 40.8005 44.0003 41.8005 43.5003 42.4005C42.1003 43.7005 41.6003 45.8005 42.3003 47.7005C42.3003 47.9005 42.5003 48.1005 42.6003 48.2005C43.0003 49.0005 42.7003 49.9005 42.0003 50.3005C41.8003 50.4005 41.5003 50.5005 41.2003 50.5005L41.1003 50.6005Z" fill="#117C10"/>
</g>
<defs>
<linearGradient id="paint0_linear_4771_5626" x1="32" y1="64" x2="32" y2="0" gradientUnits="userSpaceOnUse">
<stop stop-color="#0DC611"/>
<stop offset="0.2" stop-color="#3FD50C"/>
<stop offset="0.5" stop-color="#75E506"/>
<stop offset="0.7" stop-color="#9DF103"/>
<stop offset="0.9" stop-color="#B6F800"/>
<stop offset="1" stop-color="#BFFB00"/>
</linearGradient>
<radialGradient id="paint1_radial_4771_5626" cx="0" cy="0" r="1" gradientUnits="userSpaceOnUse" gradientTransform="translate(50.6004 44.9998) scale(10.7 10.7)">
<stop stop-color="#B2D61E"/>
<stop offset="0.1" stop-color="#B0D51D"/>
<stop offset="0.3" stop-color="#AAD51B" stop-opacity="0.9"/>
<stop offset="0.4" stop-color="#A1D418" stop-opacity="0.8"/>
<stop offset="0.5" stop-color="#94D314" stop-opacity="0.7"/>
<stop offset="0.7" stop-color="#83D20E" stop-opacity="0.5"/>
<stop offset="0.8" stop-color="#6ED007" stop-opacity="0.3"/>
<stop offset="1" stop-color="#56CF00" stop-opacity="0"/>
</radialGradient>
<radialGradient id="paint2_radial_4771_5626" cx="0" cy="0" r="1" gradientUnits="userSpaceOnUse" gradientTransform="translate(13.4002 44.9998) rotate(180) scale(10.7)">
<stop stop-color="#B2D61E"/>
<stop offset="0.1" stop-color="#B0D51D"/>
<stop offset="0.3" stop-color="#AAD51B" stop-opacity="0.9"/>
<stop offset="0.4" stop-color="#A1D418" stop-opacity="0.8"/>
<stop offset="0.5" stop-color="#94D314" stop-opacity="0.7"/>
<stop offset="0.7" stop-color="#83D20E" stop-opacity="0.5"/>
<stop offset="0.8" stop-color="#6ED007" stop-opacity="0.3"/>
<stop offset="1" stop-color="#56CF00" stop-opacity="0"/>
</radialGradient>
<clipPath id="clip0_4771_5626">
<rect width="64" height="64" fill="white"/>
</clipPath>
</defs>
</svg>
