<svg width="64" height="64" viewBox="0 0 64 64" fill="none" xmlns="http://www.w3.org/2000/svg">
<g clip-path="url(#clip0_4771_5368)">
<path d="M36.9 0H27.1C12.1331 0 0 12.1331 0 27.1V36.9C0 51.8669 12.1331 64 27.1 64H36.9C51.8669 64 64 51.8669 64 36.9V27.1C64 12.1331 51.8669 0 36.9 0Z" fill="url(#paint0_linear_4771_5368)"/>
<path d="M31.9996 55.3C35.5342 55.3 38.3996 52.8823 38.3996 49.9C38.3996 46.9177 35.5342 44.5 31.9996 44.5C28.465 44.5 25.5996 46.9177 25.5996 49.9C25.5996 52.8823 28.465 55.3 31.9996 55.3Z" fill="#F7CB2B"/>
<path d="M31.9996 54.3996C35.5342 54.3996 38.3996 51.9819 38.3996 48.9996C38.3996 46.0173 35.5342 43.5996 31.9996 43.5996C28.465 43.5996 25.5996 46.0173 25.5996 48.9996C25.5996 51.9819 28.465 54.3996 31.9996 54.3996Z" fill="#F3B514"/>
<path d="M31.9996 54.8996C35.5342 54.8996 38.3996 52.4819 38.3996 49.4996C38.3996 46.5173 35.5342 44.0996 31.9996 44.0996C28.465 44.0996 25.5996 46.5173 25.5996 49.4996C25.5996 52.4819 28.465 54.8996 31.9996 54.8996Z" fill="url(#paint1_linear_4771_5368)"/>
<mask id="mask0_4771_5368" style="mask-type:luminance" maskUnits="userSpaceOnUse" x="25" y="44" width="14" height="11">
<path d="M31.9996 54.8996C35.5342 54.8996 38.3996 52.4819 38.3996 49.4996C38.3996 46.5173 35.5342 44.0996 31.9996 44.0996C28.465 44.0996 25.5996 46.5173 25.5996 49.4996C25.5996 52.4819 28.465 54.8996 31.9996 54.8996Z" fill="white"/>
</mask>
<g mask="url(#mask0_4771_5368)">
<path d="M25.5996 53.9C25.5996 52.3 28.4996 51 31.9996 51C35.4996 51 38.3996 52.3 38.3996 53.9C38.3996 55.5 35.4996 56.8 31.9996 56.8C28.4996 56.8 25.5996 55.5 25.5996 53.9Z" fill="#D8531B"/>
</g>
<path d="M20.0999 37.6995C15.5999 37.6995 12.0999 34.3995 11.9999 34.2995C11.3999 33.6995 11.2999 32.6995 11.9999 32.0995C12.5999 31.4995 13.5999 31.3995 14.1999 32.0995C14.1999 32.0995 17.0999 34.7995 20.3999 34.5995C22.0999 34.5995 23.7999 33.6995 25.1999 32.0995C25.7999 31.4995 26.7999 31.3995 27.3999 32.0995C27.9999 32.6995 28.0999 33.6995 27.3999 34.2995C25.3999 36.4995 22.9999 37.6995 20.3999 37.7995C20.2999 37.7995 20.1999 37.7995 20.0999 37.7995V37.6995Z" fill="#F0AA17"/>
<path d="M43.8999 37.6998C43.7999 37.6998 43.6999 37.6998 43.5999 37.6998C40.9999 37.6998 38.5999 36.3998 36.5999 34.1998C35.9999 33.5998 36.0999 32.5998 36.5999 31.9998C37.1999 31.3998 38.1999 31.4998 38.7999 31.9998C40.2999 33.5998 41.8999 34.3998 43.5999 34.4998C46.9999 34.5998 49.7999 31.9998 49.7999 31.9998C50.3999 31.3998 51.3999 31.3998 51.9999 31.9998C52.5999 32.5998 52.5999 33.5998 51.9999 34.1998C51.8999 34.2998 48.3999 37.5998 43.8999 37.5998V37.6998Z" fill="#F0AA17"/>
<path d="M43.8999 36.4996C43.7999 36.4996 43.6999 36.4996 43.5999 36.4996C40.9999 36.4996 38.5999 35.1996 36.5999 32.9996C35.9999 32.3996 36.0999 31.3996 36.5999 30.7996C37.1999 30.1996 38.1999 30.2996 38.7999 30.7996C40.2999 32.3996 41.8999 33.1996 43.5999 33.2996C46.9999 33.3996 49.7999 30.7996 49.7999 30.7996C50.3999 30.1996 51.3999 30.1996 51.9999 30.7996C52.5999 31.3996 52.5999 32.3996 51.9999 32.9996C51.8999 33.0996 48.3999 36.3996 43.8999 36.3996V36.4996Z" fill="#5A2A13"/>
<path d="M20.0999 36.5003C15.5999 36.5003 12.0999 33.2003 11.9999 33.1003C11.3999 32.5003 11.2999 31.5003 11.9999 30.9003C12.5999 30.3003 13.5999 30.2003 14.1999 30.9003C14.1999 30.9003 17.0999 33.6003 20.3999 33.4003C22.0999 33.4003 23.7999 32.5003 25.1999 30.9003C25.7999 30.3003 26.7999 30.2003 27.3999 30.9003C27.9999 31.5003 28.0999 32.5003 27.3999 33.1003C25.3999 35.3003 22.9999 36.5003 20.3999 36.6003C20.2999 36.6003 20.1999 36.6003 20.0999 36.6003V36.5003Z" fill="#5A2A13"/>
<path d="M23.8998 21.5C23.6998 21.2 23.3998 21 23.2998 21C22.8998 20.9 22.5998 21 22.0998 21.3L20.1998 22.3L21.1998 18.1C21.3998 17.4 21.3998 17.1 21.1998 16.7C20.9998 16.4 20.7998 16.2 20.4998 16.1C19.9998 16 19.7998 16.1 19.0998 16.4L16.0998 18C15.7998 18.1 15.3998 18.4 15.2998 18.8C15.2998 19 15.2998 19.3 15.3998 19.6C15.4998 19.9 15.7998 20.1 16.0998 20.1C16.4998 20.1 16.6998 20.1 17.1998 19.8L18.5998 19.1L17.6998 23C17.4998 23.8 17.3998 24.1 17.6998 24.5C17.8998 24.8 18.1998 25.1 18.4998 25.2C18.5998 25.2 18.6998 25.2 18.8998 25.2C19.1998 25.2 19.4998 25 20.0998 24.7L23.2998 23C23.7998 22.8 24.0998 22.6 24.1998 22.2C24.1998 21.9 24.1998 21.6 24.1998 21.4L23.8998 21.5Z" fill="#F0AA17"/>
<path d="M41.0004 18.3001C40.8004 17.6001 40.4004 17.3001 40.1004 17.1001C39.5004 16.7001 38.9004 16.9001 37.9004 17.1001L33.1004 18.2001L37.5004 10.1001C38.1004 8.90006 38.4004 8.40006 38.2004 7.60006C38.1004 7.00006 37.7004 6.50006 37.2004 6.20006C36.5004 5.70006 36.0004 5.90006 34.5004 6.20006L27.8004 7.80006C27.2004 7.90006 26.3004 8.10006 25.9004 8.80006C25.7004 9.20006 25.6004 9.60006 25.7004 10.2001C25.8004 10.8001 26.3004 11.3001 26.7004 11.4001C27.4004 11.7001 27.9004 11.6001 28.8004 11.4001L32.4004 10.6001L28.2004 18.2001C27.5004 19.6001 27.2004 20.0001 27.4004 20.9001C27.5004 21.5001 27.9004 22.1001 28.5004 22.5001C28.9004 22.7001 29.2004 22.8001 29.6004 22.8001C30.0004 22.8001 30.6004 22.7001 31.5004 22.5001L38.7004 20.8001C39.7004 20.6001 40.3004 20.4001 40.7004 19.8001C41.0004 19.4001 41.1004 18.8001 40.9004 18.3001H41.0004Z" fill="#F0AA17"/>
<path d="M62.4997 5.99975C61.8997 5.09975 61.3997 4.99975 59.5997 4.59975L51.5997 2.79975C50.8997 2.59975 49.7997 2.39975 48.9997 2.89975C48.4997 3.19975 48.1997 3.69975 48.0997 4.29975C47.8997 5.09975 48.0997 5.79975 48.4997 6.09975C49.0997 6.79975 49.6997 6.89975 50.7997 7.19975L55.0997 8.09975L46.6997 14.1997C45.1997 15.2997 44.6998 15.6997 44.3998 16.6997C44.1998 17.4997 44.3997 18.2997 44.7997 18.9997C45.3997 19.9997 45.9997 20.0997 48.0997 20.4997L56.6997 22.3997C57.3997 22.4997 57.8998 22.6997 58.3998 22.6997C58.8998 22.6997 59.0998 22.6997 59.3998 22.3997C59.8998 22.0997 60.2997 21.5997 60.3997 20.9997C60.5998 20.1997 60.2997 19.5997 60.0997 19.2997C59.5997 18.5997 58.8997 18.3997 57.6997 18.0997L51.8998 16.7997L60.7997 10.2997C62.0997 9.39975 62.5998 8.99975 62.8997 7.99975C63.0998 7.29975 62.8997 6.59975 62.4997 5.99975Z" fill="#F0AA17"/>
<path d="M23.8998 20.5C23.6998 20.2 23.3998 20 23.2998 20C22.8998 19.9 22.5998 20 22.0998 20.3L20.1998 21.3L21.1998 17.1C21.3998 16.4 21.3998 16.1 21.1998 15.7C20.9998 15.4 20.7998 15.2 20.4998 15.1C19.9998 15 19.7998 15.1 19.0998 15.4L16.0998 17C15.7998 17.1 15.3998 17.4 15.2998 17.8C15.2998 18 15.2998 18.3 15.3998 18.6C15.4998 18.9 15.7998 19.1 16.0998 19.1C16.4998 19.1 16.6998 19.1 17.1998 18.8L18.5998 18.1L17.6998 22C17.4998 22.8 17.3998 23.1 17.6998 23.5C17.8998 23.8 18.1998 24.1 18.4998 24.2C18.5998 24.2 18.6998 24.2 18.8998 24.2C19.1998 24.2 19.4998 24 20.0998 23.7L23.2998 22C23.7998 21.8 24.0998 21.6 24.1998 21.2C24.1998 20.9 24.1998 20.6 24.1998 20.4L23.8998 20.5Z" fill="url(#paint2_linear_4771_5368)"/>
<path d="M41.0004 17.3001C40.8004 16.6001 40.4004 16.3001 40.1004 16.1001C39.5004 15.7001 38.9004 15.9001 37.9004 16.1001L33.1004 17.2001L37.5004 9.10006C38.1004 7.90006 38.4004 7.40006 38.2004 6.60006C38.1004 6.00006 37.7004 5.50006 37.2004 5.20006C36.5004 4.70006 36.0004 4.90006 34.5004 5.20006L27.8004 6.80006C27.2004 6.90006 26.3004 7.10006 25.9004 7.80006C25.7004 8.20006 25.6004 8.60006 25.7004 9.20006C25.8004 9.80006 26.3004 10.3001 26.7004 10.4001C27.4004 10.7001 27.9004 10.6001 28.8004 10.4001L32.4004 9.60006L28.2004 17.2001C27.5004 18.6001 27.2004 19.0001 27.4004 19.9001C27.5004 20.5001 27.9004 21.1001 28.5004 21.5001C28.9004 21.7001 29.2004 21.8001 29.6004 21.8001C30.0004 21.8001 30.6004 21.7001 31.5004 21.5001L38.7004 19.8001C39.7004 19.6001 40.3004 19.4001 40.7004 18.8001C41.0004 18.4001 41.1004 17.8001 40.9004 17.3001H41.0004Z" fill="url(#paint3_linear_4771_5368)"/>
<path d="M62.4997 4.99975C61.8997 4.09975 61.3997 3.99975 59.5997 3.59975L51.5997 1.79975C50.8997 1.59975 49.7997 1.39975 48.9997 1.89975C48.4997 2.19975 48.1997 2.69975 48.0997 3.29975C47.8997 4.09975 48.0997 4.79975 48.4997 5.09975C49.0997 5.79975 49.6997 5.89975 50.7997 6.19975L55.0997 7.09975L46.6997 13.1997C45.1997 14.2997 44.6998 14.6997 44.3998 15.6997C44.1998 16.4997 44.3997 17.2997 44.7997 17.9997C45.3997 18.9997 45.9997 19.0997 48.0997 19.4997L56.6997 21.3997C57.3997 21.4997 57.8998 21.6997 58.3998 21.6997C58.8998 21.6997 59.0998 21.6997 59.3998 21.3997C59.8998 21.0997 60.2997 20.5997 60.3997 19.9997C60.5998 19.1997 60.2997 18.5997 60.0997 18.2997C59.5997 17.5997 58.8997 17.3997 57.6997 17.0997L51.8998 15.7997L60.7997 9.29975C62.0997 8.39975 62.5998 7.99975 62.8997 6.99975C63.0998 6.29975 62.8997 5.59975 62.4997 4.99975Z" fill="url(#paint4_linear_4771_5368)"/>
</g>
<defs>
<linearGradient id="paint0_linear_4771_5368" x1="32" y1="64" x2="32" y2="0" gradientUnits="userSpaceOnUse">
<stop stop-color="#F8A40D"/>
<stop offset="0.3" stop-color="#FBB807"/>
<stop offset="0.4" stop-color="#FDC703"/>
<stop offset="0.6" stop-color="#FECF00"/>
<stop offset="1" stop-color="#FFD200"/>
</linearGradient>
<linearGradient id="paint1_linear_4771_5368" x1="31.9996" y1="54.7996" x2="31.9996" y2="44.0996" gradientUnits="userSpaceOnUse">
<stop stop-color="#883A12"/>
<stop offset="1" stop-color="#5A2A13"/>
</linearGradient>
<linearGradient id="paint2_linear_4771_5368" x1="20.0998" y1="19.5" x2="61.3998" y2="4.5" gradientUnits="userSpaceOnUse">
<stop stop-color="#5239ED"/>
<stop offset="0.2" stop-color="#525CED"/>
<stop offset="0.4" stop-color="#5292ED"/>
<stop offset="0.7" stop-color="#52B9ED"/>
<stop offset="0.9" stop-color="#52D2ED"/>
<stop offset="1" stop-color="#52DBED"/>
</linearGradient>
<linearGradient id="paint3_linear_4771_5368" x1="19.6004" y1="18.2001" x2="60.9004" y2="3.30006" gradientUnits="userSpaceOnUse">
<stop stop-color="#5239ED"/>
<stop offset="0.2" stop-color="#525CED"/>
<stop offset="0.4" stop-color="#5292ED"/>
<stop offset="0.7" stop-color="#52B9ED"/>
<stop offset="0.9" stop-color="#52D2ED"/>
<stop offset="1" stop-color="#52DBED"/>
</linearGradient>
<linearGradient id="paint4_linear_4771_5368" x1="21.4997" y1="23.4997" x2="62.7998" y2="8.49975" gradientUnits="userSpaceOnUse">
<stop stop-color="#5239ED"/>
<stop offset="0.2" stop-color="#525CED"/>
<stop offset="0.4" stop-color="#5292ED"/>
<stop offset="0.7" stop-color="#52B9ED"/>
<stop offset="0.9" stop-color="#52D2ED"/>
<stop offset="1" stop-color="#52DBED"/>
</linearGradient>
<clipPath id="clip0_4771_5368">
<rect width="64" height="64" fill="white"/>
</clipPath>
</defs>
</svg>
