<svg width="64" height="64" viewBox="0 0 64 64" fill="none" xmlns="http://www.w3.org/2000/svg">
<g clip-path="url(#clip0_4826_2736)">
<path d="M36.95 0H27.05C12.1107 0 0 12.1107 0 27.05V36.95C0 51.8893 12.1107 64 27.05 64H36.95C51.8893 64 64 51.8893 64 36.95V27.05C64 12.1107 51.8893 0 36.95 0Z" fill="url(#paint0_linear_4826_2736)"/>
<path d="M13.0205 51.2499C19.67 51.2499 25.0605 45.8594 25.0605 39.2099C25.0605 32.5604 19.67 27.1699 13.0205 27.1699C6.37096 27.1699 0.980469 32.5604 0.980469 39.2099C0.980469 45.8594 6.37096 51.2499 13.0205 51.2499Z" fill="url(#paint1_radial_4826_2736)"/>
<path d="M50.8213 51.2499C57.4708 51.2499 62.8613 45.8594 62.8613 39.2099C62.8613 32.5604 57.4708 27.1699 50.8213 27.1699C44.1717 27.1699 38.7812 32.5604 38.7812 39.2099C38.7812 45.8594 44.1717 51.2499 50.8213 51.2499Z" fill="url(#paint2_radial_4826_2736)"/>
<path d="M20.5202 29.4301C22.7459 29.4301 24.5502 27.6258 24.5502 25.4001C24.5502 23.1744 22.7459 21.3701 20.5202 21.3701C18.2945 21.3701 16.4902 23.1744 16.4902 25.4001C16.4902 27.6258 18.2945 29.4301 20.5202 29.4301Z" fill="#FFB806"/>
<path d="M43.4812 29.4301C45.7069 29.4301 47.5112 27.6258 47.5112 25.4001C47.5112 23.1744 45.7069 21.3701 43.4812 21.3701C41.2555 21.3701 39.4512 23.1744 39.4512 25.4001C39.4512 27.6258 41.2555 29.4301 43.4812 29.4301Z" fill="#FFB806"/>
<path d="M20.5202 29.85C22.7459 29.85 24.5502 28.0457 24.5502 25.82C24.5502 23.5943 22.7459 21.79 20.5202 21.79C18.2945 21.79 16.4902 23.5943 16.4902 25.82C16.4902 28.0457 18.2945 29.85 20.5202 29.85Z" fill="#F3B514"/>
<path d="M43.4792 29.85C45.7049 29.85 47.5092 28.0457 47.5092 25.82C47.5092 23.5943 45.7049 21.79 43.4792 21.79C41.2535 21.79 39.4492 23.5943 39.4492 25.82C39.4492 28.0457 41.2535 29.85 43.4792 29.85Z" fill="#F3B514"/>
<path d="M20.5202 29.0698C22.7459 29.0698 24.5502 27.2655 24.5502 25.0398C24.5502 22.8141 22.7459 21.0098 20.5202 21.0098C18.2945 21.0098 16.4902 22.8141 16.4902 25.0398C16.4902 27.2655 18.2945 29.0698 20.5202 29.0698Z" fill="#5A2A13"/>
<path d="M43.4792 29.0698C45.7049 29.0698 47.5092 27.2655 47.5092 25.0398C47.5092 22.8141 45.7049 21.0098 43.4792 21.0098C41.2535 21.0098 39.4492 22.8141 39.4492 25.0398C39.4492 27.2655 41.2535 29.0698 43.4792 29.0698Z" fill="#5A2A13"/>
<path d="M32.0005 49.7396C38.1805 49.7396 43.5005 45.8596 45.8105 40.3196C47.0405 37.3796 45.0005 34.0996 41.9405 34.0996H22.0705C19.0605 34.0996 16.9705 37.2996 18.1405 40.1896C20.4205 45.7996 25.7705 49.7396 32.0105 49.7396H32.0005Z" fill="#F7CB2B"/>
<mask id="mask0_4826_2736" style="mask-type:luminance" maskUnits="userSpaceOnUse" x="17" y="34" width="30" height="16">
<path d="M32.0005 49.0796C38.1805 49.0796 43.5005 45.3696 45.8105 40.0596C47.0405 37.2496 45.0005 34.0996 41.9405 34.0996H22.0705C19.0605 34.0996 16.9705 37.1596 18.1405 39.9296C20.4205 45.3096 25.7705 49.0796 32.0105 49.0796H32.0005Z" fill="white"/>
</mask>
<g mask="url(#mask0_4826_2736)">
<path d="M32.0005 49.0796C38.1805 49.0796 43.5005 45.3696 45.8105 40.0596C47.0405 37.2496 45.0005 34.0996 41.9405 34.0996H22.0705C19.0605 34.0996 16.9705 37.1596 18.1405 39.9296C20.4205 45.3096 25.7705 49.0796 32.0105 49.0796H32.0005Z" fill="url(#paint3_linear_4826_2736)"/>
<path d="M31.9995 58.6295C38.3398 58.6295 43.4795 55.294 43.4795 51.1795C43.4795 47.065 38.3398 43.7295 31.9995 43.7295C25.6593 43.7295 20.5195 47.065 20.5195 51.1795C20.5195 55.294 25.6593 58.6295 31.9995 58.6295Z" fill="#D8531B"/>
</g>
</g>
<defs>
<linearGradient id="paint0_linear_4826_2736" x1="32" y1="64" x2="32" y2="0" gradientUnits="userSpaceOnUse">
<stop stop-color="#F69412"/>
<stop offset="0.1" stop-color="#F8A40D"/>
<stop offset="0.25" stop-color="#FBB807"/>
<stop offset="0.43" stop-color="#FDC703"/>
<stop offset="0.64" stop-color="#FECF00"/>
<stop offset="1" stop-color="#FFD200"/>
</linearGradient>
<radialGradient id="paint1_radial_4826_2736" cx="0" cy="0" r="1" gradientUnits="userSpaceOnUse" gradientTransform="translate(13.0205 39.2099) scale(12.04)">
<stop stop-color="#F68612"/>
<stop offset="0.12" stop-color="#F68711" stop-opacity="0.98"/>
<stop offset="0.24" stop-color="#F68B10" stop-opacity="0.93"/>
<stop offset="0.37" stop-color="#F7920F" stop-opacity="0.84"/>
<stop offset="0.51" stop-color="#F89B0C" stop-opacity="0.72"/>
<stop offset="0.65" stop-color="#F9A70A" stop-opacity="0.56"/>
<stop offset="0.79" stop-color="#FBB606" stop-opacity="0.36"/>
<stop offset="0.93" stop-color="#FDC702" stop-opacity="0.13"/>
<stop offset="1" stop-color="#FFD200" stop-opacity="0"/>
</radialGradient>
<radialGradient id="paint2_radial_4826_2736" cx="0" cy="0" r="1" gradientUnits="userSpaceOnUse" gradientTransform="translate(50.8213 39.2099) rotate(180) scale(0.5)">
<stop stop-color="#F68612"/>
<stop offset="0.12" stop-color="#F68711" stop-opacity="0.98"/>
<stop offset="0.24" stop-color="#F68B10" stop-opacity="0.93"/>
<stop offset="0.37" stop-color="#F7920F" stop-opacity="0.84"/>
<stop offset="0.51" stop-color="#F89B0C" stop-opacity="0.72"/>
<stop offset="0.65" stop-color="#F9A70A" stop-opacity="0.56"/>
<stop offset="0.79" stop-color="#FBB606" stop-opacity="0.36"/>
<stop offset="0.93" stop-color="#FDC702" stop-opacity="0.13"/>
<stop offset="1" stop-color="#FFD200" stop-opacity="0"/>
</radialGradient>
<linearGradient id="paint3_linear_4826_2736" x1="31.9905" y1="49.0796" x2="31.9905" y2="34.0996" gradientUnits="userSpaceOnUse">
<stop stop-color="#5A2A13"/>
<stop offset="1" stop-color="#883A12"/>
</linearGradient>
<clipPath id="clip0_4826_2736">
<rect width="64" height="64" fill="white"/>
</clipPath>
</defs>
</svg>
