<svg width="64" height="64" viewBox="0 0 64 64" fill="none" xmlns="http://www.w3.org/2000/svg">
<g clip-path="url(#clip0_4771_5700)">
<path d="M36.9 0H27.1C12.1331 0 0 12.1331 0 27.1V36.9C0 51.8669 12.1331 64 27.1 64H36.9C51.8669 64 64 51.8669 64 36.9V27.1C64 12.1331 51.8669 0 36.9 0Z" fill="url(#paint0_linear_4771_5700)"/>
<path d="M36.9 0H27.1C12.1331 0 0 12.1331 0 27.1V36.9C0 51.8669 12.1331 64 27.1 64H36.9C51.8669 64 64 51.8669 64 36.9V27.1C64 12.1331 51.8669 0 36.9 0Z" fill="url(#paint1_linear_4771_5700)"/>
<path d="M13.0996 50.7002C19.727 50.7002 25.0996 45.3276 25.0996 38.7002C25.0996 32.0728 19.727 26.7002 13.0996 26.7002C6.47219 26.7002 1.09961 32.0728 1.09961 38.7002C1.09961 45.3276 6.47219 50.7002 13.0996 50.7002Z" fill="url(#paint2_radial_4771_5700)"/>
<path d="M50.9004 50.7002C57.5278 50.7002 62.9004 45.3276 62.9004 38.7002C62.9004 32.0728 57.5278 26.7002 50.9004 26.7002C44.273 26.7002 38.9004 32.0728 38.9004 38.7002C38.9004 45.3276 44.273 50.7002 50.9004 50.7002Z" fill="url(#paint3_radial_4771_5700)"/>
<path d="M13.1001 33.8995C12.7001 33.8995 12.3001 33.6995 12.0001 33.3995C11.4001 32.7995 11.4001 31.7995 12.0001 31.1995C12.2001 30.9995 15.3001 28.0995 19.7001 26.9995C17.9001 26.1995 15.5001 25.3995 12.4001 24.9995C11.5001 24.8995 10.9001 24.0995 11.0001 23.2995C11.1001 22.3995 11.9001 21.7995 12.7001 21.8995C21.1001 22.8995 25.5001 26.9995 25.7001 27.1995C26.2001 27.6995 26.3001 28.3995 26.0001 28.9995C25.7001 29.5995 25.0001 29.9995 24.3001 29.8995C18.8001 28.9995 14.0001 33.4995 14.0001 33.5995C13.7001 33.8995 13.3001 33.9995 12.9001 33.9995L13.1001 33.8995Z" fill="#F0AA17"/>
<path d="M13.1001 33.0997C12.7001 33.0997 12.3001 32.8997 12.0001 32.5997C11.4001 31.9997 11.4001 30.9997 12.0001 30.3997C12.2001 30.1997 15.3001 27.2997 19.7001 26.1997C17.9001 25.3997 15.5001 24.5997 12.4001 24.1997C11.5001 24.0997 10.9001 23.2997 11.0001 22.4997C11.1001 21.5997 11.9001 20.9997 12.7001 21.0997C21.1001 22.0997 25.5001 26.1997 25.7001 26.3997C26.2001 26.8997 26.3001 27.5997 26.0001 28.1997C25.7001 28.7997 25.0001 29.1997 24.3001 29.0997C18.8001 28.1997 14.0001 32.6997 14.0001 32.7997C13.7001 33.0997 13.3001 33.1997 12.9001 33.1997L13.1001 33.0997Z" fill="#5A2A13"/>
<path d="M50.8996 33.8999C50.4996 33.8999 50.0996 33.7999 49.7996 33.4999C49.7996 33.4999 44.8996 28.9999 39.4996 29.7999C38.7996 29.8999 38.0996 29.5999 37.7996 28.8999C37.4996 28.2999 37.5996 27.4999 38.0996 27.0999C38.2996 26.8999 42.6996 22.8999 51.0996 21.7999C51.9996 21.6999 52.6996 22.2999 52.7996 23.1999C52.8996 24.0999 52.2996 24.7999 51.3996 24.8999C48.3996 25.2999 45.9996 26.0999 44.0996 26.8999C48.4996 27.9999 51.6996 30.8999 51.7996 31.0999C52.3996 31.6999 52.4996 32.6999 51.7996 33.2999C51.4996 33.5999 51.0996 33.7999 50.6996 33.7999L50.8996 33.8999Z" fill="#F0AA17"/>
<path d="M50.8996 33.1001C50.4996 33.1001 50.0996 33.0001 49.7996 32.7001C49.7996 32.7001 44.8996 28.2001 39.4996 29.0001C38.7996 29.1001 38.0996 28.8001 37.7996 28.1001C37.4996 27.5001 37.5996 26.7001 38.0996 26.3001C38.2996 26.1001 42.6996 22.1001 51.0996 21.0001C51.9996 20.9001 52.6996 21.5001 52.7996 22.4001C52.8996 23.3001 52.2996 24.0001 51.3996 24.1001C48.3996 24.5001 45.9996 25.3001 44.0996 26.1001C48.4996 27.2001 51.6996 30.1001 51.7996 30.3001C52.3996 30.9001 52.4996 31.9001 51.7996 32.5001C51.4996 32.8001 51.0996 33.0001 50.6996 33.0001L50.8996 33.1001Z" fill="#5A2A13"/>
<path d="M24.6996 48.6004C24.3996 48.6004 24.0996 48.6004 23.7996 48.3004C23.0996 47.8004 22.8996 46.9004 23.2996 46.1004C24.7996 43.8004 28.1996 42.4004 32.0996 42.4004C35.9996 42.4004 39.3996 43.9004 40.8996 46.1004C41.3996 46.8004 41.1996 47.8004 40.3996 48.3004C39.6996 48.8004 38.6996 48.6004 38.1996 47.8004C37.4996 46.7004 35.1996 45.5004 32.0996 45.5004C28.9996 45.5004 26.6996 46.7004 25.9996 47.8004C25.6996 48.3004 25.1996 48.5004 24.6996 48.5004V48.6004Z" fill="#F0AA17"/>
<path d="M39.6002 47.8002C39.1002 47.8002 38.6002 47.5002 38.3002 47.1002C37.6002 46.0002 35.3002 44.8002 32.2002 44.8002C29.1002 44.8002 26.8002 46.0002 26.1002 47.1002C25.6002 47.8002 24.6002 48.0002 23.9002 47.6002C23.2002 47.1002 23.0002 46.2002 23.4002 45.4002C24.9002 43.1002 28.3002 41.7002 32.2002 41.7002C36.1002 41.7002 39.5002 43.2002 41.0002 45.4002C41.5002 46.1002 41.3002 47.1002 40.5002 47.6002C40.2002 47.8002 39.9002 47.9002 39.6002 47.9002V47.8002Z" fill="#5A2A13"/>
<path opacity="0.5" d="M34.1998 38.4001C33.9998 32.9001 28.5998 37.6001 28.5998 37.6001C20.8998 42.5001 14.5998 42.0001 14.5998 42.0001C5.79978 42.2001 10.5998 45.6001 10.6998 47.5001C10.8998 49.3001 8.69978 49.2001 6.69978 49.5001C4.69978 49.8001 5.69978 52.6001 8.39978 55.4001C11.0998 58.2001 16.8998 56.7001 18.1998 57.8001C19.4998 59.0001 18.1998 60.7001 18.7998 61.5001C19.3998 62.4001 26.1998 59.5001 29.8998 54.9001C33.5998 50.2001 34.2998 43.9001 34.0998 38.4001H34.1998Z" fill="url(#paint4_linear_4771_5700)" style="mix-blend-mode:multiply"/>
<path d="M14.6997 40.0001C14.6997 40.0001 20.9997 40.5001 28.6997 35.6001C28.6997 35.6001 34.0997 30.9001 34.2997 36.4001C34.4997 41.9001 33.7997 48.3001 30.0997 52.9001C26.3997 57.5001 19.4997 60.4001 18.9997 59.5001C18.4997 58.6001 19.6997 56.9001 18.3997 55.8001C17.0997 54.6001 11.2997 56.2001 8.59972 53.4001C5.89972 50.6001 4.99972 47.8001 6.89972 47.5001C8.79972 47.2001 11.0997 47.4001 10.8997 45.5001C10.6997 43.7001 5.89972 40.2001 14.7997 40.0001H14.6997Z" fill="white"/>
<path d="M17.6997 53.2998C17.6997 53.2998 24.7997 50.5998 28.5997 44.5998C32.3997 38.5998 32.1997 41.6998 32.0997 43.0998C31.9997 44.4998 29.8997 51.9998 24.8997 55.2998C19.8997 58.5998 19.8997 58.5998 20.2997 54.6998C20.2997 54.6998 20.5997 53.6998 19.2997 53.9998C17.9997 54.2998 15.5997 53.9998 17.6997 53.2998Z" fill="url(#paint5_linear_4771_5700)"/>
<path d="M12.2993 46.8998C12.2993 46.8998 25.0993 42.0998 28.0993 39.6998C30.4993 37.7998 31.0993 37.8998 30.2993 39.1998C29.4993 40.4998 23.7993 47.7998 20.1993 49.6998C16.5993 51.6998 12.0993 53.0998 10.8993 50.8998C9.79928 48.6998 11.1993 47.2998 12.2993 46.8998Z" fill="url(#paint6_linear_4771_5700)"/>
<path d="M17.5002 40.9997C17.5002 40.9997 25.2002 39.2997 26.5002 38.1997C27.8002 37.1997 28.1002 38.3997 25.2002 39.5997C22.3002 40.7997 21.2002 42.0997 18.1002 42.9997C15.0002 43.8997 12.8002 46.8997 12.2002 45.2997C11.6002 43.6997 9.6002 42.3997 11.0002 41.9997C12.4002 41.5997 16.2002 41.4997 17.4002 41.0997L17.5002 40.9997Z" fill="url(#paint7_linear_4771_5700)"/>
</g>
<defs>
<linearGradient id="paint0_linear_4771_5700" x1="32" y1="64" x2="32" y2="0" gradientUnits="userSpaceOnUse">
<stop stop-color="#FFD200"/>
<stop offset="0.3" stop-color="#FECF00"/>
<stop offset="0.4" stop-color="#FEC700"/>
<stop offset="0.5" stop-color="#FDB902"/>
<stop offset="0.6" stop-color="#FCA504"/>
<stop offset="0.7" stop-color="#FB8B06"/>
<stop offset="0.8" stop-color="#FA6C09"/>
<stop offset="0.9" stop-color="#F8460C"/>
<stop offset="1" stop-color="#F60B12"/>
</linearGradient>
<linearGradient id="paint1_linear_4771_5700" x1="32" y1="64" x2="32" y2="0" gradientUnits="userSpaceOnUse">
<stop stop-color="#F8A40D"/>
<stop offset="0.3" stop-color="#FBB807"/>
<stop offset="0.4" stop-color="#FDC703"/>
<stop offset="0.6" stop-color="#FECF00"/>
<stop offset="1" stop-color="#FFD200"/>
</linearGradient>
<radialGradient id="paint2_radial_4771_5700" cx="0" cy="0" r="1" gradientUnits="userSpaceOnUse" gradientTransform="translate(13.0996 38.7002) scale(12)">
<stop stop-color="#F68612"/>
<stop offset="0.2" stop-color="#F68811"/>
<stop offset="0.4" stop-color="#F7910F" stop-opacity="0.9"/>
<stop offset="0.6" stop-color="#F89F0C" stop-opacity="0.8"/>
<stop offset="0.8" stop-color="#FBB207" stop-opacity="0.7"/>
<stop offset="1" stop-color="#FFD200" stop-opacity="0.5"/>
</radialGradient>
<radialGradient id="paint3_radial_4771_5700" cx="0" cy="0" r="1" gradientUnits="userSpaceOnUse" gradientTransform="translate(50.9004 0.500195) rotate(-180) scale(12)">
<stop stop-color="#F68612"/>
<stop offset="0.2" stop-color="#F68811"/>
<stop offset="0.4" stop-color="#F7910F" stop-opacity="0.9"/>
<stop offset="0.6" stop-color="#F89F0C" stop-opacity="0.8"/>
<stop offset="0.8" stop-color="#FBB207" stop-opacity="0.7"/>
<stop offset="1" stop-color="#FFD200" stop-opacity="0.5"/>
</radialGradient>
<linearGradient id="paint4_linear_4771_5700" x1="19.9998" y1="40.0001" x2="19.9998" y2="60.6001" gradientUnits="userSpaceOnUse">
<stop stop-color="#ED9D1A"/>
<stop offset="0.2" stop-color="#EFA915"/>
<stop offset="0.7" stop-color="#F4BF0E"/>
<stop offset="1" stop-color="#F6C80C"/>
</linearGradient>
<linearGradient id="paint5_linear_4771_5700" x1="32.7997" y1="45.1998" x2="17.7997" y2="54.7998" gradientUnits="userSpaceOnUse">
<stop stop-color="#EAEAEA"/>
<stop offset="1" stop-color="white"/>
</linearGradient>
<linearGradient id="paint6_linear_4771_5700" x1="29.3993" y1="39.8998" x2="14.3993" y2="49.4998" gradientUnits="userSpaceOnUse">
<stop stop-color="#EAEAEA"/>
<stop offset="1" stop-color="white"/>
</linearGradient>
<linearGradient id="paint7_linear_4771_5700" x1="26.5002" y1="35.4997" x2="11.6002" y2="45.0997" gradientUnits="userSpaceOnUse">
<stop stop-color="#EAEAEA"/>
<stop offset="1" stop-color="white"/>
</linearGradient>
<clipPath id="clip0_4771_5700">
<rect width="64" height="64" fill="white"/>
</clipPath>
</defs>
</svg>
