<svg width="64" height="64" viewBox="0 0 64 64" fill="none" xmlns="http://www.w3.org/2000/svg">
<g clip-path="url(#clip0_4771_5355)">
<path d="M36.9 0H27.1C12.1331 0 0 12.1331 0 27.1V36.9C0 51.8669 12.1331 64 27.1 64H36.9C51.8669 64 64 51.8669 64 36.9V27.1C64 12.1331 51.8669 0 36.9 0Z" fill="url(#paint0_linear_4771_5355)"/>
<path d="M36.9 0H27.1C12.1331 0 0 12.1331 0 27.1V36.9C0 51.8669 12.1331 64 27.1 64H36.9C51.8669 64 64 51.8669 64 36.9V27.1C64 12.1331 51.8669 0 36.9 0Z" fill="url(#paint1_linear_4771_5355)"/>
<path d="M11.3002 37.1998C10.9002 37.1998 10.6002 37.0998 10.3002 36.7998C8.0002 34.4998 6.7002 31.3998 6.7002 28.0998C6.7002 24.7998 8.0002 21.6998 10.3002 19.3998C14.6002 15.0998 21.5002 15.0998 25.8002 19.3998C29.6002 23.1998 29.6002 29.4998 25.8002 33.2998C22.4002 36.6998 16.8002 36.6998 13.3002 33.2998C10.2002 30.1998 10.2002 25.1998 13.3002 22.0998C14.7002 20.6998 16.2002 19.9998 17.8002 19.9998C19.4002 19.9998 20.9002 20.7998 22.3002 22.0998C23.8002 23.5998 26.3002 26.0998 23.1002 29.2998C22.1002 30.2998 21.4002 30.9998 20.4002 31.2998C18.8002 31.7998 17.6002 30.7998 16.8002 29.9998C15.9002 29.0998 15.5002 28.2998 15.5002 27.2998C15.5002 25.8998 16.5002 24.9998 17.1002 24.5998C17.7002 24.0998 18.6002 24.0998 19.1002 24.6998C19.6002 25.2998 19.6002 26.1998 19.0002 26.6998C18.5002 27.0998 18.4002 27.2998 18.4002 27.3998C18.4002 27.3998 18.4002 27.5998 18.8002 27.8998C19.3002 28.3998 19.5002 28.3998 19.5002 28.3998C19.7002 28.3998 20.4002 27.5998 21.0002 27.0998C22.0002 26.0998 22.2002 25.8998 20.2002 23.9998C18.5002 22.2998 16.9002 22.2998 15.3002 23.9998C13.3002 25.9998 13.3002 29.0998 15.3002 31.0998C17.6002 33.3998 21.4002 33.3998 23.7002 31.0998C26.4002 28.3998 26.4002 23.9998 23.7002 21.2998C20.6002 18.1998 15.4002 18.1998 12.3002 21.2998C8.6002 24.9998 8.6002 30.8998 12.3002 34.5998C16.0002 38.2998 12.9002 36.0998 12.3002 36.6998C11.7002 37.2998 11.6002 37.0998 11.3002 37.0998V37.1998Z" fill="#F0AA17"/>
<path d="M45.9998 37.2004C43.0998 37.2004 40.2998 36.1004 38.1998 34.0004C36.2998 32.1004 35.2998 29.7004 35.2998 27.1004C35.2998 24.5004 36.2998 22.0004 38.1998 20.2004C41.5998 16.8004 47.1998 16.8004 50.6998 20.2004C53.7998 23.3004 53.7998 28.3004 50.6998 31.4004C49.2998 32.8004 47.7998 33.5004 46.1998 33.5004C44.5998 33.5004 43.0998 32.7004 41.6998 31.4004C40.2998 30.1004 39.6998 29.3004 39.4998 28.2004C38.9998 26.2004 40.4998 24.7004 40.9998 24.3004C41.9998 23.3004 42.6998 22.6004 43.6998 22.3004C45.2998 21.8004 46.4998 22.8004 47.2998 23.6004C48.1998 24.5004 48.5998 25.3004 48.5998 26.3004C48.5998 27.7004 47.5998 28.6004 46.9998 29.0004C46.3998 29.5004 45.4998 29.5004 44.9998 28.9004C44.4998 28.3004 44.4998 27.4004 45.0998 26.9004C45.5998 26.5004 45.6998 26.3004 45.6998 26.2004C45.6998 26.2004 45.6998 26.0004 45.2998 25.7004C44.7998 25.2004 44.5998 25.2004 44.5998 25.2004C44.3998 25.2004 43.6998 26.0004 43.0998 26.5004C42.2998 27.3004 42.3998 27.6004 42.3998 27.7004C42.4998 28.2004 43.4998 29.2004 43.8998 29.6004C44.6998 30.4004 45.5998 30.9004 46.3998 30.9004C47.1998 30.9004 47.9998 30.5004 48.7998 29.7004C50.7998 27.7004 50.7998 24.6004 48.7998 22.6004C46.4998 20.3004 42.6998 20.3004 40.3998 22.6004C39.0998 23.9004 38.3998 25.6004 38.3998 27.5004C38.3998 29.4004 39.0998 31.1004 40.3998 32.4004C41.8998 33.9004 43.8998 34.8004 46.0998 34.8004C48.2998 34.8004 50.2998 34.0004 51.7998 32.4004C53.5998 30.6004 54.4998 28.3004 54.4998 25.8004C54.4998 23.3004 53.4998 20.9004 51.7998 19.2004C51.1998 18.6004 51.1998 17.7004 51.7998 17.1004C52.3998 16.5004 53.2998 16.5004 53.8998 17.1004C56.1998 19.4004 57.4998 22.5004 57.4998 25.8004C57.4998 29.1004 56.1998 32.2004 53.8998 34.5004C51.5998 36.8004 49.0998 37.7004 46.0998 37.7004L45.9998 37.2004Z" fill="#F0AA17"/>
<path d="M11.3002 36.1998C10.9002 36.1998 10.6002 36.0998 10.3002 35.7998C8.0002 33.4998 6.7002 30.3998 6.7002 27.0998C6.7002 23.7998 8.0002 20.6998 10.3002 18.3998C14.6002 14.0998 21.5002 14.0998 25.8002 18.3998C29.6002 22.1998 29.6002 28.4998 25.8002 32.2998C22.4002 35.6998 16.8002 35.6998 13.3002 32.2998C10.2002 29.1998 10.2002 24.1998 13.3002 21.0998C14.7002 19.6998 16.2002 18.9998 17.8002 18.9998C19.4002 18.9998 20.9002 19.7998 22.3002 21.0998C23.8002 22.5998 26.3002 25.0998 23.1002 28.2998C22.1002 29.2998 21.4002 29.9998 20.4002 30.2998C18.8002 30.7998 17.6002 29.7998 16.8002 28.9998C15.9002 28.0998 15.5002 27.2998 15.5002 26.2998C15.5002 24.8998 16.5002 23.9998 17.1002 23.5998C17.7002 23.0998 18.6002 23.0998 19.1002 23.6998C19.6002 24.2998 19.6002 25.1998 19.0002 25.6998C18.5002 26.0998 18.4002 26.2998 18.4002 26.3998C18.4002 26.3998 18.4002 26.5998 18.8002 26.8998C19.3002 27.3998 19.5002 27.3998 19.5002 27.3998C19.7002 27.3998 20.4002 26.5998 21.0002 26.0998C22.0002 25.0998 22.2002 24.8998 20.2002 22.9998C18.5002 21.2998 16.9002 21.2998 15.3002 22.9998C13.3002 24.9998 13.3002 28.0998 15.3002 30.0998C17.6002 32.3998 21.4002 32.3998 23.7002 30.0998C26.4002 27.3998 26.4002 22.9998 23.7002 20.2998C20.6002 17.1998 15.4002 17.1998 12.3002 20.2998C8.6002 23.9998 8.6002 29.8998 12.3002 33.5998C16.0002 37.2998 12.9002 35.0998 12.3002 35.6998C11.7002 36.2998 11.6002 36.0998 11.3002 36.0998V36.1998Z" fill="#5A2A13"/>
<path d="M45.9998 36.2004C43.0998 36.2004 40.2998 35.1004 38.1998 33.0004C36.2998 31.1004 35.2998 28.7004 35.2998 26.1004C35.2998 23.5004 36.2998 21.0004 38.1998 19.2004C41.5998 15.8004 47.1998 15.8004 50.6998 19.2004C53.7998 22.3004 53.7998 27.3004 50.6998 30.4004C49.2998 31.8004 47.7998 32.5004 46.1998 32.5004C44.5998 32.5004 43.0998 31.7004 41.6998 30.4004C40.2998 29.1004 39.6998 28.3004 39.4998 27.2004C38.9998 25.2004 40.4998 23.7004 40.9998 23.3004C41.9998 22.3004 42.6998 21.6004 43.6998 21.3004C45.2998 20.8004 46.4998 21.8004 47.2998 22.6004C48.1998 23.5004 48.5998 24.3004 48.5998 25.3004C48.5998 26.7004 47.5998 27.6004 46.9998 28.0004C46.3998 28.5004 45.4998 28.5004 44.9998 27.9004C44.4998 27.3004 44.4998 26.4004 45.0998 25.9004C45.5998 25.5004 45.6998 25.3004 45.6998 25.2004C45.6998 25.2004 45.6998 25.0004 45.2998 24.7004C44.7998 24.2004 44.5998 24.2004 44.5998 24.2004C44.3998 24.2004 43.6998 25.0004 43.0998 25.5004C42.2998 26.3004 42.3998 26.6004 42.3998 26.7004C42.4998 27.2004 43.4998 28.2004 43.8998 28.6004C44.6998 29.4004 45.5998 29.9004 46.3998 29.9004C47.1998 29.9004 47.9998 29.5004 48.7998 28.7004C50.7998 26.7004 50.7998 23.6004 48.7998 21.6004C46.4998 19.3004 42.6998 19.3004 40.3998 21.6004C39.0998 22.9004 38.3998 24.6004 38.3998 26.5004C38.3998 28.4004 39.0998 30.1004 40.3998 31.4004C41.8998 32.9004 43.8998 33.8004 46.0998 33.8004C48.2998 33.8004 50.2998 33.0004 51.7998 31.4004C53.5998 29.6004 54.4998 27.3004 54.4998 24.8004C54.4998 22.3004 53.4998 19.9004 51.7998 18.2004C51.1998 17.6004 51.1998 16.7004 51.7998 16.1004C52.3998 15.5004 53.2998 15.5004 53.8998 16.1004C56.1998 18.4004 57.4998 21.5004 57.4998 24.8004C57.4998 28.1004 56.1998 31.2004 53.8998 33.5004C51.5998 35.8004 49.0998 36.7004 46.0998 36.7004L45.9998 36.2004Z" fill="#5A2A13"/>
<path d="M48.2 49.7996C47.9 49.7996 47.5 49.6996 47.3 49.4996L42.7 45.9996C42.2 45.5996 41.5 45.5996 41 45.9996L38.2 48.0996C36.6 49.2996 34.3 49.2996 32.7 48.0996L29.9 45.9996C29.4 45.5996 28.7 45.5996 28.2 45.9996L25.4 48.0996C23.8 49.2996 21.5 49.2996 19.9 48.0996L15.3 44.5996C14.6 44.0996 14.5 43.0996 15 42.3996C15.5 41.6996 16.5 41.5996 17.2 42.0996L21.8 45.5996C22.3 45.9996 23 45.9996 23.5 45.5996L26.3 43.4996C27.9 42.2996 30.2 42.2996 31.8 43.4996L34.6 45.5996C35.1 45.9996 35.8 45.9996 36.3 45.5996L39.1 43.4996C40.7 42.2996 43 42.2996 44.6 43.4996L49.2 46.9996C49.9 47.4996 50 48.4996 49.5 49.1996C49.2 49.5996 48.7 49.7996 48.2 49.7996Z" fill="#F3B514"/>
<path d="M48.2 51.4998C47.9 51.4998 47.5 51.3998 47.3 51.1998L42.7 47.6998C42.2 47.2998 41.5 47.2998 41 47.6998L38.2 49.7998C36.6 50.9998 34.3 50.9998 32.7 49.7998L29.9 47.6998C29.4 47.2998 28.7 47.2998 28.2 47.6998L25.4 49.7998C23.8 50.9998 21.5 50.9998 19.9 49.7998L15.3 46.2998C14.6 45.7998 14.5 44.7998 15 44.0998C15.5 43.3998 16.5 43.2998 17.2 43.7998L21.8 47.2998C22.3 47.6998 23 47.6998 23.5 47.2998L26.3 45.1998C27.9 43.9998 30.2 43.9998 31.8 45.1998L34.6 47.2998C35.1 47.6998 35.8 47.6998 36.3 47.2998L39.1 45.1998C40.7 43.9998 43 43.9998 44.6 45.1998L49.2 48.6998C49.9 49.1998 50 50.1998 49.5 50.8998C49.2 51.2998 48.7 51.4998 48.2 51.4998Z" fill="#F7CB2B"/>
<path d="M48.2 50.7C47.9 50.7 47.5 50.6 47.3 50.4L42.7 46.9C42.2 46.5 41.5 46.5 41 46.9L38.2 49C36.6 50.2 34.3 50.2 32.7 49L29.9 46.9C29.4 46.5 28.7 46.5 28.2 46.9L25.4 49C23.8 50.2 21.5 50.2 19.9 49L15.3 45.5C14.6 45 14.5 44 15 43.3C15.5 42.6 16.5 42.5 17.2 43L21.8 46.5C22.3 46.9 23 46.9 23.5 46.5L26.3 44.4C27.9 43.2 30.2 43.2 31.8 44.4L34.6 46.5C35.1 46.9 35.8 46.9 36.3 46.5L39.1 44.4C40.7 43.2 43 43.2 44.6 44.4L49.2 47.9C49.9 48.4 50 49.4 49.5 50.1C49.2 50.5 48.7 50.7 48.2 50.7Z" fill="#5A2A13"/>
</g>
<defs>
<linearGradient id="paint0_linear_4771_5355" x1="32" y1="64" x2="32" y2="0" gradientUnits="userSpaceOnUse">
<stop stop-color="#F8A40D"/>
<stop offset="0.3" stop-color="#FBB807"/>
<stop offset="0.4" stop-color="#FDC703"/>
<stop offset="0.6" stop-color="#FECF00"/>
<stop offset="1" stop-color="#FFD200"/>
</linearGradient>
<linearGradient id="paint1_linear_4771_5355" x1="32" y1="64" x2="32" y2="0" gradientUnits="userSpaceOnUse">
<stop stop-color="#F8A40D"/>
<stop offset="0.3" stop-color="#FBB807"/>
<stop offset="0.4" stop-color="#FDC703"/>
<stop offset="0.6" stop-color="#FECF00"/>
<stop offset="1" stop-color="#FFD200"/>
</linearGradient>
<clipPath id="clip0_4771_5355">
<rect width="64" height="64" fill="white"/>
</clipPath>
</defs>
</svg>
