<svg width="64" height="64" viewBox="0 0 64 64" fill="none" xmlns="http://www.w3.org/2000/svg">
<g clip-path="url(#clip0_4771_5340)">
<path d="M36.9 0H27.1C12.1331 0 0 12.1331 0 27.1V36.9C0 51.8669 12.1331 64 27.1 64H36.9C51.8669 64 64 51.8669 64 36.9V27.1C64 12.1331 51.8669 0 36.9 0Z" fill="url(#paint0_linear_4771_5340)"/>
<path d="M16.0997 5.20028L20.5997 11.4003C20.7997 11.7003 21.1997 11.9003 21.5997 11.9003L29.1997 11.7003C30.1997 11.7003 30.7997 12.8003 30.1997 13.7003L25.6997 19.9003C25.4997 20.2003 25.3997 20.7003 25.4997 21.0003L27.9997 28.2003C28.2997 29.2003 27.3997 30.1003 26.3997 29.8003L19.0997 27.4003C18.6997 27.3003 18.2997 27.4003 17.9997 27.6003L11.8997 32.2003C11.0997 32.8003 9.89974 32.2003 9.89974 31.2003V23.6003C9.89974 23.2003 9.69974 22.8003 9.39974 22.6003L3.09974 18.3003C2.29974 17.7003 2.39974 16.4003 3.39974 16.1003L10.6997 13.8003C11.0997 13.7003 11.3997 13.4003 11.4997 13.0003L13.6997 5.70028C13.9997 4.70028 15.2997 4.50028 15.8997 5.30028L16.0997 5.20028Z" fill="#F3B514"/>
<path d="M47.8999 5.20028L43.3999 11.4003C43.1999 11.7003 42.7999 11.9003 42.3999 11.9003L34.7999 11.7003C33.7999 11.7003 33.1999 12.8003 33.7999 13.7003L38.2999 19.9003C38.4999 20.2003 38.5999 20.7003 38.4999 21.0003L35.9999 28.2003C35.6999 29.2003 36.5999 30.1003 37.5999 29.8003L44.8999 27.4003C45.2999 27.3003 45.6999 27.4003 45.9999 27.6003L52.0999 32.2003C52.8999 32.8003 54.0999 32.2003 54.0999 31.2003V23.6003C54.0999 23.2003 54.2999 22.8003 54.5999 22.6003L60.8999 18.3003C61.6999 17.7003 61.5999 16.4003 60.5999 16.1003L53.2999 13.8003C52.8999 13.7003 52.5999 13.4003 52.4999 13.0003L50.2999 5.70028C49.9999 4.70028 48.6999 4.50028 48.0999 5.30028L47.8999 5.20028Z" fill="#F3B514"/>
<path d="M16.0997 4.29989L20.5997 10.4999C20.7997 10.7999 21.1997 10.9999 21.5997 10.9999L29.1997 10.7999C30.1997 10.7999 30.7997 11.8999 30.1997 12.7999L25.6997 18.9999C25.4997 19.2999 25.3997 19.7999 25.4997 20.0999L27.9997 27.2999C28.2997 28.2999 27.3997 29.1999 26.3997 28.8999L19.0997 26.4999C18.6997 26.3999 18.2997 26.4999 17.9997 26.6999L11.8997 31.2999C11.0997 31.8999 9.89974 31.2999 9.89974 30.2999V22.6999C9.89974 22.2999 9.69974 21.8999 9.39974 21.6999L3.09974 17.3999C2.29974 16.7999 2.39974 15.4999 3.39974 15.1999L10.6997 12.8999C11.0997 12.7999 11.3997 12.4999 11.4997 12.0999L13.6997 4.79989C13.9997 3.79989 15.2997 3.59989 15.8997 4.39989L16.0997 4.29989Z" fill="url(#paint1_linear_4771_5340)"/>
<path d="M47.8999 4.29989L43.3999 10.4999C43.1999 10.7999 42.7999 10.9999 42.3999 10.9999L34.7999 10.7999C33.7999 10.7999 33.1999 11.8999 33.7999 12.7999L38.2999 18.9999C38.4999 19.2999 38.5999 19.7999 38.4999 20.0999L35.9999 27.2999C35.6999 28.2999 36.5999 29.1999 37.5999 28.8999L44.8999 26.4999C45.2999 26.3999 45.6999 26.4999 45.9999 26.6999L52.0999 31.2999C52.8999 31.8999 54.0999 31.2999 54.0999 30.2999V22.6999C54.0999 22.2999 54.2999 21.8999 54.5999 21.6999L60.8999 17.3999C61.6999 16.7999 61.5999 15.4999 60.5999 15.1999L53.2999 12.8999C52.8999 12.7999 52.5999 12.4999 52.4999 12.0999L50.2999 4.79989C49.9999 3.79989 48.6999 3.59989 48.0999 4.39989L47.8999 4.29989Z" fill="url(#paint2_linear_4771_5340)"/>
<path d="M31.9996 54.6998C41.6996 54.6998 49.7996 47.6998 51.3996 38.4998C52.9996 29.2998 50.2996 35.0998 48.4996 35.0998H15.3996C13.5996 35.0998 12.1996 36.6998 12.4996 38.4998C14.0996 47.6998 22.1996 54.7998 31.9996 54.7998V54.6998Z" fill="#F7CB2B"/>
<path d="M31.9996 53.3004C41.6996 53.3004 49.7996 46.3004 51.3996 37.1004C52.9996 27.9004 50.2996 33.7004 48.4996 33.7004H15.3996C13.5996 33.7004 12.1996 35.3004 12.4996 37.1004C14.0996 46.3004 22.1996 53.4004 31.9996 53.4004V53.3004Z" fill="#F3B514"/>
<path d="M20.5996 50.4004C27.1996 55.2004 36.7996 55.2004 43.3996 50.4004C37.6996 45.9004 26.2996 45.9004 20.5996 50.4004Z" fill="#D8531B"/>
<path d="M13.3002 35.6C12.8002 36.3 12.5002 37.1 12.6002 38C13.5002 42.9 16.5002 47.4 20.6002 50.3C26.3002 45.8 37.7002 45.8 43.4002 50.3C47.5002 47.4 50.4002 42.9 51.4002 38C51.5002 37.1 51.2002 36.2 50.7002 35.5C39.0002 39.9 25.0002 39.9 13.3002 35.5V35.6Z" fill="url(#paint3_linear_4771_5340)"/>
<path d="M50.6998 35.7004C50.0998 34.9004 49.1998 34.4004 48.0998 34.4004C40.0998 34.4004 23.9998 34.4004 15.8998 34.4004C14.7998 34.4004 13.8998 34.9004 13.2998 35.7004C24.9998 40.1004 38.9998 40.1004 50.6998 35.7004Z" fill="url(#paint4_radial_4771_5340)"/>
<path d="M16.7003 11.2996L18.7003 14.0996C18.8003 14.1996 19.0003 14.2996 19.2003 14.2996H22.6003C23.1003 14.2996 23.3003 14.6996 23.1003 15.0996L21.1003 17.8996C21.0003 17.9996 21.0003 18.1996 21.1003 18.3996L22.2003 21.5996C22.4003 21.9996 21.9003 22.4996 21.5003 22.2996L18.2003 21.1996C18.0003 21.1996 17.8003 21.1996 17.7003 21.1996L15.0003 23.2996C14.6003 23.5996 14.1003 23.2996 14.1003 22.8996V19.4996C14.1003 19.2996 14.1003 19.0996 13.9003 18.9996L11.1003 16.9996C10.7003 16.6996 10.8003 16.0996 11.2003 15.9996L14.5003 14.8996C14.7003 14.8996 14.8003 14.6996 14.9003 14.4996L15.9003 11.1996C16.0003 10.7996 16.6003 10.6996 16.9003 10.9996L16.7003 11.2996Z" fill="url(#paint5_linear_4771_5340)"/>
<path d="M47.2999 11.2996L45.2999 14.0996C45.1999 14.1996 44.9999 14.2996 44.7999 14.2996H41.3999C40.8999 14.2996 40.6999 14.6996 40.8999 15.0996L42.8999 17.8996C42.9999 17.9996 42.9999 18.1996 42.8999 18.3996L41.7999 21.5996C41.5999 21.9996 42.0999 22.4996 42.4999 22.2996L45.7999 21.1996C45.9999 21.1996 46.1999 21.1996 46.2999 21.1996L48.9999 23.2996C49.3999 23.5996 49.8999 23.2996 49.8999 22.8996V19.4996C49.8999 19.2996 49.8999 19.0996 50.0999 18.9996L52.8999 16.9996C53.2999 16.6996 53.1999 16.0996 52.7999 15.9996L49.4999 14.8996C49.2999 14.8996 49.1999 14.6996 49.0999 14.4996L48.0999 11.1996C47.9999 10.7996 47.3999 10.6996 47.0999 10.9996L47.2999 11.2996Z" fill="url(#paint6_linear_4771_5340)"/>
</g>
<defs>
<linearGradient id="paint0_linear_4771_5340" x1="32" y1="64" x2="32" y2="0" gradientUnits="userSpaceOnUse">
<stop stop-color="#F8A40D"/>
<stop offset="0.3" stop-color="#FBB807"/>
<stop offset="0.4" stop-color="#FDC703"/>
<stop offset="0.6" stop-color="#FECF00"/>
<stop offset="1" stop-color="#FFD200"/>
</linearGradient>
<linearGradient id="paint1_linear_4771_5340" x1="19.3897" y1="30.2418" x2="14.9036" y2="3.71854" gradientUnits="userSpaceOnUse">
<stop stop-color="#5239ED"/>
<stop offset="1" stop-color="#9D50CF"/>
</linearGradient>
<linearGradient id="paint2_linear_4771_5340" x1="44.61" y1="30.2418" x2="49.0961" y2="3.71854" gradientUnits="userSpaceOnUse">
<stop stop-color="#5239ED"/>
<stop offset="1" stop-color="#9D50CF"/>
</linearGradient>
<linearGradient id="paint3_linear_4771_5340" x1="32.0002" y1="50.4" x2="32.0002" y2="35.6" gradientUnits="userSpaceOnUse">
<stop stop-color="#5A2A13"/>
<stop offset="1" stop-color="#883A12"/>
</linearGradient>
<radialGradient id="paint4_radial_4771_5340" cx="0" cy="0" r="1" gradientUnits="userSpaceOnUse" gradientTransform="translate(31.9998 36.7004) scale(16.1 16.1)">
<stop stop-color="white"/>
<stop offset="0.4" stop-color="#FCFCFC"/>
<stop offset="0.6" stop-color="#F4F5F5"/>
<stop offset="0.8" stop-color="#E7E8E8"/>
<stop offset="1" stop-color="#D1D3D4"/>
</radialGradient>
<linearGradient id="paint5_linear_4771_5340" x1="18.1562" y1="22.9452" x2="16.1383" y2="11.0147" gradientUnits="userSpaceOnUse">
<stop stop-color="#F8A40D"/>
<stop offset="0.3" stop-color="#FBB807"/>
<stop offset="0.4" stop-color="#FDC703"/>
<stop offset="0.6" stop-color="#FECF00"/>
<stop offset="1" stop-color="#FFD200"/>
</linearGradient>
<linearGradient id="paint6_linear_4771_5340" x1="45.844" y1="22.9452" x2="47.8619" y2="11.0147" gradientUnits="userSpaceOnUse">
<stop stop-color="#F8A40D"/>
<stop offset="0.3" stop-color="#FBB807"/>
<stop offset="0.4" stop-color="#FDC703"/>
<stop offset="0.6" stop-color="#FECF00"/>
<stop offset="1" stop-color="#FFD200"/>
</linearGradient>
<clipPath id="clip0_4771_5340">
<rect width="64" height="64" fill="white"/>
</clipPath>
</defs>
</svg>
