<svg width="64" height="64" viewBox="0 0 64 64" fill="none" xmlns="http://www.w3.org/2000/svg">
<g clip-path="url(#clip0_4771_5684)">
<path d="M36.9 0H27.1C12.1331 0 0 12.1331 0 27.1V36.9C0 51.8669 12.1331 64 27.1 64H36.9C51.8669 64 64 51.8669 64 36.9V27.1C64 12.1331 51.8669 0 36.9 0Z" fill="url(#paint0_linear_4771_5684)"/>
<path d="M36.9 0H27.1C12.1331 0 0 12.1331 0 27.1V36.9C0 51.8669 12.1331 64 27.1 64H36.9C51.8669 64 64 51.8669 64 36.9V27.1C64 12.1331 51.8669 0 36.9 0Z" fill="url(#paint1_linear_4771_5684)"/>
<path d="M63.9996 22.6995C63.9996 22.1995 63.5996 21.8995 63.1996 21.6995C61.8996 21.2995 58.0996 19.8995 50.5996 20.3995C40.2996 21.0995 40.5996 21.3995 36.9996 21.6995C33.4996 21.9995 33.5996 22.3995 31.9996 22.2995C30.3996 22.2995 30.4996 21.9995 26.9996 21.6995C23.4996 21.3995 23.7996 21.0995 13.3996 20.3995C5.89964 19.8995 2.09964 21.2995 0.79964 21.6995C0.39964 21.7995 0.0996396 22.1995 -0.000360411 22.6995C-0.10036 23.4995 -0.000360429 24.4995 0.69964 24.6995C1.69964 24.9995 3.69964 27.1995 3.89964 28.4995C4.09964 29.7995 4.49964 34.1995 6.89964 37.1995C9.09964 39.9995 13.0996 41.6995 20.3996 40.4995C27.2996 39.2995 27.7996 31.8995 28.6996 28.8995C29.5996 25.8995 31.9996 25.9995 31.9996 25.9995C31.9996 25.9995 34.3996 25.7995 35.2996 28.8995C36.0996 31.7995 36.5996 39.2995 43.5996 40.4995C50.7996 41.7995 54.7996 39.9995 57.0996 37.1995C59.4996 34.1995 59.9996 29.8995 60.0996 28.4995C60.2996 27.1995 62.1996 24.9995 63.2996 24.6995C64.0996 24.4995 64.1996 23.4995 63.9996 22.6995Z" fill="#F3B514"/>
<path d="M63.9996 21.6995C63.9996 21.1995 63.5996 20.8995 63.1996 20.6995C61.8996 20.2995 58.0996 18.8995 50.5996 19.3995C40.2996 20.0995 40.5996 20.3995 36.9996 20.6995C33.4996 20.9995 33.5996 21.3995 31.9996 21.2995C30.3996 21.2995 30.4996 20.9995 26.9996 20.6995C23.4996 20.3995 23.7996 20.0995 13.3996 19.3995C5.89964 18.8995 2.09964 20.2995 0.79964 20.6995C0.39964 20.7995 0.0996396 21.1995 -0.000360411 21.6995C-0.10036 22.4995 -0.000360429 23.4995 0.69964 23.6995C1.69964 23.9995 3.69964 26.1995 3.89964 27.4995C4.09964 28.7995 4.49964 33.1995 6.89964 36.1995C9.09964 38.9995 13.0996 40.6995 20.3996 39.4995C27.2996 38.2995 27.7996 30.8995 28.6996 27.8995C29.5996 24.8995 31.9996 24.9995 31.9996 24.9995C31.9996 24.9995 34.3996 24.7995 35.2996 27.8995C36.0996 30.7995 36.5996 38.2995 43.5996 39.4995C50.7996 40.7995 54.7996 38.9995 57.0996 36.1995C59.4996 33.1995 59.9996 28.8995 60.0996 27.4995C60.2996 26.1995 62.1996 23.9995 63.2996 23.6995C64.0996 23.4995 64.1996 22.4995 63.9996 21.6995Z" fill="#030303"/>
<path d="M7.59941 22.3001C7.59941 22.3001 15.0994 20.0001 21.9994 22.6001C28.8994 25.2001 26.0994 31.1001 24.6994 33.5001C23.2994 35.9001 21.2994 38.5001 14.6994 37.6001C8.09941 36.7001 6.99941 32.6001 6.59941 31.3001C5.49941 27.7001 4.49941 23.3001 7.59941 22.3001Z" fill="url(#paint2_linear_4771_5684)"/>
<path d="M56.3997 22.3001C56.3997 22.3001 48.8997 20.0001 41.9997 22.6001C35.0997 25.2001 37.8997 31.1001 39.2997 33.5001C40.6997 35.9001 42.6997 38.5001 49.2997 37.6001C55.8997 36.7001 56.9997 32.6001 57.3997 31.3001C58.4997 27.7001 59.4997 23.3001 56.3997 22.3001Z" fill="url(#paint3_linear_4771_5684)"/>
<path d="M40.9999 46.0002C34.6999 49.5002 25.7999 47.7002 21.8999 44.8002C17.9999 41.9002 21.1999 44.6002 21.0999 44.9002C20.6999 47.8002 26.3999 52.2002 31.5999 52.2002C36.7999 52.2002 41.4999 50.0002 41.5999 46.3002C41.5999 46.0002 41.2999 45.8002 40.8999 45.9002L40.9999 46.0002Z" fill="#F7CB2B"/>
<path d="M40.9999 45.3996C34.6999 48.8996 25.7999 47.0996 21.8999 44.1996C17.9999 41.2996 21.1999 43.9996 21.0999 44.2996C20.6999 47.1996 26.3999 51.5996 31.5999 51.5996C36.7999 51.5996 41.4999 49.3996 41.5999 45.6996C41.5999 45.3996 41.2999 45.1996 40.8999 45.2996L40.9999 45.3996Z" fill="url(#paint4_linear_4771_5684)"/>
<path d="M11.7002 21.4C11.7002 21.4 16.0002 20.8 17.8002 15.5C19.6002 20.8 23.9002 21.4 23.9002 21.4C23.9002 21.4 19.6002 22 17.8002 27.3C16.0002 22 11.7002 21.4 11.7002 21.4Z" fill="white"/>
<path d="M8 14.8998C8 14.8998 10.6 14.4998 11.7 11.2998C12.8 14.4998 15.4 14.8998 15.4 14.8998C15.4 14.8998 12.8 15.2998 11.7 18.4998C10.6 15.2998 8 14.8998 8 14.8998Z" fill="white"/>
</g>
<defs>
<linearGradient id="paint0_linear_4771_5684" x1="32" y1="64" x2="32" y2="0" gradientUnits="userSpaceOnUse">
<stop stop-color="#F8A40D"/>
<stop offset="0.3" stop-color="#FBB807"/>
<stop offset="0.4" stop-color="#FDC703"/>
<stop offset="0.6" stop-color="#FECF00"/>
<stop offset="1" stop-color="#FFD200"/>
</linearGradient>
<linearGradient id="paint1_linear_4771_5684" x1="32" y1="64" x2="32" y2="0" gradientUnits="userSpaceOnUse">
<stop stop-color="#F8A40D"/>
<stop offset="0.3" stop-color="#FBB807"/>
<stop offset="0.4" stop-color="#FDC703"/>
<stop offset="0.6" stop-color="#FECF00"/>
<stop offset="1" stop-color="#FFD200"/>
</linearGradient>
<linearGradient id="paint2_linear_4771_5684" x1="15.9994" y1="39.0001" x2="15.9994" y2="22.4001" gradientUnits="userSpaceOnUse">
<stop stop-color="#833D1B"/>
<stop offset="0.8" stop-color="#420B11"/>
<stop offset="0.9" stop-color="#5D181B"/>
<stop offset="1" stop-color="#7B2727"/>
</linearGradient>
<linearGradient id="paint3_linear_4771_5684" x1="47.9997" y1="39.0001" x2="47.9997" y2="22.4001" gradientUnits="userSpaceOnUse">
<stop stop-color="#833D1B"/>
<stop offset="0.8" stop-color="#420B11"/>
<stop offset="0.9" stop-color="#5D181B"/>
<stop offset="1" stop-color="#7B2727"/>
</linearGradient>
<linearGradient id="paint4_linear_4771_5684" x1="31.3999" y1="51.5996" x2="31.3999" y2="43.9996" gradientUnits="userSpaceOnUse">
<stop stop-color="#883A12"/>
<stop offset="1" stop-color="#5A2A13"/>
</linearGradient>
<clipPath id="clip0_4771_5684">
<rect width="64" height="64" fill="white"/>
</clipPath>
</defs>
</svg>
