<svg width="64" height="64" viewBox="0 0 64 64" fill="none" xmlns="http://www.w3.org/2000/svg">
<g clip-path="url(#clip0_4771_4291)">
<path d="M36.95 0H27.05C12.1107 0 0 12.1107 0 27.05V36.95C0 51.8893 12.1107 64 27.05 64H36.95C51.8893 64 64 51.8893 64 36.95V27.05C64 12.1107 51.8893 0 36.95 0Z" fill="url(#paint0_linear_4771_4291)"/>
<path d="M13.0195 27.4797C13.0195 27.4797 20.0895 20.7797 26.2695 27.4797" stroke="#F0AA17" stroke-width="3.14" stroke-miterlimit="10" stroke-linecap="round"/>
<path d="M13.0195 26.7004C13.0195 26.7004 20.0895 20.0004 26.2695 26.7004" stroke="#5A2A13" stroke-width="3.14" stroke-miterlimit="10" stroke-linecap="round"/>
<path d="M50.9805 27.4797C50.9805 27.4797 43.9105 20.7797 37.7305 27.4797" stroke="#F0AA17" stroke-width="3.14" stroke-miterlimit="10" stroke-linecap="round"/>
<path d="M50.9805 26.7004C50.9805 26.7004 43.9105 20.0004 37.7305 26.7004" stroke="#5A2A13" stroke-width="3.14" stroke-miterlimit="10" stroke-linecap="round"/>
<path d="M8.30957 24.2196C8.30957 24.2196 9.67957 18.9196 15.3996 17.8496" stroke="#F0AA17" stroke-width="3.14" stroke-miterlimit="10" stroke-linecap="round"/>
<path d="M8.37012 23.4501C8.37012 23.4501 9.74012 18.1501 15.4601 17.0801" stroke="#CF6904" stroke-width="3.14" stroke-miterlimit="10" stroke-linecap="round"/>
<path d="M55.6896 24.2196C55.6896 24.2196 54.3196 18.9196 48.5996 17.8496" stroke="#F0AA17" stroke-width="3.14" stroke-miterlimit="10" stroke-linecap="round"/>
<path d="M55.63 23.4501C55.63 23.4501 54.26 18.1501 48.54 17.0801" stroke="#CF6904" stroke-width="3.14" stroke-miterlimit="10" stroke-linecap="round"/>
<path d="M52.5996 33.1201C52.6596 32.4801 52.6896 31.8301 52.6896 31.1601C52.6896 30.1501 52.0196 29.4001 51.2596 29.8701C46.1396 33.0401 39.3996 34.9601 31.9996 34.9601C24.5996 34.9601 17.8496 33.0301 12.7396 29.8701C11.9796 29.4001 11.3096 30.1501 11.3096 31.1601C11.3096 31.8301 11.3496 32.4801 11.4096 33.1201C16.9696 37.5101 24.1496 40.1601 32.0096 40.1601C39.8696 40.1601 47.0496 37.5001 52.6096 33.1101L52.5996 33.1201Z" fill="#F3B514"/>
<path d="M52.5996 33.8897C52.6596 33.2497 52.6896 32.5997 52.6896 31.9297C52.6896 30.9197 52.0196 30.1697 51.2596 30.6397C46.1396 33.8097 39.3996 35.7297 31.9996 35.7297C24.5996 35.7297 17.8496 33.7997 12.7396 30.6397C11.9796 30.1697 11.3096 30.9197 11.3096 31.9297C11.3096 32.5997 11.3496 33.2497 11.4096 33.8897C16.9696 38.2797 24.1496 40.9297 32.0096 40.9297C39.8696 40.9297 47.0496 38.2697 52.6096 33.8797L52.5996 33.8897Z" fill="url(#paint1_radial_4771_4291)"/>
<path d="M32.0004 53.4099C41.4504 53.4099 51.5704 46.2899 52.6004 34.6699C47.0404 39.0599 39.8504 41.7199 32.0004 41.7199C24.1504 41.7199 16.9704 39.0699 11.4004 34.6799C12.4704 45.8699 22.5604 53.4199 32.0004 53.4199V53.4099Z" fill="#F7CB2B"/>
<path d="M32.0004 52.6297C41.4504 52.6297 51.5704 45.5096 52.6004 33.8896C47.0404 38.2796 39.8504 40.9396 32.0004 40.9396C24.1504 40.9396 16.9704 38.2897 11.4004 33.8997C12.4704 45.0897 22.5604 52.6396 32.0004 52.6396V52.6297Z" fill="url(#paint2_linear_4771_4291)"/>
<path d="M10.3696 39.9997C8.28961 42.0797 4.90961 42.0797 2.81961 39.9997C0.729612 37.9197 0.739612 34.5397 2.81961 32.4497C4.89961 30.3597 14.5996 28.2197 14.5996 28.2197C14.5996 28.2197 12.4596 37.9097 10.3696 39.9997Z" fill="url(#paint3_linear_4771_4291)"/>
<path d="M6.08969 36.7298C4.95969 35.5998 4.95969 33.7698 6.08969 32.6398C6.69969 32.0298 9.45969 30.9898 12.7597 30.0498C11.8297 33.3498 10.7797 36.1098 10.1797 36.7198C9.04969 37.8498 7.21969 37.8498 6.08969 36.7198V36.7298Z" fill="url(#paint4_linear_4771_4291)"/>
<path d="M53.6304 39.9997C55.7104 42.0797 59.0904 42.0797 61.1804 39.9997C63.2704 37.9197 63.2604 34.5397 61.1804 32.4497C59.1004 30.3697 49.4004 28.2197 49.4004 28.2197C49.4004 28.2197 51.5404 37.9097 53.6304 39.9997Z" fill="url(#paint5_linear_4771_4291)"/>
<path d="M57.9102 36.7298C59.0402 35.5998 59.0402 33.7698 57.9102 32.6398C57.3002 32.0298 54.5402 30.9898 51.2402 30.0498C52.1702 33.3498 53.2202 36.1098 53.8202 36.7198C54.9502 37.8498 56.7802 37.8498 57.9102 36.7198V36.7298Z" fill="url(#paint6_linear_4771_4291)"/>
<mask id="mask0_4771_4291" style="mask-type:luminance" maskUnits="userSpaceOnUse" x="11" y="33" width="42" height="20">
<path d="M32.0004 52.6297C41.4504 52.6297 51.5704 45.5096 52.6004 33.8896C47.0404 38.2796 39.8504 40.9396 32.0004 40.9396C24.1504 40.9396 16.9704 38.2897 11.4004 33.8997C12.4704 45.0897 22.5604 52.6396 32.0004 52.6396V52.6297Z" fill="white"/>
</mask>
<g mask="url(#mask0_4771_4291)">
<path d="M32.0006 63.2397C41.6103 63.2397 49.4006 59.6535 49.4006 55.2297C49.4006 50.8059 41.6103 47.2197 32.0006 47.2197C22.3908 47.2197 14.6006 50.8059 14.6006 55.2297C14.6006 59.6535 22.3908 63.2397 32.0006 63.2397Z" fill="#D8531B"/>
</g>
</g>
<defs>
<linearGradient id="paint0_linear_4771_4291" x1="32" y1="64" x2="32" y2="0" gradientUnits="userSpaceOnUse">
<stop stop-color="#F69412"/>
<stop offset="0.1" stop-color="#F8A40D"/>
<stop offset="0.25" stop-color="#FBB807"/>
<stop offset="0.43" stop-color="#FDC703"/>
<stop offset="0.64" stop-color="#FECF00"/>
<stop offset="1" stop-color="#FFD200"/>
</linearGradient>
<radialGradient id="paint1_radial_4771_4291" cx="0" cy="0" r="1" gradientUnits="userSpaceOnUse" gradientTransform="translate(32.2906 40.3226) scale(18.1116 9.9846)">
<stop stop-color="white"/>
<stop offset="0.42" stop-color="#FCFCFC"/>
<stop offset="0.65" stop-color="#F4F5F5"/>
<stop offset="0.83" stop-color="#E7E8E8"/>
<stop offset="0.98" stop-color="#D4D6D6"/>
<stop offset="1" stop-color="#D1D3D4"/>
</radialGradient>
<linearGradient id="paint2_linear_4771_4291" x1="32.0004" y1="52.6296" x2="32.0004" y2="33.8896" gradientUnits="userSpaceOnUse">
<stop stop-color="#5A2A13"/>
<stop offset="1" stop-color="#883A12"/>
</linearGradient>
<linearGradient id="paint3_linear_4771_4291" x1="2.79995" y1="40.0182" x2="13.4207" y2="29.3975" gradientUnits="userSpaceOnUse">
<stop stop-color="#5239ED"/>
<stop offset="0.12" stop-color="#5264ED"/>
<stop offset="0.24" stop-color="#5288ED"/>
<stop offset="0.36" stop-color="#52A6ED"/>
<stop offset="0.5" stop-color="#52BDED"/>
<stop offset="0.64" stop-color="#52CEED"/>
<stop offset="0.8" stop-color="#52D7ED"/>
<stop offset="1" stop-color="#52DBED"/>
</linearGradient>
<linearGradient id="paint4_linear_4771_4291" x1="6.08101" y1="36.7373" x2="12.7561" y2="30.0623" gradientUnits="userSpaceOnUse">
<stop stop-color="#D3F2F5"/>
<stop offset="1" stop-color="#52DBED"/>
</linearGradient>
<linearGradient id="paint5_linear_4771_4291" x1="61.2089" y1="40.0182" x2="50.5811" y2="29.3904" gradientUnits="userSpaceOnUse">
<stop stop-color="#5239ED"/>
<stop offset="0.12" stop-color="#5264ED"/>
<stop offset="0.24" stop-color="#5288ED"/>
<stop offset="0.36" stop-color="#52A6ED"/>
<stop offset="0.5" stop-color="#52BDED"/>
<stop offset="0.64" stop-color="#52CEED"/>
<stop offset="0.8" stop-color="#52D7ED"/>
<stop offset="1" stop-color="#52DBED"/>
</linearGradient>
<linearGradient id="paint6_linear_4771_4291" x1="57.9207" y1="36.7303" x2="51.2456" y2="30.0552" gradientUnits="userSpaceOnUse">
<stop stop-color="#D3F2F5"/>
<stop offset="1" stop-color="#52DBED"/>
</linearGradient>
<clipPath id="clip0_4771_4291">
<rect width="64" height="64" fill="white"/>
</clipPath>
</defs>
</svg>
