<svg width="64" height="64" viewBox="0 0 64 64" fill="none" xmlns="http://www.w3.org/2000/svg">
<g clip-path="url(#clip0_4826_2564)">
<path d="M36.9 0H27.1C12.1331 0 0 12.1331 0 27.1V36.9C0 51.8669 12.1331 64 27.1 64H36.9C51.8669 64 64 51.8669 64 36.9V27.1C64 12.1331 51.8669 0 36.9 0Z" fill="url(#paint0_linear_4826_2564)"/>
<path d="M36.9 0H27.1C12.1331 0 0 12.1331 0 27.1V36.9C0 51.8669 12.1331 64 27.1 64H36.9C51.8669 64 64 51.8669 64 36.9V27.1C64 12.1331 51.8669 0 36.9 0Z" fill="url(#paint1_linear_4826_2564)"/>
<path d="M36.9 0H27.1C12.1331 0 0 12.1331 0 27.1V36.9C0 51.8669 12.1331 64 27.1 64H36.9C51.8669 64 64 51.8669 64 36.9V27.1C64 12.1331 51.8669 0 36.9 0Z" fill="url(#paint2_linear_4826_2564)"/>
<path d="M42.1992 53.3998C41.6992 53.3998 41.2992 53.1998 40.9992 52.7998C39.8992 51.3998 36.6992 49.8998 32.0992 49.8998C27.4992 49.8998 24.1992 51.3998 23.1992 52.7998C22.6992 53.4998 21.6992 53.5998 20.9992 53.0998C20.2992 52.5998 20.1992 51.5998 20.6992 50.8998C22.5992 48.3998 27.0992 46.7998 32.0992 46.7998C37.0992 46.7998 41.5992 48.3998 43.4992 50.8998C43.9992 51.5998 43.8992 52.5998 43.1992 53.0998C42.8992 53.2998 42.5992 53.3998 42.1992 53.3998Z" fill="#F0AA17"/>
<path d="M42.1992 52.5004C41.6992 52.5004 41.2992 52.3004 40.9992 51.9004C39.8992 50.5004 36.6992 49.0004 32.0992 49.0004C27.4992 49.0004 24.1992 50.5004 23.1992 51.9004C22.6992 52.6004 21.6992 52.7004 20.9992 52.2004C20.2992 51.7004 20.1992 50.7004 20.6992 50.0004C22.5992 47.5004 27.0992 45.9004 32.0992 45.9004C37.0992 45.9004 41.5992 47.5004 43.4992 50.0004C43.9992 50.7004 43.8992 51.7004 43.1992 52.2004C42.8992 52.4004 42.5992 52.5004 42.1992 52.5004Z" fill="#5A2A13"/>
<path d="M13.0996 50.7002C19.727 50.7002 25.0996 45.3276 25.0996 38.7002C25.0996 32.0728 19.727 26.7002 13.0996 26.7002C6.47219 26.7002 1.09961 32.0728 1.09961 38.7002C1.09961 45.3276 6.47219 50.7002 13.0996 50.7002Z" fill="url(#paint3_radial_4826_2564)"/>
<path d="M50.9004 50.7002C57.5278 50.7002 62.9004 45.3276 62.9004 38.7002C62.9004 32.0728 57.5278 26.7002 50.9004 26.7002C44.273 26.7002 38.9004 32.0728 38.9004 38.7002C38.9004 45.3276 44.273 50.7002 50.9004 50.7002Z" fill="url(#paint4_radial_4826_2564)"/>
<path d="M47.5082 35.9195L47.084 36.3438L48.9932 38.2529L49.4174 37.8287L47.5082 35.9195Z" fill="url(#paint5_linear_4826_2564)"/>
<path d="M49.3008 39.5004C48.5008 38.7004 47.1008 38.7004 46.3008 39.5004L45.6008 40.2004L46.3008 40.9004L45.9008 41.3004L45.2008 40.6004L42.6008 43.2004L43.3008 43.9004L42.9008 44.3004L42.2008 43.6004L36.3008 49.5004C38.1008 50.0004 39.5008 50.7004 40.4008 51.4004L49.2008 42.6004C50.0008 41.8004 50.0008 40.4004 49.2008 39.6004L49.3008 39.5004Z" fill="url(#paint6_linear_4826_2564)"/>
<path d="M57.3992 31.4004C55.8992 29.9004 53.4992 29.9004 51.9992 31.4004L50.3992 33.0004L52.2992 34.9004L51.8992 35.3004L49.9992 33.4004L34.1992 49.1004C34.8992 49.1004 35.5992 49.3004 36.2992 49.5004L42.1992 43.6004L40.9992 42.4004L41.3992 42.0004L42.5992 43.2004L45.1992 40.6004L43.9992 39.4004L44.3992 39.0004L45.5992 40.2004L46.2992 39.5004C47.0992 38.7004 48.4992 38.7004 49.2992 39.5004C50.0992 40.3004 50.0992 41.7004 49.2992 42.5004L40.4992 51.3004C40.6992 51.5004 40.8992 51.6004 40.9992 51.8004C41.1992 52.1004 41.4992 52.3004 41.8992 52.4004L57.4992 36.8004C58.9992 35.3004 58.9992 32.9004 57.4992 31.4004H57.3992Z" fill="url(#paint7_linear_4826_2564)"/>
<path d="M49.2988 39.5004C48.4988 38.7004 47.0988 38.7004 46.2988 39.5004L45.5988 40.2004L46.2988 40.9004L45.8988 41.3004L45.1988 40.6004L42.5988 43.2004L43.2988 43.9004L42.8988 44.3004L42.1988 43.6004L36.2988 49.5004C38.0988 50.0004 39.4988 50.7004 40.3988 51.4004L49.1988 42.6004C49.9988 41.8004 49.9988 40.4004 49.1988 39.6004L49.2988 39.5004Z" fill="url(#paint8_linear_4826_2564)"/>
<path d="M43.3 43.8L42.6 43.2L41.4 42L41 42.3L42.2 43.6L42.9 44.2L43.3 43.8Z" fill="#C1C1C1"/>
<path d="M46.3 40.8L45.6 40.2L44.4 39L44 39.3L45.2 40.6L45.9 41.2L46.3 40.8Z" fill="#C1C1C1"/>
<path d="M47.5082 35.9205L47.084 36.3447L48.9932 38.2539L49.4174 37.8297L47.5082 35.9205Z" fill="#C1C1C1"/>
<path d="M51.9 35.2L52.3 34.8L50.4 33L50.1 33.3H50L51.9 35.2Z" fill="#C1C1C1"/>
<path d="M12.9996 20.9002C12.6996 20.9002 12.3996 20.9002 12.0996 20.6002C11.3996 20.1002 11.1996 19.2002 11.6996 18.4002C11.7996 18.2002 15.4996 12.8002 22.0996 14.1002C22.9996 14.3002 23.4996 15.1002 23.3996 15.9002C23.1996 16.8002 22.3996 17.3002 21.5996 17.2002C16.9996 16.3002 14.4996 20.0002 14.3996 20.1002C14.0996 20.6002 13.5996 20.8002 13.0996 20.8002L12.9996 20.9002Z" fill="#F0AA17"/>
<path d="M12.9996 20.1004C12.6996 20.1004 12.3996 20.1004 12.0996 19.8004C11.3996 19.3004 11.1996 18.4004 11.6996 17.6004C11.7996 17.4004 15.3996 12.0004 22.0996 13.3004C22.9996 13.5004 23.4996 14.3004 23.3996 15.1004C23.1996 16.0004 22.3996 16.5004 21.5996 16.4004C16.9996 15.5004 14.4996 19.2004 14.3996 19.4004C14.0996 19.9004 13.5996 20.1004 13.0996 20.1004H12.9996Z" fill="#CF6904"/>
<path d="M51.0006 20.8998C50.5006 20.8998 50.0006 20.6998 49.7006 20.1998C49.6006 19.9998 47.1006 16.3998 42.5006 17.2998C41.6006 17.4998 40.8006 16.8998 40.7006 15.9998C40.5006 15.0998 41.1006 14.2998 42.0006 14.1998C48.7006 12.8998 52.3006 18.2998 52.4006 18.4998C52.9006 19.1998 52.7006 20.1998 52.0006 20.6998C51.7006 20.8998 51.4006 20.9998 51.1006 20.9998L51.0006 20.8998Z" fill="#F0AA17"/>
<path d="M51.0006 20.1996C50.5006 20.1996 50.0006 19.9996 49.7006 19.4996C49.6006 19.2996 47.1006 15.6996 42.5006 16.5996C41.6006 16.7996 40.8006 16.1996 40.7006 15.2996C40.5006 14.3996 41.1006 13.5996 42.0006 13.4996C48.7006 12.1996 52.3006 17.5996 52.4006 17.7996C52.9006 18.4996 52.7006 19.4996 52.0006 19.9996C51.7006 20.1996 51.4006 20.2996 51.1006 20.2996L51.0006 20.1996Z" fill="#CF6904"/>
<path d="M24.5996 28.7998C24.5996 31.8998 22.7996 34.2998 20.5996 34.2998C18.3996 34.2998 16.5996 31.7998 16.5996 28.7998C16.5996 25.7998 18.3996 23.2998 20.5996 23.2998C22.7996 23.2998 24.5996 25.7998 24.5996 28.7998Z" fill="#F3B514"/>
<path d="M39.4004 28.7998C39.4004 31.8998 41.2004 34.2998 43.4004 34.2998C45.6004 34.2998 47.4004 31.7998 47.4004 28.7998C47.4004 25.7998 45.6004 23.2998 43.4004 23.2998C41.2004 23.2998 39.4004 25.7998 39.4004 28.7998Z" fill="#F3B514"/>
<path d="M24.5996 28C24.5996 31.1 22.7996 33.5 20.5996 33.5C18.3996 33.5 16.5996 31 16.5996 28C16.5996 25 18.3996 22.5 20.5996 22.5C22.7996 22.5 24.5996 25 24.5996 28Z" fill="#5A2A13"/>
<path d="M39.4004 28C39.4004 31.1 41.2004 33.5 43.4004 33.5C45.6004 33.5 47.4004 31 47.4004 28C47.4004 25 45.6004 22.5 43.4004 22.5C41.2004 22.5 39.4004 25 39.4004 28Z" fill="#5A2A13"/>
</g>
<defs>
<linearGradient id="paint0_linear_4826_2564" x1="32" y1="64" x2="32" y2="0" gradientUnits="userSpaceOnUse">
<stop stop-color="#F8A40D"/>
<stop offset="0.3" stop-color="#FBB807"/>
<stop offset="0.4" stop-color="#FDC703"/>
<stop offset="0.6" stop-color="#FECF00"/>
<stop offset="1" stop-color="#FFD200"/>
</linearGradient>
<linearGradient id="paint1_linear_4826_2564" x1="32" y1="64" x2="32" y2="0" gradientUnits="userSpaceOnUse">
<stop stop-color="#F8A40D"/>
<stop offset="0.3" stop-color="#FBB807"/>
<stop offset="0.4" stop-color="#FDC703"/>
<stop offset="0.6" stop-color="#FECF00"/>
<stop offset="1" stop-color="#FFD200"/>
</linearGradient>
<linearGradient id="paint2_linear_4826_2564" x1="32" y1="64" x2="32" y2="0" gradientUnits="userSpaceOnUse">
<stop stop-color="#F8A40D"/>
<stop offset="0.3" stop-color="#FBB807"/>
<stop offset="0.4" stop-color="#FDC703"/>
<stop offset="0.6" stop-color="#FECF00"/>
<stop offset="1" stop-color="#FFD200"/>
</linearGradient>
<radialGradient id="paint3_radial_4826_2564" cx="0" cy="0" r="1" gradientUnits="userSpaceOnUse" gradientTransform="translate(13.0996 38.7002) scale(12)">
<stop stop-color="#F68612"/>
<stop offset="0.2" stop-color="#F68811"/>
<stop offset="0.4" stop-color="#F7910F" stop-opacity="0.9"/>
<stop offset="0.6" stop-color="#F89F0C" stop-opacity="0.8"/>
<stop offset="0.8" stop-color="#FBB207" stop-opacity="0.7"/>
<stop offset="1" stop-color="#FFD200" stop-opacity="0.5"/>
</radialGradient>
<radialGradient id="paint4_radial_4826_2564" cx="0" cy="0" r="1" gradientUnits="userSpaceOnUse" gradientTransform="translate(50.9004 0.500195) rotate(-180) scale(12)">
<stop stop-color="#F68612"/>
<stop offset="0.2" stop-color="#F68811"/>
<stop offset="0.4" stop-color="#F7910F" stop-opacity="0.9"/>
<stop offset="0.6" stop-color="#F89F0C" stop-opacity="0.8"/>
<stop offset="0.8" stop-color="#FBB207" stop-opacity="0.7"/>
<stop offset="1" stop-color="#FFD200" stop-opacity="0.5"/>
</radialGradient>
<linearGradient id="paint5_linear_4826_2564" x1="46.9907" y1="37.0985" x2="49.2907" y2="37.0985" gradientUnits="userSpaceOnUse">
<stop stop-color="white"/>
<stop offset="1" stop-color="#EAEAEA"/>
</linearGradient>
<linearGradient id="paint6_linear_4826_2564" x1="42.124" y1="43.7618" x2="45.0939" y2="46.7317" gradientUnits="userSpaceOnUse">
<stop stop-color="white"/>
<stop offset="1" stop-color="#EAEAEA"/>
</linearGradient>
<linearGradient id="paint7_linear_4826_2564" x1="44.5992" y1="39.0004" x2="48.0992" y2="42.5004" gradientUnits="userSpaceOnUse">
<stop stop-color="#EAEAEA"/>
<stop offset="0.5" stop-color="white"/>
<stop offset="1" stop-color="#EAEAEA"/>
</linearGradient>
<linearGradient id="paint8_linear_4826_2564" x1="42.1221" y1="43.7618" x2="45.0919" y2="46.7317" gradientUnits="userSpaceOnUse">
<stop stop-color="#FE4157"/>
<stop offset="0.2" stop-color="#EA273D"/>
<stop offset="0.5" stop-color="#DC142A"/>
<stop offset="0.7" stop-color="#D3091F"/>
<stop offset="1" stop-color="#D1061C"/>
</linearGradient>
<clipPath id="clip0_4826_2564">
<rect width="64" height="64" fill="white"/>
</clipPath>
</defs>
</svg>
