<svg width="64" height="64" viewBox="0 0 64 64" fill="none" xmlns="http://www.w3.org/2000/svg">
<g clip-path="url(#clip0_4826_2757)">
<path d="M36.9 0H27.1C12.1331 0 0 12.1331 0 27.1V36.9C0 51.8669 12.1331 64 27.1 64H36.9C51.8669 64 64 51.8669 64 36.9V27.1C64 12.1331 51.8669 0 36.9 0Z" fill="url(#paint0_linear_4826_2757)"/>
<path d="M36.9 0H27.1C12.1331 0 0 12.1331 0 27.1V36.9C0 51.8669 12.1331 64 27.1 64H36.9C51.8669 64 64 51.8669 64 36.9V27.1C64 12.1331 51.8669 0 36.9 0Z" fill="url(#paint1_linear_4826_2757)"/>
<path d="M14.3992 20.6998C14.0992 20.6998 13.6992 20.5998 13.4992 20.3998C12.7992 19.8998 12.6992 18.8998 13.1992 18.1998C13.3992 17.9998 17.4992 12.5998 24.8992 13.1998C25.7992 13.1998 26.3992 13.9998 26.2992 14.8998C26.1992 15.7998 25.4992 16.3998 24.5992 16.2998C18.8992 15.8998 15.7992 19.8998 15.5992 20.0998C15.2992 20.4998 14.7992 20.6998 14.2992 20.6998H14.3992Z" fill="#F0AA17"/>
<path d="M14.3992 19.8004C14.0992 19.8004 13.6992 19.7004 13.4992 19.5004C12.7992 19.0004 12.6992 18.0004 13.1992 17.3004C13.3992 17.1004 17.4992 11.7004 24.8992 12.3004C25.7992 12.3004 26.3992 13.1004 26.2992 14.0004C26.2992 14.9004 25.4992 15.5004 24.5992 15.4004C18.8992 15.0004 15.7992 19.0004 15.5992 19.2004C15.2992 19.6004 14.7992 19.8004 14.2992 19.8004H14.3992Z" fill="#5A2A13"/>
<path d="M49.5996 20.6998C49.0996 20.6998 48.6996 20.4998 48.2996 20.0998C48.1996 19.8998 44.9996 15.8998 39.2996 16.2998C38.3996 16.2998 37.6996 15.6998 37.5996 14.8998C37.5996 13.9998 38.1996 13.2998 38.9996 13.1998C46.3996 12.5998 50.4996 17.9998 50.6996 18.1998C51.1996 18.8998 51.0996 19.8998 50.3996 20.3998C50.0996 20.5998 49.7996 20.6998 49.4996 20.6998H49.5996Z" fill="#F0AA17"/>
<path d="M49.5996 19.8004C49.0996 19.8004 48.6996 19.6004 48.2996 19.2004C48.1996 19.0004 44.9996 15.0004 39.2996 15.4004C38.3996 15.4004 37.6996 14.8004 37.5996 14.0004C37.5996 13.1004 38.1996 12.4004 38.9996 12.3004C46.3996 11.7004 50.4996 17.1004 50.6996 17.3004C51.1996 18.0004 51.0996 19.0004 50.3996 19.5004C50.0996 19.7004 49.7996 19.8004 49.4996 19.8004H49.5996Z" fill="#5A2A13"/>
<path d="M17.8008 40.5006C17.8008 32.7006 24.0008 25.6006 31.7008 25.6006C39.4008 25.6006 45.6008 32.7006 45.6008 40.5006C45.6008 48.3006 39.4008 55.3006 31.7008 55.3006C24.0008 55.3006 17.8008 48.3006 17.8008 40.5006Z" fill="#F7CB2B"/>
<path d="M17.8008 38.8004C17.8008 31.0004 24.0008 23.9004 31.7008 23.9004C39.4008 23.9004 45.6008 31.0004 45.6008 38.8004C45.6008 46.6004 39.4008 53.6004 31.7008 53.6004C24.0008 53.6004 17.8008 46.6004 17.8008 38.8004Z" fill="#F3B514"/>
<path d="M17.8008 39.7008C17.8008 31.9008 24.0008 24.8008 31.7008 24.8008C39.4008 24.8008 45.6008 31.9008 45.6008 39.7008C45.6008 47.5008 39.4008 54.5008 31.7008 54.5008C24.0008 54.5008 17.8008 47.5008 17.8008 39.7008Z" fill="url(#paint2_linear_4826_2757)"/>
<path d="M22.5 62.4002C19.6 62.4002 16.9 61.3002 14.8 59.2002C11.6 56.0002 10.2 51.3002 11.1 46.9002L13.1 37.1002C13.4 35.5002 14.9 34.3002 16.5 34.3002C18.1 34.3002 17 34.3002 17.3 34.3002C19.1 34.7002 20.3 36.5002 19.9 38.3002L19.7 39.5002L28.6 30.6002C29.1 30.1002 29.9 29.7002 30.7 29.7002C31.5 29.7002 32.2 30.0002 32.8 30.6002C33.4 31.2002 33.7 32.1002 33.7 32.9002L34.4 32.2002C34.9 31.7002 35.7 31.3002 36.5 31.3002C37.3 31.3002 38 31.6002 38.6 32.2002C39.1 32.7002 39.5 33.5002 39.5 34.3002C39.5 35.1002 39.3 35.5002 39 36.0002C39.1 36.0002 39.3 36.0002 39.4 36.0002C40.2 36.0002 40.9 36.3002 41.5 36.9002C42.1 37.5002 42.4 38.2002 42.4 39.0002C42.4 39.8002 42.1 40.5002 41.5 41.1002L40.2 42.4002C40.2 42.4002 40.3 42.4002 40.4 42.4002C41.2 42.4002 41.9 42.7002 42.5 43.3002C43.1 43.9002 43.4 44.6002 43.4 45.4002C43.4 46.2002 43.1 46.9002 42.5 47.5002L30.6 59.4002C28.5 61.5002 25.8 62.6002 22.9 62.6002L22.5 62.4002Z" fill="url(#paint3_linear_4826_2757)" style="mix-blend-mode:multiply"/>
<path d="M38.699 43.8998L32.599 49.9998C32.399 50.1998 31.999 50.1998 31.699 49.9998C31.499 49.7998 31.499 49.3998 31.699 49.0998L40.499 40.2998C41.199 39.5998 41.199 38.2998 40.499 37.5998C39.799 36.7998 38.499 36.7998 37.799 37.5998L28.999 46.3998C28.699 46.6998 28.299 46.6998 27.999 46.3998C27.699 46.0998 27.699 45.6998 27.999 45.3998L37.699 35.6998C38.399 34.9998 38.399 33.6998 37.699 32.9998C36.999 32.2998 35.699 32.2998 34.999 32.9998L25.299 42.6998C24.999 42.9998 24.599 42.9998 24.399 42.6998C24.099 42.3998 24.099 41.9998 24.399 41.7998L32.099 34.0998C32.799 33.3998 32.799 32.0998 32.099 31.3998C31.399 30.5998 30.099 30.5998 29.399 31.3998L21.199 39.5998L19.499 41.2998L18.099 42.6998L18.999 38.2998C19.299 36.9998 18.399 35.6998 17.099 35.3998C15.699 35.0998 14.399 35.8998 14.099 37.2998L12.099 47.0998C11.299 51.1998 12.499 55.4998 15.499 58.4998C19.399 62.3998 25.599 62.3998 29.499 58.4998L33.299 54.6998L34.799 53.1998L41.399 46.5998C42.099 45.8998 42.099 44.5998 41.399 43.8998C40.699 43.0998 39.399 43.0998 38.699 43.8998Z" fill="url(#paint4_radial_4826_2757)"/>
<path d="M38.699 43.8998L32.599 49.9998C32.399 50.1998 31.999 50.1998 31.699 49.9998C31.499 49.7998 31.499 49.3998 31.699 49.0998L40.499 40.2998C41.199 39.5998 41.199 38.2998 40.499 37.5998C39.799 36.7998 38.499 36.7998 37.799 37.5998L28.999 46.3998C28.699 46.6998 28.299 46.6998 27.999 46.3998C27.699 46.0998 27.699 45.6998 27.999 45.3998L37.699 35.6998C38.399 34.9998 38.399 33.6998 37.699 32.9998C36.999 32.2998 35.699 32.2998 34.999 32.9998L25.299 42.6998C24.999 42.9998 24.599 42.9998 24.399 42.6998C24.099 42.3998 24.099 41.9998 24.399 41.7998L32.099 34.0998C32.799 33.3998 32.799 32.0998 32.099 31.3998C31.399 30.5998 30.099 30.5998 29.399 31.3998L21.199 39.5998L19.499 41.2998L18.099 42.6998L18.999 38.2998C19.299 36.9998 18.399 35.6998 17.099 35.3998C15.699 35.0998 14.399 35.8998 14.099 37.2998L12.099 47.0998C11.299 51.1998 12.499 55.4998 15.499 58.4998C19.399 62.3998 25.599 62.3998 29.499 58.4998L33.299 54.6998L34.799 53.1998L41.399 46.5998C42.099 45.8998 42.099 44.5998 41.399 43.8998C40.699 43.0998 39.399 43.0998 38.699 43.8998Z" stroke="url(#paint5_radial_4826_2757)" stroke-width="0.5" stroke-miterlimit="10"/>
</g>
<defs>
<linearGradient id="paint0_linear_4826_2757" x1="32" y1="64" x2="32" y2="0" gradientUnits="userSpaceOnUse">
<stop stop-color="#F8A40D"/>
<stop offset="0.3" stop-color="#FBB807"/>
<stop offset="0.4" stop-color="#FDC703"/>
<stop offset="0.6" stop-color="#FECF00"/>
<stop offset="1" stop-color="#FFD200"/>
</linearGradient>
<linearGradient id="paint1_linear_4826_2757" x1="32" y1="64" x2="32" y2="0" gradientUnits="userSpaceOnUse">
<stop stop-color="#F8A50C"/>
<stop offset="0.2" stop-color="#FBB907"/>
<stop offset="0.4" stop-color="#FDC703"/>
<stop offset="0.6" stop-color="#FECF00"/>
<stop offset="1" stop-color="#FFD200"/>
</linearGradient>
<linearGradient id="paint2_linear_4826_2757" x1="31.7008" y1="54.5008" x2="31.7008" y2="24.8008" gradientUnits="userSpaceOnUse">
<stop stop-color="#883A12"/>
<stop offset="1" stop-color="#5A2A13"/>
</linearGradient>
<linearGradient id="paint3_linear_4826_2757" x1="15.4" y1="55.8002" x2="35" y2="33.5002" gradientUnits="userSpaceOnUse">
<stop stop-color="#FFCC5E"/>
<stop offset="0.1" stop-color="#FFD957"/>
<stop offset="0.3" stop-color="#FFE851"/>
<stop offset="0.6" stop-color="#FFF04D"/>
<stop offset="1" stop-color="#FFF34C"/>
</linearGradient>
<radialGradient id="paint4_radial_4826_2757" cx="0" cy="0" r="1" gradientUnits="userSpaceOnUse" gradientTransform="translate(27.799 36.4998) scale(33.3 33.3)">
<stop stop-color="#FFF359"/>
<stop offset="0.2" stop-color="#FEEF44"/>
<stop offset="0.3" stop-color="#FCE530"/>
<stop offset="0.4" stop-color="#F8D107"/>
<stop offset="0.7" stop-color="#F2B710"/>
<stop offset="1" stop-color="#EEA019"/>
</radialGradient>
<radialGradient id="paint5_radial_4826_2757" cx="0" cy="0" r="1" gradientUnits="userSpaceOnUse" gradientTransform="translate(26.899 46.0998) scale(15.4)">
<stop stop-color="#FFF359"/>
<stop offset="0.2" stop-color="#FEEF44"/>
<stop offset="0.3" stop-color="#FCE530"/>
<stop offset="0.4" stop-color="#F8D107"/>
<stop offset="0.7" stop-color="#F2B710"/>
<stop offset="1" stop-color="#EEA019"/>
</radialGradient>
<clipPath id="clip0_4826_2757">
<rect width="64" height="64" fill="white"/>
</clipPath>
</defs>
</svg>
