<svg width="40" height="40" viewBox="0 0 40 40" fill="none" xmlns="http://www.w3.org/2000/svg">
<path fill-rule="evenodd" clip-rule="evenodd" d="M26.3794 22.1408H21.6661V26.8475C21.6661 27.5375 21.1061 28.0975 20.4161 28.0975C19.7261 28.0975 19.1661 27.5375 19.1661 26.8475V22.1408H14.4528C13.7628 22.1408 13.2028 21.5808 13.2028 20.8908C13.2028 20.2008 13.7628 19.6408 14.4528 19.6408H19.1661V14.9341C19.1661 14.2441 19.7261 13.6841 20.4161 13.6841C21.1061 13.6841 21.6661 14.2441 21.6661 14.9341V19.6408H26.3794C27.0694 19.6408 27.6294 20.2008 27.6294 20.8908C27.6294 21.5808 27.0694 22.1408 26.3794 22.1408ZM20.4161 3.8291C7.81782 3.8291 3.35449 8.29243 3.35449 20.8908C3.35449 33.4892 7.81782 37.9525 20.4161 37.9525C33.0128 37.9525 37.4778 33.4892 37.4778 20.8908C37.4778 8.29243 33.0128 3.8291 20.4161 3.8291Z" fill="#220601"/>
</svg>
