<svg width="32" height="32" viewBox="0 0 32 32" fill="none" xmlns="http://www.w3.org/2000/svg">
<g clip-path="url(#clip0_4919_9086)">
<path fill-rule="evenodd" clip-rule="evenodd" d="M27.6089 9.98195L26.7531 8.49683C26.0291 7.24018 24.4245 6.80667 23.1661 7.52772C22.5672 7.88058 21.8524 7.98069 21.1795 7.80598C20.5066 7.63126 19.9309 7.19607 19.5792 6.59637C19.353 6.21519 19.2314 5.78102 19.2268 5.33779C19.2472 4.62716 18.9791 3.93853 18.4836 3.42878C17.988 2.91902 17.3073 2.63154 16.5964 2.63184H14.8721C14.1756 2.63184 13.5078 2.90936 13.0165 3.40303C12.5252 3.8967 12.2509 4.5658 12.2542 5.26227C12.2336 6.70025 11.0619 7.8551 9.62382 7.85495C9.18058 7.85035 8.74641 7.72878 8.36523 7.50255C7.10687 6.7815 5.50232 7.21501 4.77828 8.47165L3.85951 9.98195C3.13635 11.237 3.56396 12.8406 4.81603 13.5689C5.6299 14.0388 6.13127 14.9072 6.13127 15.8469C6.13127 16.7867 5.6299 17.6551 4.81603 18.125C3.56555 18.8484 3.13747 20.4481 3.85951 21.6993L4.72793 23.1971C5.06718 23.8092 5.63637 24.2609 6.30955 24.4522C6.98274 24.6435 7.70442 24.5587 8.31489 24.2165C8.91502 23.8663 9.63017 23.7704 10.3014 23.95C10.9726 24.1296 11.5442 24.5699 11.8893 25.173C12.1155 25.5542 12.2371 25.9884 12.2417 26.4316C12.2417 27.8844 13.4193 29.062 14.8721 29.062H16.5964C18.0442 29.062 19.2199 27.892 19.2268 26.4442C19.2234 25.7455 19.4995 25.0745 19.9935 24.5805C20.4875 24.0864 21.1586 23.8104 21.8572 23.8138C22.2994 23.8256 22.7318 23.9467 23.1158 24.1662C24.3709 24.8893 25.9744 24.4617 26.7028 23.2096L27.6089 21.6993C27.9597 21.0973 28.056 20.3802 27.8764 19.707C27.6969 19.0337 27.2564 18.4598 26.6524 18.1124C26.0485 17.7649 25.6079 17.191 25.4284 16.5178C25.2489 15.8445 25.3451 15.1275 25.6959 14.5254C25.924 14.1272 26.2542 13.797 26.6524 13.5689C27.897 12.841 28.3236 11.2468 27.6089 9.99454V9.98195Z" stroke="black" stroke-width="2.0625" stroke-linecap="round" stroke-linejoin="round"/>
<path d="M15.7399 19.4711C17.7418 19.4711 19.3647 17.8483 19.3647 15.8464C19.3647 13.8445 17.7418 12.2217 15.7399 12.2217C13.7381 12.2217 12.1152 13.8445 12.1152 15.8464C12.1152 17.8483 13.7381 19.4711 15.7399 19.4711Z" stroke="black" stroke-width="2.0625" stroke-linecap="round" stroke-linejoin="round"/>
</g>
<defs>
<clipPath id="clip0_4919_9086">
<rect width="32" height="32" fill="white"/>
</clipPath>
</defs>
</svg>
