<svg width="32" height="32" viewBox="0 0 32 32" fill="none" xmlns="http://www.w3.org/2000/svg">
<path fill-rule="evenodd" clip-rule="evenodd" d="M15.9631 27.1578C11.6444 27.1578 7.95508 26.5045 7.95508 23.8885C7.95508 21.2725 11.6204 18.9951 15.9631 18.9951C20.2818 18.9951 23.9711 21.2511 23.9711 23.8658C23.9711 26.4805 20.3058 27.1578 15.9631 27.1578Z" stroke="black" stroke-width="1.5" stroke-linecap="round" stroke-linejoin="round"/>
<path fill-rule="evenodd" clip-rule="evenodd" d="M15.9635 15.2654C18.7981 15.2654 21.0968 12.968 21.0968 10.1333C21.0968 7.29867 18.7981 5 15.9635 5C13.1288 5 10.8301 7.29867 10.8301 10.1333C10.8221 12.9573 13.1021 15.2561 15.9275 15.2654H15.9635Z" stroke="black" stroke-width="1.5" stroke-linecap="round" stroke-linejoin="round"/>
<path d="M24.4831 13.8561C26.1324 13.4148 27.3484 11.9107 27.3484 10.12C27.3484 8.25203 26.0244 6.69203 24.2617 6.33203" stroke="black" stroke-width="1.5" stroke-linecap="round" stroke-linejoin="round"/>
<path d="M25.2578 18.0596C27.5965 18.0596 29.5938 19.6449 29.5938 21.0609C29.5938 21.8942 28.9045 22.8022 27.8591 23.0476" stroke="black" stroke-width="1.5" stroke-linecap="round" stroke-linejoin="round"/>
<path d="M7.44479 13.8561C5.79412 13.4148 4.57812 11.9107 4.57812 10.12C4.57812 8.25203 5.90346 6.69203 7.66479 6.33203" stroke="black" stroke-width="1.5" stroke-linecap="round" stroke-linejoin="round"/>
<path d="M6.66901 18.0596C4.33034 18.0596 2.33301 19.6449 2.33301 21.0609C2.33301 21.8942 3.02234 22.8022 4.06901 23.0476" stroke="black" stroke-width="1.5" stroke-linecap="round" stroke-linejoin="round"/>
</svg>
